<svg width="1044" height="919" viewBox="0 0 1044 919" fill="none" xmlns="http://www.w3.org/2000/svg"><mask id="a" fill="#fff"><path fill-rule="evenodd" clip-rule="evenodd" d="M885.494 82.497C775.498-27.5 597.159-27.5 487.163 82.497l-40.036 40.036-39.695-39.695c-109.996-109.996-288.335-109.996-398.33 0-109.996 109.995-109.996 288.334 0 398.33L445.144 917.21a2.998 2.998 0 004.242 0l396.21-396.209-.138-.138 40.036-40.036c109.996-109.996 109.996-288.334 0-398.33z"/></mask><path d="M487.163 82.497L476.557 71.89l10.606 10.607zm398.331 0l10.607-10.607-10.607 10.607zm-438.367 40.036l-10.606 10.607 10.606 10.606 10.607-10.606-10.607-10.607zm-39.695-39.695l-10.607 10.606 10.607-10.606zm-398.33 0L-1.505 72.23 9.102 82.838zm0 398.33l-10.607 10.607 10.607-10.607zM445.144 917.21l10.606-10.606-10.606 10.606zm4.242 0l-10.606-10.606 10.606 10.606zm396.21-396.209l10.606 10.607 10.607-10.607-10.607-10.606-10.606 10.606zm-.138-.138l-10.607-10.606-10.606 10.606 10.606 10.607 10.607-10.607zm40.036-40.036l-10.607-10.606 10.607 10.606zM497.77 93.104c104.138-104.138 272.979-104.139 377.117 0l21.214-21.214c-115.854-115.854-303.69-115.853-419.544 0l21.213 21.214zm-40.036 40.036l40.036-40.036-21.213-21.214-40.036 40.036 21.213 21.214zm-60.909-39.696l39.696 39.696 21.213-21.214-39.695-39.695-21.214 21.213zm-377.117 0c104.138-104.138 272.979-104.138 377.117 0l21.214-21.213c-115.854-115.854-303.69-115.854-419.544 0l21.213 21.213zm0 377.118c-104.138-104.139-104.138-272.98 0-377.118L-1.505 72.231c-115.854 115.854-115.854 303.69 0 419.544l21.213-21.213zM455.75 906.604L19.708 470.562l-21.213 21.213 436.042 436.042 21.213-21.213zm-16.97 0c4.686-4.687 12.284-4.687 16.97 0l-21.213 21.213c7.03 7.029 18.427 7.029 25.456 0l-21.213-21.213zm396.209-396.209L438.78 906.604l21.213 21.213 396.209-396.209-21.213-21.213zm-.138 21.075l.138.138 21.213-21.213-.138-.138-21.213 21.213zm40.036-61.249l-40.036 40.036 21.213 21.213 40.037-40.036-21.214-21.213zm0-377.118c104.138 104.138 104.138 272.98 0 377.118l21.214 21.213c115.849-115.854 115.849-303.69 0-419.544l-21.214 21.213z" fill="#E32E30" mask="url(#a)"/><path d="M508 178.332h536v636H508v-636z" fill="#fff"/></svg>