<svg width="370" height="618" viewBox="0 0 370 618" fill="none" xmlns="http://www.w3.org/2000/svg"><path d="M132 6c26 1 48 12 66 28l-17 243-33-2c-10-22-32-37-81-63-35-18-54-59-51-102C20 49 72 2 132 6z" fill="#A90034"/><path d="M133 6c25 1 48 12 66 28l-17 243-33-2c-10-22-32-37-81-63-35-18-55-59-52-102C21 49 73 2 133 6z" fill="url(#paint0_radial)"/><path d="M155 262l-1 1 1 1 1-1-1-1z" fill="url(#paint2_linear)"/><path d="M156 263l-1-1-1 1h2z" fill="url(#paint3_radial)"/><path d="M171 426c-1 0 0 1 0 0l-17-163h1l16 163c0 1 0 0 0 0z" fill="#fff"/><path d="M171 426c-1 0 0 1 0 0l-17-163h1s0 0 0 0l16 163zm0 0c0 1 0 0 0 0z" stroke="#fff"/><path d="M211 265l-1 1 1 1 1-1-1-1z" fill="url(#paint4_linear)"/><path d="M212 266l-1-1v2l1-1z" fill="url(#paint5_radial)"/><path d="M171 426c-1 0 0 1 0 0l40-160h1l-41 160c0 1 0 0 0 0z" fill="#fff"/><path d="M171 426c-1 0 0 1 0 0l40-160s0 0 0 0h1l-41 160zm0 0c0 1 0 0 0 0z" stroke="#fff"/><path d="M140 6C89 3 43 50 39 112c-3 42 14 83 43 101 43 26 61 41 70 63l28 1 18-243a85 85 0 00-58-28z" fill="#A90034"/><path d="M142 6C90 3 44 50 40 112c-3 42 14 83 44 101 42 26 61 41 70 63l28 1 17-243a86 86 0 00-57-28z" fill="url(#paint6_radial)"/><path d="M164 8c-29-2-57 46-62 107-3 43 6 83 23 100 23 25 34 40 38 62h16l18-243c-9-16-20-25-33-26z" fill="url(#paint7_linear)"/><path d="M166 8c-29-2-57 46-62 107-3 43 6 83 23 101 23 24 34 39 38 61h16l18-243c-9-15-20-25-33-26z" fill="url(#paint8_linear)"/><path d="M268 14c-25-2-50 6-69 20l-17 243 32 2c14-21 37-33 90-53 37-14 62-52 65-95 4-61-41-114-101-117z" fill="url(#paint9_radial)"/><path d="M261 13c52 4 90 56 86 117-3 42-26 81-58 95-32 15-52 25-65 37-5 5-10 11-13 18h-2l-26-3 17-243c17-14 39-22 61-21z" fill="url(#paint10_linear)"/><path d="M259 13c52 4 91 56 86 117-3 42-25 81-57 95s-51 24-64 36c-6 5-11 12-15 19l-28-3 18-243c17-14 38-22 60-21z" fill="url(#paint11_radial)"/><path d="M236 12c30 2 51 53 47 114-3 43-17 81-36 97-27 22-40 36-47 57h-2l-14-3 17-243c10-14 22-23 35-22z" fill="url(#paint12_linear)"/><path d="M234 12c30 2 51 53 47 114-3 43-17 81-36 97-27 22-40 36-47 57l-16-3 17-243c10-14 23-23 35-22z" fill="url(#paint13_linear)"/><path d="M234 12c30 2 51 53 47 114-3 43-17 81-36 97-27 22-40 36-47 57l-16-3 17-243c10-14 23-23 35-22z" fill="url(#paint14_linear)"/><path d="M205 272l-1 1 1 1 1-1-1-1z" fill="url(#paint15_linear)"/><path d="M206 273h-1v1l1-1z" fill="url(#paint16_radial)"/><path d="M171 426c-1 0 0 1 0 0l34-153-34 153c0 1 0 0 0 0z" fill="#fff"/><path d="M171 426c-1 0 0 1 0 0l34-153s0 0 0 0 0 0 0 0l-34 153zm0 0c0 1 0 0 0 0z" stroke="#fff"/><path d="M160 270h-1l1 1v-1z" fill="url(#paint17_radial)"/><path d="M160 270h-1v1l1-1c1 0 0 0 0 0z" fill="url(#paint18_linear)"/><path d="M171 426c-1 0 0 1 0 0l-12-155v-1l1 1 11 155c0 1 0 0 0 0z" fill="#fff"/><path d="M171 426c-1 0 0 1 0 0l-12-155v-1l1 1 11 155zm0 0c0 1 0 0 0 0z" stroke="#fff"/><path d="M271 450l-18 168-202-18 18-168 202 18z" fill="url(#paint19_linear)"/><path d="M68 433l201 17-17 167-202-18 18-166z" fill="url(#paint20_linear)"/><path opacity=".6" d="M62 480l204 18-5 39-203-18 4-39z" fill="url(#paint21_linear)"/><path d="M293 438l-7 70-244-21 7-70 244 21z" fill="url(#paint22_linear)"/><path d="M292 439l-7 68-242-21 7-68 242 21z" fill="url(#paint23_linear)"/><mask id="a" maskUnits="userSpaceOnUse" x="136" y="425" width="49" height="186"><path d="M166 610l-30-3 19-182 30 3-19 182z" fill="url(#paint24_linear)"/></mask><g mask="url(#a)"><path opacity=".6" d="M166 610l-30-3 19-182 30 3-19 182z" fill="url(#paint25_linear)"/><path d="M165 612l-20-2 19-186 20 2-19 186z" fill="url(#paint26_linear)"/><path d="M184 426l-19 186-20-2 19-185 20 1z" fill="url(#paint27_linear)"/><path opacity=".3" d="M164 424l20 2-1 12-21-2 2-12z" fill="url(#paint28_linear)"/><mask id="b" maskUnits="userSpaceOnUse" x="154" y="496" width="23" height="19"><path d="M156 497l21 2-2 16-21-2 2-16z" fill="url(#paint29_linear)"/></mask><g mask="url(#b)"><path opacity=".3" d="M156 497l21 2-2 16-21-2 2-16z" fill="url(#paint30_linear)"/></g><path d="M181 426l-19 186h2l19-186h-2zm-16-1l-19 186h2l19-186h-2z" fill="#FADFE1"/></g><path d="M171 369c8-1 18 0 27 4 20 24 4 44-8 43l-6-1c15 1 27-33-13-46z" fill="url(#paint31_linear)"/><path d="M184 415c15 1 27-32-13-46 8-1 18 0 27 4 19 24 4 44-9 43l-5-1z" fill="url(#paint32_linear)"/><path opacity=".3" d="M190 417l-6-2h3l5 1-2 1z" fill="url(#paint33_linear)"/><path d="M185 415c14 1 28-30-10-47h-2c39 15 26 48 12 47z" fill="#70656C"/><path d="M189 416c13 1 29-20 7-44l-2-1c23 23 7 45-5 45z" fill="#70656C"/><path d="M198 373c-10-4-22-6-31-5 2 7 14 17 17 25 4 9 1 18 1 20l1 4c3-4 7-13 6-23 0-9-6-20 6-21z" fill="url(#paint34_linear)"/><path d="M186 416c2-3 6-12 5-22 0-9-6-20 6-21-9-4-21-6-29-5 1 7 13 17 16 25 4 9 1 18 1 20l1 3z" fill="url(#paint35_linear)"/><path opacity=".3" d="M185 413l1 4 1-2-1-3-1 1z" fill="url(#paint36_linear)"/><path d="M186 416c2-4 6-13 4-22 0-10-7-20 3-23l2 1c-11 2-4 12-4 22 1 9-3 19-5 22z" fill="#FADFE1"/><path d="M185 414c0-3 4-12 0-21-3-8-15-18-16-25h3c-1 7 11 16 13 25 4 9 1 18 1 21h-1z" fill="#FADFE1"/><path d="M228 401c3 9 3 19 2 29-21 21-36 7-48-5l-3-6c15 9 39 14 49-18z" fill="url(#paint37_linear)"/><path d="M179 419c15 9 38 14 49-18 2 9 3 19 2 28-20 21-36 8-48-5l-3-5z" fill="url(#paint38_linear)"/><path opacity=".3" d="M182 425l-3-6 3 2 3 6-3-2z" fill="url(#paint39_linear)"/><path d="M179 420c15 9 38 16 50-14l-1-3c-11 31-34 26-49 17z" fill="#70656C"/><path d="M182 424c12 12 28 25 48 4l1-3c-20 23-37 10-49-1z" fill="#70656C"/><path d="M230 429c2-10 1-22-2-31-21-12-33 6-46 19l-3 5c16-9 37-18 51 7z" fill="url(#paint40_linear)"/><path d="M179 422c16-9 37-18 51 7 2-10 0-21-2-31-21-11-33 7-46 19l-3 5z" fill="url(#paint41_linear)"/><path opacity=".3" d="M182 417l-3 5 4-2 2-6-3 3z" fill="url(#paint42_linear)"/><path d="M180 421c15-9 35-20 51 3v3c-15-24-36-14-52-6h1z" fill="#FADFE1"/><path d="M182 417c13-12 26-29 47-17v3c-21-14-34 3-47 15v-1z" fill="#FADFE1"/><mask id="c" maskUnits="userSpaceOnUse" x="164" y="417" width="24" height="101"><path d="M168 518l7-21 12 13c-6-36-5-62-3-82l-16-10c-4 25-6 57 0 100z" fill="#fff"/></mask><g mask="url(#c)"><path d="M168 518l19-8c-6-36-5-62-3-82l-16-10c-4 25-6 57 0 100z" fill="url(#paint43_linear)"/><path d="M168 418c-4 25-6 57 1 99 6-1 12-4 18-7-6-36-5-62-4-82l-15-10z" fill="url(#paint44_linear)"/><path opacity=".3" d="M184 428l-16-10-1 5 16 9 1-4z" fill="url(#paint45_linear)"/><path d="M170 420c-3 24-5 55 1 97h-1c-7-42-5-73-1-98l1 1zm12 7c-1 21-3 47 4 84l-2 1c-6-38-5-65-3-86l1 1z" fill="#FADFE1"/></g><mask id="d" maskUnits="userSpaceOnUse" x="136" y="422" width="45" height="81"><path d="M155 502l-7-20-11 7c5-32 17-54 32-66l12 2c-14 16-24 41-26 77z" fill="#fff"/></mask><g mask="url(#d)"><path d="M155 502c-6-3-12-8-18-13 5-32 17-54 32-66l12 2c-14 16-24 41-26 77z" fill="url(#paint46_linear)"/><path d="M180 425c-14 16-24 41-26 77l-17-12c6-33 17-55 33-67 3 2 7 2 10 2z" fill="url(#paint47_linear)"/><path opacity=".3" d="M169 423l12 2-3 4-12-4 3-2z" fill="url(#paint48_linear)"/><path d="M179 425c-14 15-25 40-27 76h1c3-36 13-61 26-76zm-9-2c-15 12-27 35-32 68l2 1c5-33 16-56 31-68l-1-1z" fill="#FADFE1"/></g><path d="M156 374c-7 3-14 8-20 15-4 26 15 33 28 25l5-4c-15 10-36-11-13-36z" fill="url(#paint49_linear)"/><path d="M169 410c-15 10-36-10-14-35-6 2-13 7-19 13-4 27 15 34 28 26l5-4z" fill="url(#paint50_linear)"/><path opacity=".3" d="M164 414l5-4-4 1-4 4 3-1z" fill="url(#paint51_linear)"/><path d="M168 410c-15 11-36-8-15-34l1-1c-21 26 0 45 14 35z" fill="#70656C"/><path d="M164 413c-13 9-32 1-27-26l2-1c-7 27 12 36 26 27h-1z" fill="#70656C"/><path d="M136 388c6-7 15-13 23-15 3 5-2 15 0 23 1 7 7 12 9 13v3c-4-2-11-5-15-12-5-6-6-16-17-12z" fill="url(#paint52_linear)"/><path d="M167 412c-3-2-10-5-14-12s-5-16-16-12c5-7 14-12 21-15 3 5-1 16 1 23 0 8 7 12 8 13v3z" fill="url(#paint53_linear)"/><path opacity=".3" d="M167 409v3l-1-1v-3l1 1z" fill="url(#paint54_linear)"/><path d="M167 411c-3-1-10-5-13-12-4-7-4-16-15-14l-1 1c11-3 11 7 16 13 3 7 10 11 14 12h-1z" fill="#FADFE1"/><path d="M167 409c-1-1-8-5-9-13-1-7 3-18-1-22h-2c5 4 1 15 3 22 1 8 8 12 9 13z" fill="#FADFE1"/><path d="M115 407c1 9 3 19 8 28 27 13 36-5 43-20l1-6c-11 13-31 25-52-2z" fill="url(#paint55_linear)"/><path d="M167 409c-11 13-31 25-52-1 1 9 3 18 8 27 26 13 36-5 43-20l1-6z" fill="url(#paint56_linear)"/><path opacity=".3" d="M166 415l1-6-3 3v6l2-3z" fill="url(#paint57_linear)"/><path d="M167 410c-11 13-29 26-52 2v-3c22 26 41 14 52 1z" fill="#70656C"/><path d="M166 415c-7 15-17 32-44 18l-1-3c26 16 38-1 45-16v1z" fill="#70656C"/><path d="M123 434c-6-9-9-20-10-30 16-17 34-4 50 4l5 4c-18-3-41-6-45 22z" fill="url(#paint58_linear)"/><path d="M168 412c-18-4-41-6-46 21-4-8-7-19-8-29 15-17 33-4 49 4l5 4z" fill="url(#paint59_linear)"/><path opacity=".3" d="M163 408l5 4-4-1-4-5 3 2z" fill="url(#paint60_linear)"/><path d="M167 411c-17-4-40-8-47 19l1 2c6-27 29-24 47-21h-1z" fill="#FADFE1"/><path d="M163 408c-16-7-34-20-49-2v3c15-19 33-8 50-1h-1z" fill="#FADFE1"/><path d="M185 428l-23-2v-21c10 0 18 1 27 3l-4 20z" fill="url(#paint61_linear)"/><path d="M180 407l-3 14-15-2 1-14 17 2z" fill="url(#paint62_linear)"/><path d="M185 407l-4 21h2l4-20-2-1zm-20-2l-1 21h2l1-21h-2z" fill="#FADFE1"/><defs><linearGradient id="paint2_linear" x1="153.7" y1="262.8" x2="155.5" y2="262.9" gradientUnits="userSpaceOnUse"><stop stop-color="#E9E8E9"/><stop offset="1" stop-color="#C4C6C7"/></linearGradient><linearGradient id="paint4_linear" x1="210.5" y1="266.1" x2="212.3" y2="266.2" gradientUnits="userSpaceOnUse"><stop stop-color="#E9E8E9"/><stop offset="1" stop-color="#C4C6C7"/></linearGradient><linearGradient id="paint7_linear" x1="135.4" y1="275.2" x2="151.3" y2="7" gradientUnits="userSpaceOnUse"><stop offset=".1" stop-color="#A00C39"/><stop offset=".3" stop-color="#A4153D"/><stop offset=".4" stop-color="#B02749"/><stop offset=".6" stop-color="#C44764"/><stop offset=".7" stop-color="#D05B77"/><stop offset=".9" stop-color="#B82145"/><stop offset=".9" stop-color="#B10D3B"/></linearGradient><linearGradient id="paint8_linear" x1="102.9" y1="138.7" x2="190.9" y2="144.9" gradientUnits="userSpaceOnUse"><stop stop-color="#E96B85"/><stop offset=".2" stop-color="#E6657F"/><stop offset=".4" stop-color="#DB546F"/><stop offset=".6" stop-color="#CB3A59"/><stop offset=".9" stop-color="#B71841"/><stop offset="1" stop-color="#B0063A"/></linearGradient><linearGradient id="paint10_linear" x1="290.7" y1="254" x2="216.1" y2="22.1" gradientUnits="userSpaceOnUse"><stop offset=".1" stop-color="#A00C39"/><stop offset=".8" stop-color="#DC8397"/><stop offset=".8" stop-color="#D2697D"/><stop offset=".9" stop-color="#BC2E4C"/><stop offset="1" stop-color="#B10D3B"/></linearGradient><linearGradient id="paint12_linear" x1="227.5" y1="281.1" x2="243.4" y2="12.5" gradientUnits="userSpaceOnUse"><stop offset=".1" stop-color="#A00C39"/><stop offset=".3" stop-color="#B02D4C"/><stop offset=".8" stop-color="#DC8397"/><stop offset=".8" stop-color="#D3697F"/><stop offset="1" stop-color="#BD2E51"/><stop offset="1" stop-color="#B92149"/></linearGradient><linearGradient id="paint13_linear" x1="182.9" y1="145.7" x2="280.9" y2="146.7" gradientUnits="userSpaceOnUse"><stop offset="0" stop-color="#66041B"/><stop offset=".2" stop-color="#981134"/><stop offset=".3" stop-color="#9D1638"/><stop offset="1" stop-color="#BA3257"/></linearGradient><linearGradient id="paint14_linear" x1="131" y1="226.3" x2="295.1" y2="62.2" gradientUnits="userSpaceOnUse"><stop offset=".1" stop-color="#AB133F"/><stop offset=".6" stop-color="#C62F55"/><stop offset="1" stop-color="#DB456A"/></linearGradient><linearGradient id="paint15_linear" x1="204.4" y1="273.1" x2="206.2" y2="273.2" gradientUnits="userSpaceOnUse"><stop stop-color="#E9E8E9"/><stop offset="1" stop-color="#C4C6C7"/></linearGradient><linearGradient id="paint18_linear" x1="158.8" y1="270.4" x2="160.6" y2="270.5" gradientUnits="userSpaceOnUse"><stop stop-color="#E9E8E9"/><stop offset="1" stop-color="#C4C6C7"/></linearGradient><linearGradient id="paint19_linear" x1="262" y1="533.7" x2="60.2" y2="512.9" gradientUnits="userSpaceOnUse"><stop stop-color="#fff"/><stop offset=".5" stop-color="#D7D6D6"/><stop offset=".8" stop-color="#C2C2C3"/><stop offset="1" stop-color="#B6B6B8"/></linearGradient><linearGradient id="paint20_linear" x1="264.8" y1="445.2" x2="69.8" y2="620.8" gradientUnits="userSpaceOnUse"><stop stop-color="#B6B6B8"/><stop offset=".1" stop-color="#C2C2C3"/><stop offset=".2" stop-color="#D7D6D6"/><stop offset="1" stop-color="#fff"/></linearGradient><linearGradient id="paint21_linear" x1="164.2" y1="485" x2="160.3" y2="529.9" gradientUnits="userSpaceOnUse"><stop stop-color="#181519"/><stop offset="1" stop-color="#fff" stop-opacity="0"/></linearGradient><linearGradient id="paint22_linear" x1="254.9" y1="396" x2="92.3" y2="542.5" gradientUnits="userSpaceOnUse"><stop stop-color="#fff"/><stop offset=".6" stop-color="#D7D6D6"/><stop offset=".8" stop-color="#C2C2C3"/><stop offset="1" stop-color="#B6B6B8"/></linearGradient><linearGradient id="paint23_linear" x1="288.2" y1="472.9" x2="47.2" y2="448" gradientUnits="userSpaceOnUse"><stop stop-color="#B6B6B8"/><stop offset=".2" stop-color="#C2C2C3"/><stop offset=".4" stop-color="#D7D6D6"/><stop offset="1" stop-color="#fff"/></linearGradient><linearGradient id="paint24_linear" x1="176.2" y1="519.1" x2="144.8" y2="515.8" gradientUnits="userSpaceOnUse"><stop/><stop offset=".5" stop-color="#fff"/><stop offset=".5" stop-color="#F7F7F7"/><stop offset=".6" stop-color="#E0E0E0"/><stop offset=".7" stop-color="#BBB"/><stop offset=".8" stop-color="#888"/><stop offset=".9" stop-color="#484848"/><stop offset=".9"/></linearGradient><linearGradient id="paint25_linear" x1="176.3" y1="519.1" x2="144.8" y2="515.8" gradientUnits="userSpaceOnUse"><stop stop-color="#fff" stop-opacity="0"/><stop offset=".5" stop-color="#060609"/><stop offset=".5" stop-color="#09090E"/><stop offset=".6" stop-color="#151519"/><stop offset=".7" stop-color="#29282D"/><stop offset=".8" stop-color="#4A494F"/><stop offset=".9" stop-color="#858489"/><stop offset=".9" stop-color="#D7D6D7" stop-opacity="0"/></linearGradient><linearGradient id="paint26_linear" x1="215" y1="574.2" x2="124" y2="454.4" gradientUnits="userSpaceOnUse"><stop stop-color="#EB7173"/><stop offset=".3" stop-color="#E05360"/><stop offset=".9" stop-color="#CF1745"/></linearGradient><linearGradient id="paint27_linear" x1="154.6" y1="614.4" x2="171.4" y2="420.1" gradientUnits="userSpaceOnUse"><stop stop-color="#E96B85"/><stop offset=".2" stop-color="#E6657F"/><stop offset=".4" stop-color="#DB546F"/><stop offset=".6" stop-color="#CB3A59"/><stop offset=".9" stop-color="#B71841"/><stop offset="1" stop-color="#B0063A"/></linearGradient><linearGradient id="paint28_linear" x1="174.3" y1="423.1" x2="173.1" y2="436.3" gradientUnits="userSpaceOnUse"><stop offset=".1" stop-color="#535353" stop-opacity=".1"/><stop offset=".4" stop-color="#181519"/><stop offset="1" stop-color="#A2A2A2" stop-opacity="0"/></linearGradient><linearGradient id="paint29_linear" x1="166.9" y1="494.7" x2="165.4" y2="512.7" gradientUnits="userSpaceOnUse"><stop offset=".1"/><stop offset=".5" stop-color="#fff"/><stop offset="1"/></linearGradient><linearGradient id="paint30_linear" x1="168" y1="493.6" x2="165.5" y2="512.7" gradientUnits="userSpaceOnUse"><stop offset=".1" stop-color="#4F4F4F"/><stop offset=".5" stop-color="#6B6F78"/><stop offset="1" stop-color="#fff" stop-opacity="0"/></linearGradient><linearGradient id="paint31_linear" x1="169.4" y1="369.4" x2="201" y2="411.7" gradientUnits="userSpaceOnUse"><stop stop-color="#7F373F"/><stop offset=".5" stop-color="#6C2230"/><stop offset=".9" stop-color="#560D22"/></linearGradient><linearGradient id="paint32_linear" x1="190.7" y1="368.8" x2="186.2" y2="417.5" gradientUnits="userSpaceOnUse"><stop stop-color="#650616"/><stop offset=".1" stop-color="#831922"/><stop offset=".4" stop-color="#690616"/><stop offset=".5" stop-color="#790D1C"/><stop offset=".8" stop-color="#620615"/><stop offset=".9" stop-color="#7A141F"/><stop offset="1" stop-color="#6C0D19"/><stop offset="1" stop-color="#620615"/></linearGradient><linearGradient id="paint33_linear" x1="188.2" y1="416.7" x2="188.4" y2="415.1" gradientUnits="userSpaceOnUse"><stop offset=".1" stop-color="#515258"/><stop offset=".4" stop-color="#181519"/><stop offset="1" stop-color="#fff"/></linearGradient><linearGradient id="paint34_linear" x1="199.6" y1="375" x2="171.5" y2="400" gradientUnits="userSpaceOnUse"><stop stop-color="#EB7173"/><stop offset=".3" stop-color="#E05360"/><stop offset=".9" stop-color="#CF1745"/></linearGradient><linearGradient id="paint35_linear" x1="182.5" y1="367.5" x2="177.9" y2="416.9" gradientUnits="userSpaceOnUse"><stop stop-color="#E96B85"/><stop offset=".2" stop-color="#E6657F"/><stop offset=".4" stop-color="#DB546F"/><stop offset=".6" stop-color="#CB3A59"/><stop offset=".9" stop-color="#B71841"/><stop offset="1" stop-color="#B0063A"/></linearGradient><linearGradient id="paint36_linear" x1="185.7" y1="417.3" x2="186.2" y2="412.2" gradientUnits="userSpaceOnUse"><stop offset=".1" stop-color="#BBBABD"/><stop offset=".4" stop-color="#181519"/><stop offset="1" stop-color="#fff"/></linearGradient><linearGradient id="paint37_linear" x1="227.2" y1="400.2" x2="197.6" y2="438.1" gradientUnits="userSpaceOnUse"><stop stop-color="#7F373F"/><stop offset=".5" stop-color="#6C2230"/><stop offset=".9" stop-color="#560D22"/></linearGradient><linearGradient id="paint38_linear" x1="231.7" y1="419.9" x2="178.1" y2="424.7" gradientUnits="userSpaceOnUse"><stop stop-color="#650616"/><stop offset=".1" stop-color="#831922"/><stop offset=".4" stop-color="#690616"/><stop offset=".5" stop-color="#790D1C"/><stop offset=".8" stop-color="#620615"/><stop offset=".9" stop-color="#7A141F"/><stop offset="1" stop-color="#6C0D19"/><stop offset="1" stop-color="#620615"/></linearGradient><linearGradient id="paint39_linear" x1="178.3" y1="423.3" x2="184" y2="422.8" gradientUnits="userSpaceOnUse"><stop offset=".1" stop-color="#515258"/><stop offset=".4" stop-color="#181519"/><stop offset="1" stop-color="#fff"/></linearGradient><linearGradient id="paint40_linear" x1="229.6" y1="430.1" x2="197.4" y2="400.4" gradientUnits="userSpaceOnUse"><stop stop-color="#EB7173"/><stop offset=".3" stop-color="#E05360"/><stop offset=".9" stop-color="#CF1745"/></linearGradient><linearGradient id="paint41_linear" x1="231.4" y1="410.9" x2="177.3" y2="415.7" gradientUnits="userSpaceOnUse"><stop stop-color="#E96B85"/><stop offset=".2" stop-color="#E6657F"/><stop offset=".4" stop-color="#DB546F"/><stop offset=".6" stop-color="#CB3A59"/><stop offset=".9" stop-color="#B71841"/><stop offset="1" stop-color="#B0063A"/></linearGradient><linearGradient id="paint42_linear" x1="177.6" y1="418.3" x2="184.6" y2="417.7" gradientUnits="userSpaceOnUse"><stop offset=".1" stop-color="#BBBABD"/><stop offset=".4" stop-color="#181519"/><stop offset="1" stop-color="#fff"/></linearGradient><linearGradient id="paint43_linear" x1="143.2" y1="490.8" x2="196.5" y2="441.6" gradientUnits="userSpaceOnUse"><stop stop-color="#EB7173"/><stop offset=".3" stop-color="#E05360"/><stop offset=".9" stop-color="#CF1745"/></linearGradient><linearGradient id="paint44_linear" x1="183" y1="517.3" x2="124.4" y2="472.1" gradientUnits="userSpaceOnUse"><stop stop-color="#E96B85"/><stop offset=".2" stop-color="#E6657F"/><stop offset=".4" stop-color="#DB546F"/><stop offset=".6" stop-color="#CB3A59"/><stop offset=".9" stop-color="#B71841"/><stop offset="1" stop-color="#B0063A"/></linearGradient><linearGradient id="paint45_linear" x1="176.1" y1="416.5" x2="175.1" y2="430.1" gradientUnits="userSpaceOnUse"><stop offset=".1" stop-color="#BBBABD"/><stop offset=".4" stop-color="#181519"/><stop offset="1" stop-color="#fff"/></linearGradient><linearGradient id="paint46_linear" x1="173.3" y1="496.6" x2="151.8" y2="428.5" gradientUnits="userSpaceOnUse"><stop stop-color="#EB7173"/><stop offset=".3" stop-color="#E05360"/><stop offset=".9" stop-color="#CF1745"/></linearGradient><linearGradient id="paint47_linear" x1="140.2" y1="497.4" x2="174.7" y2="420.5" gradientUnits="userSpaceOnUse"><stop stop-color="#E96B85"/><stop offset=".2" stop-color="#E6657F"/><stop offset=".4" stop-color="#DB546F"/><stop offset=".6" stop-color="#CB3A59"/><stop offset=".9" stop-color="#B71841"/><stop offset="1" stop-color="#B0063A"/></linearGradient><linearGradient id="paint48_linear" x1="175.3" y1="421.9" x2="172.7" y2="427.7" gradientUnits="userSpaceOnUse"><stop offset=".1" stop-color="#BBBABD"/><stop offset=".4" stop-color="#181519"/><stop offset="1" stop-color="#fff"/></linearGradient><linearGradient id="paint49_linear" x1="155.4" y1="374.4" x2="150.9" y2="417.2" gradientUnits="userSpaceOnUse"><stop stop-color="#7F373F"/><stop offset=".5" stop-color="#6C2230"/><stop offset=".9" stop-color="#560D22"/></linearGradient><linearGradient id="paint50_linear" x1="139.6" y1="383.4" x2="163.1" y2="415.6" gradientUnits="userSpaceOnUse"><stop stop-color="#650616"/><stop offset=".1" stop-color="#831922"/><stop offset=".4" stop-color="#690616"/><stop offset=".5" stop-color="#790D1C"/><stop offset=".8" stop-color="#620615"/><stop offset=".9" stop-color="#7A141F"/><stop offset="1" stop-color="#6C0D19"/><stop offset="1" stop-color="#620615"/></linearGradient><linearGradient id="paint51_linear" x1="165.4" y1="413" x2="164.7" y2="412" gradientUnits="userSpaceOnUse"><stop offset=".1" stop-color="#515258"/><stop offset=".4" stop-color="#181519"/><stop offset="1" stop-color="#fff"/></linearGradient><linearGradient id="paint52_linear" x1="136.2" y1="389.4" x2="169.6" y2="393.6" gradientUnits="userSpaceOnUse"><stop stop-color="#EB7173"/><stop offset=".3" stop-color="#E05360"/><stop offset=".9" stop-color="#CF1745"/></linearGradient><linearGradient id="paint53_linear" x1="145.8" y1="378.4" x2="169.7" y2="411.1" gradientUnits="userSpaceOnUse"><stop stop-color="#E96B85"/><stop offset=".2" stop-color="#E6657F"/><stop offset=".4" stop-color="#DB546F"/><stop offset=".6" stop-color="#CB3A59"/><stop offset=".9" stop-color="#B71841"/><stop offset="1" stop-color="#B0063A"/></linearGradient><linearGradient id="paint54_linear" x1="168.1" y1="411.9" x2="165.8" y2="408.8" gradientUnits="userSpaceOnUse"><stop offset=".1" stop-color="#BBBABD"/><stop offset=".4" stop-color="#181519"/><stop offset="1" stop-color="#fff"/></linearGradient><linearGradient id="paint55_linear" x1="115.1" y1="406" x2="156.5" y2="432.3" gradientUnits="userSpaceOnUse"><stop stop-color="#7F373F"/><stop offset=".5" stop-color="#6C2230"/><stop offset=".9" stop-color="#560D22"/></linearGradient><linearGradient id="paint56_linear" x1="117.9" y1="425.8" x2="169.1" y2="411.2" gradientUnits="userSpaceOnUse"><stop stop-color="#650616"/><stop offset=".1" stop-color="#831922"/><stop offset=".4" stop-color="#690616"/><stop offset=".5" stop-color="#790D1C"/><stop offset=".8" stop-color="#620615"/><stop offset=".9" stop-color="#7A141F"/><stop offset="1" stop-color="#6C0D19"/><stop offset="1" stop-color="#620615"/></linearGradient><linearGradient id="paint57_linear" x1="169.2" y1="412.9" x2="163.8" y2="414.4" gradientUnits="userSpaceOnUse"><stop offset=".1" stop-color="#515258"/><stop offset=".4" stop-color="#181519"/><stop offset="1" stop-color="#fff"/></linearGradient><linearGradient id="paint58_linear" x1="123.5" y1="434.8" x2="143.6" y2="397.4" gradientUnits="userSpaceOnUse"><stop stop-color="#EB7173"/><stop offset=".3" stop-color="#E05360"/><stop offset=".9" stop-color="#CF1745"/></linearGradient><linearGradient id="paint59_linear" x1="114.9" y1="417.3" x2="166.6" y2="402.5" gradientUnits="userSpaceOnUse"><stop stop-color="#E96B85"/><stop offset=".2" stop-color="#E6657F"/><stop offset=".4" stop-color="#DB546F"/><stop offset=".6" stop-color="#CB3A59"/><stop offset=".9" stop-color="#B71841"/><stop offset="1" stop-color="#B0063A"/></linearGradient><linearGradient id="paint60_linear" x1="168.1" y1="407.9" x2="161.4" y2="409.9" gradientUnits="userSpaceOnUse"><stop offset=".1" stop-color="#BBBABD"/><stop offset=".4" stop-color="#181519"/><stop offset="1" stop-color="#fff"/></linearGradient><linearGradient id="paint61_linear" x1="185.3" y1="428.1" x2="166.5" y2="402.3" gradientUnits="userSpaceOnUse"><stop stop-color="#EB7173"/><stop offset=".3" stop-color="#E05360"/><stop offset=".9" stop-color="#CF1745"/></linearGradient><linearGradient id="paint62_linear" x1="169.9" y1="420.4" x2="171.5" y2="405.4" gradientUnits="userSpaceOnUse"><stop offset="0" stop-color="#B0063A"/><stop offset=".1" stop-color="#B71841"/><stop offset=".4" stop-color="#CB3A59"/><stop offset=".6" stop-color="#DB546F"/><stop offset=".8" stop-color="#E6657F"/><stop offset="1" stop-color="#E96B85"/></linearGradient><radialGradient id="paint0_radial" cx="0" cy="0" r="1" gradientUnits="userSpaceOnUse" gradientTransform="matrix(120.15257 7.13108 -6.55343 110.4197 103 138)"><stop stop-color="#A63958"/><stop offset=".5" stop-color="#982141"/><stop offset=".9" stop-color="#8E0E33"/></radialGradient><radialGradient id="paint1_radial" cx="0" cy="0" r="1" gradientUnits="userSpaceOnUse" gradientTransform="matrix(97.00118 -14.30427 15.58528 105.68804 100 107)"><stop offset=".1" stop-color="#fff"/><stop offset=".3" stop-color="#fff"/><stop offset=".4" stop-color="#F9F9F9"/><stop offset=".4" stop-color="#E7E7E7"/><stop offset=".5" stop-color="#CACACA"/><stop offset=".7" stop-color="#A1A1A1"/><stop offset=".8" stop-color="#6D6D6D"/><stop offset=".9" stop-color="#2E2E2E"/><stop offset="1"/></radialGradient><radialGradient id="paint3_radial" cx="0" cy="0" r="1" gradientUnits="userSpaceOnUse" gradientTransform="rotate(3 -4360 2744) scale(1.62445 1.49265)"><stop stop-color="#E65073"/><stop offset=".2" stop-color="#E4496D"/><stop offset=".5" stop-color="#DF385F"/><stop offset=".9" stop-color="#D8194B"/><stop offset=".9" stop-color="#D71649"/></radialGradient><radialGradient id="paint5_radial" cx="0" cy="0" r="1" gradientUnits="userSpaceOnUse" gradientTransform="matrix(1.62258 .0963 -.0885 1.491 212 267)"><stop stop-color="#E65073"/><stop offset=".2" stop-color="#E4496D"/><stop offset=".5" stop-color="#DF385F"/><stop offset=".9" stop-color="#D8194B"/><stop offset=".9" stop-color="#D71649"/></radialGradient><radialGradient id="paint6_radial" cx="0" cy="0" r="1" gradientUnits="userSpaceOnUse" gradientTransform="matrix(116.43207 6.91106 -6.35076 106.99268 115 139)"><stop stop-color="#DF4F73"/><stop offset=".5" stop-color="#D12A55"/><stop offset=".9" stop-color="#CA1347"/></radialGradient><radialGradient id="paint9_radial" cx="0" cy="0" r="1" gradientUnits="userSpaceOnUse" gradientTransform="rotate(3 -2366 4780) scale(120.38 110.62)"><stop stop-color="#E24E71"/><stop offset=".2" stop-color="#DC466A"/><stop offset=".6" stop-color="#CA3359"/><stop offset=".9" stop-color="#B41945"/></radialGradient><radialGradient id="paint11_radial" cx="0" cy="0" r="1" gradientUnits="userSpaceOnUse" gradientTransform="matrix(139.35975 7.30354 -6.7114 128.06126 188 144)"><stop offset=".2" stop-color="#CC607B"/><stop offset=".2" stop-color="#CA5A75"/><stop offset=".7" stop-color="#B82849"/><stop offset=".9" stop-color="#B1133D"/></radialGradient><radialGradient id="paint16_radial" cx="0" cy="0" r="1" gradientUnits="userSpaceOnUse" gradientTransform="rotate(3 -4509 3603) scale(1.62791 1.3951)"><stop stop-color="#E65073"/><stop offset=".2" stop-color="#E4496D"/><stop offset=".5" stop-color="#DF385F"/><stop offset=".9" stop-color="#D8194B"/><stop offset=".9" stop-color="#D71649"/></radialGradient><radialGradient id="paint17_radial" cx="0" cy="0" r="1" gradientUnits="userSpaceOnUse" gradientTransform="rotate(3 -4486 2833) scale(1.62791 1.39516)"><stop stop-color="#E65073"/><stop offset=".2" stop-color="#E4496D"/><stop offset=".5" stop-color="#DF385F"/><stop offset=".9" stop-color="#D8194B"/><stop offset=".9" stop-color="#D71649"/></radialGradient></defs></svg>