<svg width="748" height="818" viewBox="0 0 748 818" fill="none" xmlns="http://www.w3.org/2000/svg"><mask id="a" fill="#fff"><path fill-rule="evenodd" clip-rule="evenodd" d="M633.353 73.503c-98.005-98.004-256.901-98.004-354.905 0l-35.672 35.672-35.368-35.368c-98.004-98.005-256.9-98.004-354.905 0-98.004 98.004-98.004 256.9 0 354.905l388.506 388.505a2.673 2.673 0 003.78 0l353.015-353.015-.123-.122 35.672-35.672c98.004-98.004 98.004-256.901 0-354.905z"/></mask><path d="M278.448 73.503l9.45 9.45-9.45-9.45zm354.905 0l9.45-9.45-9.45 9.45zm-390.577 35.672l-9.45 9.45 9.45 9.45 9.45-9.45-9.45-9.45zm-35.368-35.368l-9.45 9.45 9.45-9.45zm-354.905 0l-9.45-9.45 9.45 9.45zm0 354.905l9.45-9.451-9.45 9.451zm388.506 388.505l-9.451 9.45.001.001 9.45-9.451zm3.78 0l9.45 9.451v-.001l-9.45-9.45zm353.015-353.015l9.45 9.451 9.449-9.449-9.448-9.451-9.451 9.449zm-.123-.122l-9.45-9.451-9.449 9.449 9.448 9.451 9.451-9.449zm35.672-35.672l-9.451-9.45 9.451 9.45zM287.898 82.953c92.785-92.785 243.219-92.784 336.004 0l18.901-18.9c-103.224-103.224-270.582-103.224-373.806 0l18.901 18.9zm-35.672 35.672l35.672-35.672-18.901-18.9-35.671 35.672 18.9 18.9zm-54.268-35.368l35.368 35.368 18.9-18.9-35.368-35.368-18.9 18.9zm-336.004 0c92.784-92.785 243.219-92.785 336.004 0l18.9-18.9c-103.223-103.224-270.582-103.224-373.805 0l18.901 18.9zm-.001 336.004c-92.785-92.785-92.784-243.219.001-336.004l-18.901-18.9c-103.224 103.223-103.224 270.581 0 373.805l18.9-18.901zm388.506 388.506l-388.506-388.506-18.9 18.901 388.505 388.505 18.901-18.9zm-15.12 0c4.175-4.175 10.945-4.175 15.12 0l-18.9 18.901c6.263 6.263 16.417 6.263 22.68 0l-18.9-18.901zm353.014-353.015L235.339 807.767l18.9 18.9 353.015-353.014-18.901-18.901zm-.123 18.777l.122.122 18.903-18.898-.122-.122-18.903 18.898zm35.672-54.571l-35.671 35.671 18.9 18.901 35.672-35.672-18.901-18.9zm0-336.005c92.785 92.786 92.785 243.22 0 336.005l18.901 18.9c103.223-103.223 103.223-270.582 0-373.805l-18.901 18.9z" fill="#E32E30" mask="url(#a)"/><path d="M297 315h451v400H297V315z" fill="#fff"/></svg>