<svg width="218" height="262" viewBox="0 0 218 262" fill="none" xmlns="http://www.w3.org/2000/svg"><path d="M0 59.616a5 5 0 015-5h78.279v40.425H5a5 5 0 01-5-5V59.616zm170 0a5 5 0 00-5-5H86.721v40.425H165a5 5 0 005-5V59.616zm-14 38.716H14v78a5 5 0 005 5h132a5 5 0 005-5v-78z" fill="#FDC423"/><path d="M70.377 12.91c6.43 6.947 10.687 36.782 10.687 36.782s-29.45-6.585-35.88-13.532c-6.43-6.947-6.002-17.783.955-24.204 6.957-6.42 17.809-5.993 24.238.954zm29.246 0c-6.43 6.947-10.687 36.782-10.687 36.782s29.45-6.585 35.88-13.532c6.429-6.947 6.002-17.783-.955-24.204-6.957-6.42-17.809-5.993-24.238.954z" stroke="#FDC423" stroke-width="3"/><path d="M49.98 128.242c1.078 1.32 3.344 2.354 6.05 2.354 3.498 0 6.028-1.782 6.028-4.312 0-2.2-1.936-3.366-3.41-3.52 1.606-.286 3.19-1.496 3.19-3.344 0-2.442-2.376-3.982-5.808-3.982-2.574 0-4.664.99-5.852 2.332l1.562 1.936c1.034-.99 2.552-1.54 3.982-1.54 1.672 0 2.992.594 2.992 1.76 0 1.078-1.122 1.628-2.992 1.628h-2.596v2.684h2.596c2.2 0 3.234.55 3.234 1.738 0 1.122-1.122 1.892-3.058 1.892-1.43 0-3.278-.594-4.29-1.672l-1.628 2.046zm24.714 2.09h3.41l-5.654-14.674h-3.916l-5.676 14.674h3.432l.924-2.53h6.556l.924 2.53zm-4.202-11.968l2.42 6.732H68.05l2.442-6.732zm17.679 11.968h3.85l-6.226-7.788 5.83-6.886h-3.85l-5.192 6.556v-6.556h-3.124v14.674h3.124v-4.51l1.144-1.364 4.444 5.874zm15.548 0h3.41l-5.654-14.674h-3.916l-5.676 14.674h3.432l.924-2.53h6.556l.924 2.53zm-4.202-11.968l2.42 6.732h-4.862l2.442-6.732zm7.955 9.878c1.078 1.32 3.344 2.354 6.05 2.354 3.498 0 6.028-1.782 6.028-4.312 0-2.2-1.936-3.366-3.41-3.52 1.606-.286 3.19-1.496 3.19-3.344 0-2.442-2.376-3.982-5.808-3.982-2.574 0-4.664.99-5.852 2.332l1.562 1.936c1.034-.99 2.552-1.54 3.982-1.54 1.672 0 2.992.594 2.992 1.76 0 1.078-1.122 1.628-2.992 1.628h-2.596v2.684h2.596c2.2 0 3.234.55 3.234 1.738 0 1.122-1.122 1.892-3.058 1.892-1.43 0-3.278-.594-4.29-1.672l-1.628 2.046zm-70.811 32.354c3.52 0 5.632-2.552 5.632-5.588 0-3.014-2.112-5.566-5.632-5.566-3.498 0-5.61 2.552-5.61 5.566 0 3.036 2.112 5.588 5.61 5.588zm0-2.486c-1.738 0-2.706-1.43-2.706-3.102 0-1.65.968-3.08 2.706-3.08s2.728 1.43 2.728 3.08c0 1.672-.99 3.102-2.728 3.102zm9.663 2.222h2.816v-8.184h2.97v-2.442h-8.757v2.442h2.97v8.184zm17.032 0h3.718V142.99H63.85l-5.46 5.486 2.106 2.21 2.86-2.938v12.584zm12.974-8.658c0 4.472 2.21 8.97 7.176 8.97 4.94 0 7.176-4.498 7.176-8.97s-2.236-8.944-7.176-8.944c-4.966 0-7.176 4.472-7.176 8.944zm10.582 0c0 3.198-.936 5.694-3.406 5.694-2.496 0-3.432-2.496-3.432-5.694s.936-5.668 3.432-5.668c2.47 0 3.406 2.47 3.406 5.668zm5.541 0c0 4.472 2.21 8.97 7.176 8.97 4.94 0 7.176-4.498 7.176-8.97s-2.236-8.944-7.176-8.944c-4.966 0-7.176 4.472-7.176 8.944zm10.582 0c0 3.198-.936 5.694-3.406 5.694-2.496 0-3.432-2.496-3.432-5.694s.936-5.668 3.432-5.668c2.47 0 3.406 2.47 3.406 5.668zm5.541 0c0 4.472 2.21 8.97 7.176 8.97 4.94 0 7.176-4.498 7.176-8.97s-2.236-8.944-7.176-8.944c-4.966 0-7.176 4.472-7.176 8.944zm10.582 0c0 3.198-.936 5.694-3.406 5.694-2.496 0-3.432-2.496-3.432-5.694s.936-5.668 3.432-5.668c2.47 0 3.406 2.47 3.406 5.668zm16.067 4.14c2.592 0 4.032-1.71 4.032-3.726 0-2.034-1.422-3.762-4.032-3.762h-5.616v5.49h-1.062v1.998h1.062v1.368h-1.062v1.404h1.062v1.746h2.556v-1.746h4.392v-1.404h-4.392v-1.368h3.06zm-3.06-5.238h2.718c1.008 0 1.764.612 1.764 1.62 0 .99-.756 1.62-1.764 1.62h-2.718v-3.24z" fill="#000"/><path fill-rule="evenodd" clip-rule="evenodd" d="M208.981 174.683c-11.136-11.135-29.19-11.135-40.326 0l-4.156 4.156-4.155-4.155c-11.135-11.135-29.189-11.135-40.325 0-11.135 11.136-11.135 29.19 0 40.325l44.358 44.358.123-.123.123.122 44.358-44.357c11.135-11.136 11.135-29.19 0-40.326z" fill="#E32E30"/><path d="M123.888 213.884h9.155v-4.12h-9.155v4.12zm14.908 7.172h5.951l9.461-21.668v-3.777h-19.112v4.769h12.818l-9.118 20.676zm17.469-12.703c0 6.561 3.242 13.16 10.529 13.16 7.248 0 10.529-6.599 10.529-13.16 0-6.562-3.281-13.123-10.529-13.123-7.287 0-10.529 6.561-10.529 13.123zm15.526 0c0 4.692-1.373 8.354-4.997 8.354-3.662 0-5.036-3.662-5.036-8.354 0-4.693 1.374-8.317 5.036-8.317 3.624 0 4.997 3.624 4.997 8.317zm7.645-3.184c0 2.903 2.091 5.119 5.274 5.119 3.215 0 5.306-2.216 5.306-5.119 0-2.934-2.091-5.244-5.306-5.244-3.183 0-5.274 2.31-5.274 5.244zm3.246 15.887h2.34l13.328-20.819h-2.372l-13.296 20.819zm4.494-15.887c0 1.623-1.03 2.684-2.466 2.684-1.404 0-2.465-1.061-2.465-2.684 0-1.748 1.061-2.778 2.465-2.778 1.436 0 2.466 1.03 2.466 2.778zm3.714 11.111c0 2.903 2.091 5.15 5.275 5.15s5.306-2.247 5.306-5.15c0-2.934-2.122-5.243-5.306-5.243s-5.275 2.309-5.275 5.243zm7.772 0c0 1.686-1.061 2.716-2.497 2.716s-2.466-1.03-2.466-2.716c0-1.716 1.03-2.778 2.466-2.778 1.436 0 2.497 1.062 2.497 2.778z" fill="#fff"/><path d="M.468 211.082v2.466c2.448 0 4.41-.9 5.004-8.298l.126-1.674h3.816v9.756h2.574v-12.006H3.456l-.288 3.6c-.414 5.382-1.494 6.156-2.7 6.156zm24.578-9.954c-3.186 0-5.598 1.998-6.138 4.914H16.91v-4.716h-2.556v12.006h2.556v-5.04h1.944c.414 3.096 2.88 5.256 6.192 5.256 3.636 0 6.264-2.592 6.264-6.21s-2.628-6.21-6.264-6.21zm0 10.152c-2.232 0-3.654-1.71-3.654-3.942 0-2.25 1.422-3.942 3.654-3.942 2.214 0 3.654 1.692 3.654 3.942 0 2.232-1.44 3.942-3.654 3.942zm16.848-9.954h-8.767v12.006h5.67c2.575 0 3.979-1.728 3.979-3.798 0-2.07-1.423-3.816-3.979-3.816h-3.113v-2.196h6.21v-2.196zm-6.21 6.606h2.772c.99 0 1.71.63 1.71 1.602 0 .954-.72 1.584-1.71 1.584h-2.773v-3.186zm8.676-6.606v12.006h2.466l5.724-8.496v8.496h2.556v-12.006h-2.628l-5.562 8.208v-8.208H44.36zm23.553 12.006h2.574v-12.006h-3.6l-2.916 7.488-2.916-7.488h-3.582v12.006h2.556v-8.64l3.384 8.64h1.116l3.384-8.64v8.64zm7.515-12.006h-2.556v12.006h5.616c2.61 0 4.032-1.764 4.032-3.87 0-2.088-1.44-3.87-4.032-3.87h-3.06v-4.266zm8.1 12.006h2.574v-12.006h-2.574v12.006zm-8.1-5.49h2.718c1.008 0 1.764.63 1.764 1.62 0 1.008-.756 1.62-1.764 1.62h-2.718v-3.24zm18.435-7.416c1.314 0 2.484-.63 3.222-1.62l-1.224-1.008a2.417 2.417 0 01-1.998 1.062c-.864 0-1.548-.414-1.998-1.062l-1.242 1.008a4.066 4.066 0 003.24 1.62zm-5.382.9v12.006h2.466l5.724-8.496v8.496h2.556v-12.006h-2.628l-5.562 8.208v-8.208h-2.556zM9.414 236.332h2.574v-12.006h-10.8v12.006h2.556v-9.756h5.67v9.756zm4.94 0h2.556v-4.302h3.06c2.592 0 4.032-1.746 4.032-3.834 0-2.106-1.422-3.87-4.032-3.87h-5.616v12.006zm7.038-8.154c0 1.008-.756 1.656-1.764 1.656H16.91v-3.312h2.718c1.008 0 1.764.666 1.764 1.656zm3.618 2.16c0 3.618 2.646 6.21 6.264 6.21 3.636 0 6.282-2.592 6.282-6.21s-2.646-6.21-6.282-6.21c-3.618 0-6.264 2.592-6.264 6.21zm9.918 0c0 2.232-1.44 3.942-3.654 3.942s-3.636-1.71-3.636-3.942c0-2.25 1.422-3.942 3.636-3.942 2.214 0 3.654 1.692 3.654 3.942zm2.995 3.744v4.464h2.232v-2.214h8.118v2.214h2.25v-4.464h-1.458v-9.756h-8.19l-.27 3.204c-.36 4.158-1.152 5.922-1.746 6.552h-.936zm4.914-6.084l.108-1.422h3.564v7.506h-5.076c.558-.702 1.134-2.448 1.404-6.084zm16.485-3.672l-2.682 6.354-3.276-6.354H50.43l4.86 8.82c-.45.81-.918 1.134-1.71 1.134-.306 0-.612-.054-.846-.18l-.558 2.196c.414.162 1.044.252 1.548.252 2.142 0 3.24-1.026 4.032-2.736l4.428-9.486h-2.862zm11.097 12.006h3.15l-5.094-6.372 4.77-5.634h-3.15l-4.248 5.364v-5.364h-2.555v12.006h2.555v-3.69l.937-1.116 3.635 4.806zm7.088 0h2.574v-9.756h3.492v-2.25h-9.576v2.25h3.51v9.756zM6.912 259.548c2.736 0 4.248-1.458 5.112-2.952l-2.196-1.062c-.504.99-1.584 1.746-2.916 1.746-2.088 0-3.672-1.674-3.672-3.942 0-2.268 1.584-3.942 3.672-3.942 1.332 0 2.412.774 2.916 1.746l2.196-1.08c-.846-1.494-2.376-2.934-5.112-2.934-3.51 0-6.3 2.52-6.3 6.21s2.79 6.21 6.3 6.21zm6.057-6.21c0 3.618 2.646 6.21 6.264 6.21 3.636 0 6.282-2.592 6.282-6.21s-2.646-6.21-6.282-6.21c-3.618 0-6.264 2.592-6.264 6.21zm9.918 0c0 2.232-1.44 3.942-3.654 3.942s-3.636-1.71-3.636-3.942c0-2.25 1.422-3.942 3.636-3.942 2.214 0 3.654 1.692 3.654 3.942zm14.752 6.21c2.736 0 4.248-1.458 5.112-2.952l-2.196-1.062c-.504.99-1.584 1.746-2.916 1.746-2.088 0-3.672-1.674-3.672-3.942 0-2.268 1.584-3.942 3.672-3.942 1.332 0 2.412.774 2.916 1.746l2.196-1.08c-.846-1.494-2.376-2.934-5.112-2.934-3.51 0-6.3 2.52-6.3 6.21s2.79 6.21 6.3 6.21zm13.761-.216h3.15l-5.094-6.372 4.77-5.634h-3.15l-4.248 5.364v-5.364h-2.556v12.006h2.556v-3.69l.936-1.116 3.636 4.806zm4.315-12.006v12.006h2.466l5.724-8.496v8.496h2.556v-12.006h-2.628l-5.562 8.208v-8.208h-2.556zm12.232 9.756v4.464h2.232v-2.214h8.118v2.214h2.25v-4.464h-1.458v-9.756h-8.19l-.27 3.204c-.36 4.158-1.152 5.922-1.746 6.552h-.936zm4.914-6.084l.108-1.422h3.564v7.506h-5.076c.558-.702 1.134-2.448 1.404-6.084zm16.314 8.334h3.15l-5.094-6.372 4.77-5.634h-3.15l-4.248 5.364v-5.364h-2.556v12.006h2.556v-3.69l.936-1.116 3.636 4.806zm3.019-5.994c0 3.618 2.646 6.21 6.264 6.21 3.636 0 6.282-2.592 6.282-6.21s-2.646-6.21-6.282-6.21c-3.618 0-6.264 2.592-6.264 6.21zm9.918 0c0 2.232-1.44 3.942-3.654 3.942s-3.636-1.71-3.636-3.942c0-2.25 1.422-3.942 3.636-3.942 2.214 0 3.654 1.692 3.654 3.942zm9.804-6.912c1.314 0 2.484-.63 3.222-1.62l-1.224-1.008a2.417 2.417 0 01-1.998 1.062c-.864 0-1.548-.414-1.998-1.062l-1.242 1.008a4.066 4.066 0 003.24 1.62zm-5.382.9v12.006H109l5.724-8.496v8.496h2.556v-12.006h-2.628l-5.562 8.208v-8.208h-2.556z" fill="#000"/></svg>