<svg width="1924" height="282" viewBox="0 0 1924 282" fill="none" xmlns="http://www.w3.org/2000/svg"><path fill-rule="evenodd" clip-rule="evenodd" d="M1220.55 97.432c-13.91-8.42-32.01-3.97-40.43 9.94l-3.14 5.191-5.19-3.142c-13.91-8.42-32.01-3.97-40.44 9.939-8.42 13.91-3.97 32.012 9.94 40.433l55.41 33.542.1-.154.15.093 33.54-55.409c8.42-13.91 3.97-32.012-9.94-40.433zm325.2 13.575c-5.33-5.337-13.99-5.337-19.33 0l-1.99 1.993-1.99-1.992c-5.34-5.338-13.99-5.338-19.33 0-5.34 5.337-5.34 13.991 0 19.328l21.26 21.262.06-.059.06.059 21.26-21.262c5.34-5.337 5.34-13.991 0-19.329zm-520.49 137.751c-2.77-5.342-9.35-7.426-14.69-4.654l-2.02 1.046-1.04-2.017c-2.78-5.342-9.352-7.425-14.694-4.654-5.342 2.772-7.426 9.349-4.654 14.691l11.04 21.279.083-.043.043.082 21.282-11.04c5.34-2.771 7.42-9.349 4.65-14.69zm891.74-58.07c-8.91-8.917-23.37-8.917-32.29 0l-3.36 3.367-3.37-3.367c-8.92-8.917-23.38-8.917-32.29 0-8.92 8.917-8.92 23.374 0 32.291l35.52 35.521.14-.138.13.137 35.52-35.52c8.92-8.917 8.92-23.374 0-32.291zM240.552 97.432c-13.91-8.42-32.012-3.97-40.432 9.94l-3.143 5.191-5.19-3.142c-13.91-8.42-32.012-3.97-40.433 9.939-8.42 13.91-3.97 32.012 9.94 40.433l55.409 33.542.093-.154.153.093 33.542-55.409c8.421-13.91 3.971-32.012-9.939-40.433zm325.201 13.575c-5.338-5.337-13.992-5.337-19.329 0L544.431 113l-1.992-1.992c-5.337-5.338-13.991-5.338-19.328 0-5.338 5.337-5.338 13.991 0 19.328l21.261 21.262.06-.059.059.059 21.262-21.262c5.337-5.337 5.337-13.991 0-19.329zM45.26 248.758c-2.771-5.342-9.348-7.426-14.69-4.654l-2.017 1.046-1.047-2.017c-2.771-5.342-9.348-7.425-14.69-4.654-5.342 2.772-7.426 9.349-4.654 14.691l11.04 21.279.083-.043.043.082 21.279-11.04c5.341-2.771 7.425-9.349 4.654-14.69zm891.745-58.07c-8.917-8.917-23.375-8.917-32.292 0l-3.367 3.367-3.367-3.367c-8.917-8.917-23.374-8.917-32.291 0-8.917 8.917-8.917 23.374 0 32.291l35.52 35.521.138-.138.138.137 35.521-35.52c8.917-8.917 8.917-23.374 0-32.291z" fill="#E32E30"/><g filter="url(#filter0_d)"><path d="M1223.65 188.474c0-5.013-4.42-8.96-9.76-8.96-1.04 0-1.97.107-2.79.427.47-1.067.7-2.24.7-3.52 0-5.653-4.99-10.133-11.03-10.133-5.46 0-9.88 3.52-10.81 8.213-.93-4.267-5.11-7.467-9.99-7.467-.93 0-1.86.107-2.67.32v-.32c0-7.04-6.16-12.693-13.82-12.693-7.67 0-13.83 5.653-13.83 12.693 0 1.494.35 2.987.82 4.267-1.28-.533-2.56-.747-4.07-.747-5.23 0-9.41 3.627-9.76 8.32-1.74-1.066-3.83-1.6-6.04-1.6-6.15 0-11.03 4.587-11.03 10.134 0 5.653 4.99 10.133 11.03 10.133h85.27v-.213c4.41-.96 7.78-4.48 7.78-8.854z" fill="url(#paint0_linear)"/><path d="M1210.65 179.741l-.49 1.107 1.13-.442c.73-.287 1.58-.392 2.6-.392 5.11 0 9.26 3.766 9.26 8.46 0 4.093-3.16 7.445-7.39 8.365l-.39.086v.116h-84.77c-5.81 0-10.53-4.299-10.53-9.633 0-5.235 4.62-9.634 10.53-9.634 2.13 0 4.13.514 5.78 1.527l.7.428.06-.818c.33-4.397 4.26-7.857 9.26-7.857 1.46 0 2.67.205 3.87.708l1.06.439-.39-1.071c-.45-1.242-.79-2.676-.79-4.096 0-6.724 5.9-12.193 13.33-12.193s13.32 5.469 13.32 12.193v.968l.63-.164c.76-.201 1.65-.304 2.54-.304 4.67 0 8.63 3.063 9.5 7.073l.98-.009c.88-4.434 5.07-7.81 10.32-7.81 5.8 0 10.53 4.298 10.53 9.633 0 1.218-.22 2.323-.65 3.32z" stroke="url(#paint1_linear)"/></g><g filter="url(#filter1_d)"><path d="M1248.74 182.821c0-2.56-1.97-4.587-4.53-5.12 1.28-.854 2.09-2.134 2.09-3.627 0-2.453-2.21-4.48-4.88-4.374-1.28 0-2.55.534-3.37 1.281-.46-1.6-2.09-2.774-3.95-2.774.24-.64.35-1.28.35-1.92 0-2.987-2.67-5.44-5.92-5.333-1.63 0-3.14.64-4.18 1.706-.58-1.493-1.86-2.56-3.6-2.88.11-.426.23-.96.23-1.493 0-2.987-2.67-5.44-5.93-5.333-2.32 0-4.18 1.173-5.22 2.986a5.33 5.33 0 00-3.37-1.173c-2.79 0-5.11 2.133-5 4.693 0 .534.12 1.174.35 1.707h-.35c-1.51 0-2.9.853-3.6 1.92-.81-1.493-2.44-2.56-4.41-2.56-2.67 0-4.88 2.027-4.77 4.48 0 .427.12.747.24 1.173-.58-.106-1.16-.213-1.86-.213-3.49 0-6.16 2.56-6.16 5.76 0 1.814.93 3.307 2.33 4.374-1.52.64-2.44 2.026-2.44 3.626 0 2.24 1.97 4.054 4.41 3.947v.107c0 2.666 2.44 4.8 5.34 4.8l53.79-.427v-.107c2.32-.426 4.41-2.666 4.41-5.226z" fill="url(#paint2_linear)"/><path d="M1243.93 177.285l-.99.662 1.17.243c2.37.495 4.13 2.354 4.13 4.631 0 2.299-1.9 4.348-4 4.734l-.41.076v.027l-53.29.423s0 0 0 0c-2.68-.001-4.84-1.963-4.84-4.3v-.629l-.52.022c-2.19.096-3.89-1.52-3.89-3.447 0-1.394.8-2.602 2.13-3.166l.79-.335-.68-.523c-1.3-.994-2.13-2.352-2.13-3.976 0-2.896 2.42-5.26 5.66-5.26.64 0 1.18.098 1.77.205l.78.144-.21-.767c-.02-.085-.05-.163-.07-.235-.09-.322-.15-.528-.15-.807v-.023c-.1-2.114 1.82-3.957 4.27-3.957 1.79 0 3.24.964 3.97 2.299l.4.735.46-.7c.61-.933 1.85-1.694 3.18-1.694h1.11l-.3-.7a4.031 4.031 0 01-.31-1.507v-.022c-.1-2.222 1.94-4.171 4.5-4.171 1.16 0 2.21.387 3.05 1.063l.46.366.29-.506c.96-1.663 2.65-2.736 4.79-2.736h.02c3-.099 5.41 2.16 5.41 4.833 0 .467-.11.951-.22 1.362l-.14.525.53.098c1.58.29 2.72 1.246 3.23 2.57l.28.722.54-.554c.95-.967 2.33-1.556 3.83-1.556h.01c3.01-.099 5.41 2.16 5.41 4.833 0 .578-.1 1.161-.32 1.75l-.24.67h.71c1.66 0 3.08 1.049 3.47 2.413l.23.774.59-.545c.72-.662 1.88-1.149 3.03-1.149h.02c2.42-.096 4.36 1.734 4.36 3.874 0 1.295-.7 2.431-1.87 3.211z" stroke="url(#paint3_linear)"/></g><g filter="url(#filter2_d)"><mask id="a" fill="#fff"><path d="M1394.05 128.042c0-1.28-.93-2.347-2.2-2.667 0-.107-.12-.107-.12-.213.12-.32.23-.64.23-.96 0-.64-.35-1.28-.81-1.707.46-.533.81-1.28.81-2.027 0-1.813-1.51-3.2-3.48-3.2-1.05 0-1.86.427-2.56.96-.35-.746-1.16-1.386-2.09-1.386-.7 0-1.39.32-1.86.853a2.227 2.227 0 00-2.09-1.387v-.426c0-1.387-1.16-2.454-2.67-2.454-.47 0-.81.107-1.16.214v-.107c0-1.6-1.4-2.773-3.14-2.773-.93 0-1.86.426-2.32 1.066-.7-1.173-2.09-1.92-3.6-1.92-2.21 0-4.07 1.707-4.07 3.734v.213c-.23 0-.35-.107-.58-.107-.7 0-1.39.32-1.74.854-.7-.96-1.98-1.6-3.37-1.6-2.21 0-4.07 1.706-4.07 3.733v.427c-1.39.106-2.44 1.066-2.67 2.346-.35-.106-.69-.213-1.04-.213-1.51 0-2.68 1.067-2.68 2.453 0 .854.47 1.494 1.05 2.027a3.618 3.618 0 00-2.44 3.413c0 2.027 1.86 3.734 4.07 3.734h41.93c1.63-.32 2.67-1.494 2.67-2.88z"/></mask><path d="M1394.05 128.042c0-1.28-.93-2.347-2.2-2.667 0-.107-.12-.107-.12-.213.12-.32.23-.64.23-.96 0-.64-.35-1.28-.81-1.707.46-.533.81-1.28.81-2.027 0-1.813-1.51-3.2-3.48-3.2-1.05 0-1.86.427-2.56.96-.35-.746-1.16-1.386-2.09-1.386-.7 0-1.39.32-1.86.853a2.227 2.227 0 00-2.09-1.387v-.426c0-1.387-1.16-2.454-2.67-2.454-.47 0-.81.107-1.16.214v-.107c0-1.6-1.4-2.773-3.14-2.773-.93 0-1.86.426-2.32 1.066-.7-1.173-2.09-1.92-3.6-1.92-2.21 0-4.07 1.707-4.07 3.734v.213c-.23 0-.35-.107-.58-.107-.7 0-1.39.32-1.74.854-.7-.96-1.98-1.6-3.37-1.6-2.21 0-4.07 1.706-4.07 3.733v.427c-1.39.106-2.44 1.066-2.67 2.346-.35-.106-.69-.213-1.04-.213-1.51 0-2.68 1.067-2.68 2.453 0 .854.47 1.494 1.05 2.027a3.618 3.618 0 00-2.44 3.413c0 2.027 1.86 3.734 4.07 3.734h41.93c1.63-.32 2.67-1.494 2.67-2.88z" fill="url(#paint4_linear)"/><path d="M1391.85 125.375h-1v.781l.75.189.25-.97zm-.12-.213l-.94-.341-.06.165v.176h1zm-.58-2.667l-.76-.657-.64.735.72.659.68-.737zm-5.23-4.267l-.9.423.52 1.128.99-.756-.61-.795zm-3.95-.533l-.92.378.61 1.503 1.07-1.224-.76-.657zm-2.09-1.387h-1v1h1v-1zm-3.83-2.666h-1v1.352l1.29-.396-.29-.956zm-5.46-1.814l-.86.511.77 1.307.9-1.23-.81-.588zm-7.67 2.027v1h1v-1h-1zm-2.32.747l-.81.587.85 1.175.8-1.215-.84-.547zm-7.44 2.56l.08.997.92-.071v-.926h-1zm-2.67 2.346l-.29.957 1.08.329.2-1.107-.99-.179zm-2.67 4.267l.33.943 1.57-.554-1.22-1.125-.68.736zm43.56 7.147v1h.1l.09-.019-.19-.981zm3.67-2.88c0-1.798-1.3-3.221-2.96-3.637l-.49 1.94c.9.224 1.45.935 1.45 1.697h2zm-2.2-2.667a1.038 1.038 0 00-.19-.61c-.05-.076-.1-.133-.13-.169a.322.322 0 00-.04-.041c.02.022.06.064.09.123.04.062.08.138.11.228.03.089.04.176.04.256h-2c0 .106.01.216.05.327.03.11.08.205.13.283.05.076.1.133.13.169a.524.524 0 01.05.041c-.02-.022-.06-.064-.1-.123a1.009 1.009 0 01-.11-.228 1.18 1.18 0 01-.03-.256h2zm-.18.128c.1-.283.29-.773.29-1.301h-2c0 .112-.04.261-.17.619l1.88.682zm.29-1.301c0-.983-.52-1.875-1.14-2.443l-1.35 1.473c.31.284.49.673.49.97h2zm-1.06-1.05c.59-.672 1.06-1.644 1.06-2.684h-2c0 .454-.22.976-.57 1.37l1.51 1.314zm1.06-2.684c0-2.444-2.04-4.2-4.48-4.2v2c1.5 0 2.48 1.018 2.48 2.2h2zm-4.48-4.2c-1.35 0-2.37.559-3.17 1.166l1.22 1.589c.6-.46 1.2-.755 1.95-.755v-2zm-1.65 1.538c-.49-1.037-1.62-1.964-3-1.964v2c.48 0 .97.352 1.19.809l1.81-.845zm-3-1.964c-.99 0-1.96.449-2.61 1.196l1.51 1.314c.27-.319.7-.51 1.1-.51v-2zm-.93 1.475a3.239 3.239 0 00-3.02-2.009v2c.54 0 .98.299 1.17.765l1.85-.756zm-2.02-1.009v-.426h-2v.426h2zm0-.426c0-2.018-1.69-3.454-3.67-3.454v2c1.04 0 1.67.698 1.67 1.454h2zm-3.67-3.454c-.63 0-1.11.15-1.46.258l.59 1.912c.35-.106.57-.17.87-.17v-2zm-1.16 1.214h1v-.107h-2v.107h1zm1-.107c0-2.277-1.98-3.773-4.14-3.773v2c1.33 0 2.14.85 2.14 1.773h2zm-4.14-3.773c-1.18 0-2.44.532-3.13 1.479l1.62 1.175c.24-.333.84-.654 1.51-.654v-2zm-1.46 1.556c-.9-1.512-2.64-2.41-4.46-2.41v2c1.2 0 2.24.596 2.74 1.431l1.72-1.021zm-4.46-2.41c-2.68 0-5.07 2.076-5.07 4.734h2c0-1.396 1.33-2.734 3.07-2.734v-2zm-5.07 4.734v.213h2v-.213h-2zm1-.787c.05 0 .09.017 0-.009-.09-.028-.3-.098-.58-.098v2c-.05 0-.09-.016 0 .01.09.027.3.097.58.097v-2zm-.58-.107c-.96 0-2.01.433-2.58 1.307l1.68 1.094c.12-.193.47-.401.9-.401v-2zm-.93 1.266c-.91-1.245-2.5-2.012-4.18-2.012v2c1.11 0 2.07.513 2.56 1.187l1.62-1.175zm-4.18-2.012c-2.68 0-5.07 2.076-5.07 4.733h2c0-1.396 1.33-2.733 3.07-2.733v-2zm-5.07 4.733v.427h2v-.427h-2zm.93-.57c-1.84.14-3.27 1.426-3.58 3.165l1.97.357c.14-.821.81-1.455 1.76-1.528l-.15-1.994zm-2.31 2.387c-.31-.097-.81-.257-1.33-.257v2c.17 0 .37.054.75.17l.58-1.913zm-1.33-.257c-1.98 0-3.68 1.436-3.68 3.453h2c0-.755.64-1.453 1.68-1.453v-2zm-3.68 3.453c0 1.264.71 2.152 1.37 2.764l1.36-1.473c-.5-.455-.73-.847-.73-1.291h-2zm1.72 1.084a4.615 4.615 0 00-3.11 4.356h2c0-1.075.67-2.08 1.77-2.47l-.66-1.886zm-3.11 4.356c0 2.658 2.39 4.734 5.07 4.734v-2c-1.74 0-3.07-1.338-3.07-2.734h-2zm5.07 4.734h41.93v-2h-41.93v2zm42.12-.019c2-.394 3.48-1.907 3.48-3.861h-2c0 .819-.61 1.652-1.86 1.899l.38 1.962z" fill="url(#paint5_linear)" mask="url(#a)"/></g><g filter="url(#filter3_d)"><path d="M1892.27 255.262c0-2.774-2.2-5.014-5.11-5.547 1.4-.853 2.32-2.347 2.21-4.053 0-2.667-2.44-4.907-5.46-4.8-1.51 0-2.79.533-3.72 1.493-.58-1.707-2.32-2.987-4.3-2.987.24-.64.35-1.386.35-2.133-.11-3.307-3.02-5.973-6.62-5.867-1.86 0-3.48.747-4.65 1.92-.58-1.6-2.09-2.773-3.94-3.2.11-.533.23-1.066.23-1.6 0-3.306-3.02-5.973-6.62-5.866-2.56 0-4.65 1.386-5.7 3.306-1.04-.746-2.32-1.28-3.71-1.28-3.14 0-5.58 2.347-5.58 5.227 0 .64.12 1.28.35 1.813h-.35c-1.74 0-3.13.96-3.95 2.24-.93-1.706-2.79-2.88-4.88-2.773-2.9 0-5.34 2.24-5.22 5.013 0 .427.11.854.23 1.28-.7-.213-1.28-.213-1.98-.213-3.83 0-6.85 2.88-6.73 6.4 0 1.92 1.04 3.627 2.55 4.8-1.62.747-2.67 2.24-2.67 4.053 0 2.454 2.21 4.48 4.88 4.374v.106c0 2.987 2.67 5.334 5.92 5.227l59.36-.853v-.107c2.91-.64 5.11-3.093 5.11-5.973z" fill="url(#paint6_linear)"/><path d="M1886.9 249.288l-1.11.683 1.28.236c2.72.499 4.7 2.573 4.7 5.055 0 2.613-2.01 4.888-4.72 5.485l-.39.086v.016l-58.86.846h0-.01c-3.02.099-5.41-2.066-5.41-4.727v-.627l-.52.021c-2.42.096-4.36-1.734-4.36-3.874 0-1.602.92-2.927 2.38-3.599l.75-.343-.65-.506c-1.42-1.103-2.36-2.675-2.36-4.405v-.017c-.11-3.198 2.64-5.883 6.23-5.883.7 0 1.22.003 1.83.191l.87.266-.24-.875c-.12-.44-.21-.801-.21-1.149v-.021c-.11-2.443 2.06-4.492 4.72-4.492h.02l.01-.001c1.88-.096 3.57.962 4.41 2.513l.41.746.45-.717c.74-1.16 1.99-2.008 3.53-2.008h1.11l-.3-.7c-.2-.459-.31-1.029-.31-1.613 0-2.578 2.19-4.727 5.08-4.727 1.26 0 2.44.485 3.42 1.187l.46.328.27-.496c.96-1.763 2.89-3.045 5.26-3.045h0l.01-.001c3.37-.099 6.11 2.386 6.11 5.367 0 .47-.1.95-.22 1.494l-.11.483.48.11c1.73.398 3.08 1.476 3.59 2.884l.27.742.56-.561a5.983 5.983 0 014.29-1.772h.02c3.34-.099 5.99 2.369 6.1 5.376 0 .695-.11 1.379-.32 1.954l-.24.67h.71c1.77 0 3.32 1.149 3.83 2.648l.26.774.57-.587c.83-.855 1.97-1.341 3.36-1.341h.01l.01-.001c2.77-.098 4.94 1.954 4.94 4.301v.033c.1 1.493-.71 2.821-1.97 3.593z" stroke="url(#paint7_linear)"/></g><g filter="url(#filter4_d)"><path d="M1387.6 254.37c0-2.56-1.97-4.587-4.65-5.12 1.28-.854 2.09-2.134 2.09-3.734 0-2.453-2.2-4.48-4.99-4.373-1.28 0-2.56.533-3.37 1.28-.46-1.6-2.09-2.773-3.95-2.667.23-.64.35-1.28.35-1.92 0-2.987-2.79-5.44-6.04-5.333-1.63 0-3.14.64-4.18 1.706-.58-1.493-1.98-2.559-3.6-2.879.11-.427.23-.961.23-1.494 0-2.987-2.79-5.44-6.04-5.333-2.32 0-4.3 1.28-5.23 2.986a5.33 5.33 0 00-3.37-1.173c-2.79 0-5.11 2.133-4.99 4.8 0 .64.11 1.174.35 1.707h-.35c-1.51 0-2.91.853-3.6 2.027-.82-1.494-2.56-2.56-4.53-2.56-2.68 0-4.88 2.026-4.77 4.586 0 .427.12.747.24 1.174-.59-.107-1.17-.214-1.86-.214-3.49 0-6.16 2.667-6.16 5.867 0 1.813.93 3.307 2.32 4.373-1.51.64-2.44 2.027-2.44 3.627 0 2.24 2.1 4.053 4.53 3.947v.106c0 2.667 2.44 4.8 5.35 4.8l54.01-.746v-.107c2.68-.533 4.65-2.773 4.65-5.333z" fill="url(#paint8_linear)"/><path d="M1382.68 248.834l-1.01.67 1.19.236c2.49.497 4.24 2.358 4.24 4.63 0 2.294-1.78 4.35-4.24 4.843l-.41.08v.023l-53.51.74h-.01c-2.68-.001-4.84-1.963-4.84-4.3v-.629l-.52.023c-2.2.096-4.01-1.537-4.01-3.447 0-1.394.81-2.603 2.14-3.166l.79-.336-.68-.522c-1.3-.994-2.13-2.352-2.13-3.976 0-2.908 2.43-5.367 5.66-5.367.64 0 1.18.098 1.77.205l.78.144-.21-.767c-.03-.085-.05-.163-.07-.235-.09-.322-.15-.528-.15-.807v-.022c-.1-2.23 1.83-4.064 4.27-4.064 1.8 0 3.37.974 4.09 2.299l.42.771.45-.755c.61-1.026 1.84-1.782 3.17-1.782h1.11l-.31-.7c-.2-.47-.3-.935-.3-1.507v-.022c-.1-2.336 1.94-4.278 4.49-4.278 1.17 0 2.22.387 3.06 1.063l.46.375.29-.525c.84-1.545 2.65-2.726 4.79-2.726h.01c3.02-.099 5.53 2.172 5.53 4.833 0 .468-.1.951-.22 1.362l-.14.518.53.104c1.48.291 2.72 1.257 3.23 2.571l.28.722.54-.554c.95-.967 2.33-1.556 3.83-1.556h.02c3.01-.099 5.52 2.172 5.52 4.833 0 .578-.11 1.161-.32 1.75l-.26.713.76-.044c1.64-.094 3.04.941 3.44 2.307l.23.774.59-.545c.72-.662 1.88-1.148 3.03-1.148h.01l.01-.001c2.54-.097 4.47 1.742 4.47 3.874 0 1.408-.7 2.542-1.86 3.318z" stroke="url(#paint9_linear)"/></g><g filter="url(#filter5_d)"><path d="M1689.77 40.365c0-1.707-1.16-3.094-2.9-3.627 0-.107-.12-.213-.12-.213.24-.427.35-.854.35-1.28 0-.854-.46-1.707-1.16-2.24a3.89 3.89 0 001.05-2.667c0-2.347-2.09-4.267-4.65-4.267-1.28 0-2.44.534-3.37 1.28a3.002 3.002 0 00-2.79-1.813c-1.04 0-1.85.427-2.44 1.173-.34-1.066-1.51-1.813-2.78-1.813h-.12c0-.213.12-.32.12-.533 0-1.814-1.63-3.307-3.6-3.307-.59 0-1.05.107-1.51.32v-.107c0-2.026-1.86-3.733-4.07-3.733-1.28 0-2.44.533-3.14 1.387-.93-1.494-2.67-2.56-4.76-2.56-3.02 0-5.46 2.24-5.46 5.013v.213c-.23-.106-.46-.106-.81-.106-.93 0-1.86.426-2.33 1.066-.92-1.28-2.55-2.133-4.41-2.133-3.02 0-5.46 2.24-5.46 5.013v.534c-1.86.213-3.25 1.493-3.48 3.093-.47-.213-.93-.213-1.4-.213-1.97 0-3.6 1.493-3.6 3.306 0 1.067.58 2.027 1.4 2.667-1.98.747-3.26 2.56-3.26 4.587 0 2.773 2.44 5.013 5.46 5.013l55.53-.106c2.32-.534 3.71-2.134 3.71-3.947z" fill="url(#paint10_linear)"/><path d="M1686.13 36.629l.24.222v.257l.35.108c1.57.48 2.55 1.698 2.55 3.149 0 1.509-1.15 2.94-3.27 3.447h-.56l-1.75.004-6.24.012-18.98.037-27.94.053c-2.78 0-4.96-2.055-4.96-4.513 0-1.81 1.14-3.443 2.93-4.12l.83-.312-.7-.548c-.72-.567-1.2-1.393-1.2-2.274 0-1.498 1.36-2.806 3.1-2.806.48 0 .84.006 1.19.168l.6.278.1-.661c.2-1.343 1.38-2.477 3.05-2.668l.44-.051v-.448 0-.005 0-.006 0-.005 0-.006 0-.006 0-.006 0-.007 0-.007 0-.007 0-.002 0-.007 0-.009 0-.002 0-.008 0-.002 0-.01 0-.002 0-.002 0-.012 0-.002 0-.002 0-.002 0-.002 0-.018 0-.002 0-.002 0-.002 0-.002 0-.002 0-.002 0-.002 0-.002 0-.002 0-.002 0-.002 0-.002 0-.002 0-.002 0-.002 0-.002 0-.002 0-.002 0-.002 0-.002 0-.016 0-.002 0-.002 0-.002 0-.002 0-.002 0-.002 0-.011 0-.002 0-.002 0-.002 0-.002 0-.002 0-.008 0-.002 0-.002 0-.002 0-.002 0-.008 0-.002 0-.002 0-.002 0-.002 0-.007 0-.002 0-.002 0-.002 0-.002 0-.007 0-.002 0-.002 0-.002 0-.002 0-.008 0-.002 0-.002 0-.002 0-.002 0-.009 0-.002 0-.002 0-.002 0-.002 0-.002 0-.012 0-.002 0-.002 0-.002 0-.002 0-.002 0-.002 0-.002 0-.002 0-.048 0-.002 0-.002 0-.002 0-.002 0-.002 0-.014 0-.002 0-.002 0-.012 0-.002 0-.002 0-.008 0-.002 0-.008 0-.002 0-.007 0-.002 0-.006 0-.008 0-.007 0-.006 0-.006 0-.006 0-.006 0-.006 0-.005 0-.005c0-2.457 2.18-4.513 4.96-4.513 1.71 0 3.18.784 4.01 1.927l.4.558.41-.558c.35-.486 1.12-.86 1.92-.86.37 0 .49.008.6.06l.71.326v-.78 0-.002 0-.001 0-.002 0-.001 0-.002 0-.001 0-.002 0-.001 0-.001 0-.002 0-.001 0-.001 0-.002 0-.001 0-.001 0-.001 0-.001 0-.001 0-.001 0-.002 0-.001 0-.001 0-.001 0-.001 0-.001 0-.001 0-.001 0-.001 0-.001 0-.001 0-.001 0-.001 0-.001 0-.001 0-.001 0-.001 0-.001 0-.001 0-.001 0-.001 0-.001 0-.001 0-.001 0-.001 0-.001 0-.001 0-.001 0-.001 0-.001 0-.001 0-.001 0-.001 0-.001 0-.001 0-.001 0-.001 0-.001 0-.001 0-.001 0-.001 0-.001 0-.001 0-.001 0-.001 0-.001 0-.001 0-.001 0-.001 0-.001 0-.001 0-.001 0-.001 0-.001 0-.001 0-.001 0-.001 0-.001 0-.001 0-.001 0-.001 0-.001 0-.001 0-.001 0-.001 0-.001 0-.001 0-.001 0-.001 0-.001 0-.001 0-.001 0-.001 0-.001 0-.001 0-.001 0-.001 0-.001 0-.001 0-.001 0-.001 0-.001 0-.001 0-.001 0-.001 0-.001 0-.001 0-.001 0-.001 0-.001 0-.001 0-.001 0-.001 0-.001 0-.001 0-.001 0-.001 0-.001 0-.001 0-.001 0-.001 0-.001 0-.001 0-.001 0-.001 0-.001 0-.001 0-.001 0-.001 0-.001 0-.001 0-.001 0-.001 0-.001 0-.001 0-.001 0-.001 0-.001 0-.001 0-.001 0-.001 0-.001 0-.001 0-.001 0-.001 0-.001 0-.001 0-.001 0-.001 0-.001 0-.001 0-.001 0-.001 0-.001 0-.001 0-.001 0-.001 0-.001 0-.001 0-.001 0-.001 0-.001 0-.001 0-.001 0-.001 0-.001 0-.001 0-.001 0-.001 0-.001 0-.001 0-.001 0-.001 0-.001 0-.001 0-.001 0-.001 0-.001 0-.001 0-.001 0-.001 0-.001 0-.001 0-.001 0-.001 0-.002 0-.001 0-.001 0-.001 0-.002 0-.001 0-.001 0-.002 0-.001 0-.002 0-.001 0-.002 0-.001 0-.002 0-.001 0c0-2.459 2.18-4.514 4.96-4.514 1.92 0 3.5.976 4.34 2.324l.37.594.44-.542c.59-.724 1.6-1.203 2.75-1.203 1.97 0 3.57 1.522 3.57 3.233v.887l.7-.326c.4-.182.79-.274 1.31-.274 1.73 0 3.1 1.309 3.1 2.807v0c0 .01 0 .018-.03.096l-.01.01a1.22 1.22 0 00-.08.427v.5h.62c1.1 0 2.04.647 2.31 1.469l.29.894.58-.743c.49-.626 1.15-.98 2.04-.98 1.08 0 1.95.622 2.33 1.513l.26.6.51-.41c.87-.695 1.92-1.17 3.06-1.17 2.32 0 4.15 1.736 4.15 3.767 0 .84-.31 1.676-.91 2.326l-.38.403.44.335c.59.45.96 1.163.96 1.843 0 .332-.09.677-.28 1.04l-.19.344z" stroke="url(#paint11_linear)"/></g><g filter="url(#filter6_d)"><path d="M1908.43 107.947c0-4.054-3.6-7.36-8.02-7.36-.81 0-1.62.106-2.32.32.35-.854.58-1.814.58-2.88 0-4.587-4.07-8.32-9.06-8.32-4.41 0-8.13 2.88-8.83 6.72-.81-3.52-4.18-6.08-8.13-6.08-.81 0-1.51.106-2.21.32v-.32c0-5.76-4.99-10.347-11.27-10.347-6.27 0-11.26 4.587-11.26 10.347 0 1.28.23 2.453.69 3.52a8.36 8.36 0 00-3.25-.64c-4.18 0-7.66 2.986-8.01 6.826-1.4-.853-3.14-1.28-4.88-1.28-5 0-9.06 3.734-9.06 8.32 0 4.587 4.06 8.32 9.06 8.32h69.69v-.106c3.61-.747 6.28-3.734 6.28-7.36z" fill="url(#paint12_linear)"/><path d="M1897.63 100.718l-.4.975 1.01-.308c.64-.197 1.4-.298 2.17-.298 4.18 0 7.52 3.122 7.52 6.86 0 3.364-2.48 6.166-5.88 6.87l-.4.083v.013h-69.19c-4.76 0-8.56-3.548-8.56-7.82 0-4.271 3.8-7.82 8.56-7.82 1.66 0 3.31.41 4.62 1.207l.68.42.07-.801c.33-3.553 3.57-6.372 7.52-6.372 1.1 0 2.08.2 3.07.603l1.13.464-.49-1.127c-.43-.998-.65-2.102-.65-3.32 0-5.445 4.73-9.847 10.76-9.847 6.04 0 10.77 4.402 10.77 9.847v.996l.65-.198a6.799 6.799 0 012.06-.298c3.74 0 6.89 2.422 7.64 5.692l.98-.023c.65-3.567 4.13-6.31 8.34-6.31 4.76 0 8.56 3.55 8.56 7.82 0 .993-.22 1.889-.54 2.692z" stroke="url(#paint13_linear)"/></g><g filter="url(#filter7_d)"><path d="M1694.43 169.816c0-4.053-3.61-7.36-8.02-7.36-.81 0-1.63.106-2.32.32.35-.854.58-1.813.58-2.88 0-4.587-4.07-8.32-9.06-8.32-4.42 0-8.13 2.88-8.83 6.72-.81-3.52-4.18-6.08-8.13-6.08-.82 0-1.51.106-2.21.32v-.32c0-5.76-4.99-10.347-11.27-10.347-6.27 0-11.26 4.587-11.26 10.347 0 1.28.23 2.453.69 3.52a8.354 8.354 0 00-3.25-.64c-4.18 0-7.67 2.986-8.02 6.827-1.39-.854-3.13-1.281-4.87-1.281-5 0-9.06 3.734-9.06 8.321 0 4.586 4.06 8.32 9.06 8.32h69.69v-.107c3.6-.747 6.28-3.733 6.28-7.36z" fill="url(#paint14_linear)"/><path d="M1683.62 162.587l-.39.975 1-.308c.64-.196 1.41-.298 2.18-.298 4.18 0 7.52 3.122 7.52 6.86 0 3.364-2.48 6.166-5.88 6.87l-.4.083v.014h-69.19c-4.76 0-8.56-3.549-8.56-7.82 0-4.272 3.8-7.821 8.56-7.821 1.66 0 3.31.409 4.61 1.207l.69.42.07-.801c.32-3.553 3.57-6.372 7.52-6.372 1.09 0 2.08.2 3.06.603l1.14.464-.49-1.127c-.43-.997-.65-2.102-.65-3.32 0-5.445 4.73-9.847 10.76-9.847 6.04 0 10.77 4.402 10.77 9.847v.996l.65-.198a6.762 6.762 0 012.06-.298c3.74 0 6.89 2.422 7.64 5.692l.98-.023c.65-3.567 4.13-6.309 8.34-6.309 4.76 0 8.56 3.549 8.56 7.82 0 .992-.22 1.888-.55 2.691z" stroke="url(#paint15_linear)"/></g><g filter="url(#filter8_d)"><path d="M1101.03 38.947c0-4.054-3.6-7.36-8.01-7.36-.82 0-1.63.106-2.33.32a7.53 7.53 0 00.58-2.88c0-4.587-4.06-8.32-9.06-8.32-4.41 0-8.13 2.88-8.83 6.72-.81-3.52-4.18-6.08-8.13-6.08-.81 0-1.51.106-2.2.32v-.32c0-5.76-5-10.347-11.27-10.347s-11.27 4.587-11.27 10.347c0 1.28.23 2.453.7 3.52a8.41 8.41 0 00-3.26-.64c-4.18 0-7.66 2.986-8.01 6.826-1.39-.853-3.14-1.28-4.88-1.28-4.99 0-9.06 3.734-9.06 8.32 0 4.587 4.07 8.32 9.06 8.32h69.7v-.106c3.6-.747 6.27-3.734 6.27-7.36z" fill="url(#paint16_linear)"/><path d="M1090.23 31.718l-.4.975 1.01-.308c.64-.197 1.4-.298 2.18-.298 4.17 0 7.51 3.122 7.51 6.86 0 3.364-2.48 6.166-5.87 6.87l-.4.083v.013h-69.2c-4.76 0-8.56-3.548-8.56-7.82 0-4.27 3.8-7.82 8.56-7.82 1.67 0 3.32.41 4.62 1.207l.68.42.08-.801c.32-3.553 3.56-6.372 7.51-6.372 1.1 0 2.08.2 3.07.603l1.14.464-.49-1.127c-.44-.998-.66-2.102-.66-3.32 0-5.445 4.73-9.847 10.77-9.847 6.04 0 10.77 4.402 10.77 9.847v.996l.64-.198c.65-.198 1.3-.298 2.06-.298 3.74 0 6.89 2.421 7.65 5.692l.98-.023c.64-3.567 4.12-6.31 8.33-6.31 4.76 0 8.56 3.55 8.56 7.82a7.02 7.02 0 01-.54 2.692z" stroke="url(#paint17_linear)"/></g><g filter="url(#filter9_d)"><path d="M243.649 188.474c0-5.013-4.414-8.96-9.757-8.96-1.046 0-1.975.107-2.788.427.464-1.067.697-2.24.697-3.52 0-5.653-4.995-10.133-11.036-10.133-5.459 0-9.873 3.52-10.803 8.213-.929-4.267-5.111-7.467-9.99-7.467-.929 0-1.858.107-2.671.32v-.32c0-7.04-6.157-12.693-13.824-12.693-7.666 0-13.823 5.653-13.823 12.693 0 1.494.349 2.987.813 4.267-1.277-.533-2.555-.747-4.065-.747-5.228 0-9.409 3.627-9.758 8.32-1.742-1.066-3.833-1.6-6.04-1.6-6.157 0-11.036 4.587-11.036 10.134 0 5.653 4.995 10.133 11.036 10.133h85.262v-.213c4.414-.96 7.783-4.48 7.783-8.854z" fill="url(#paint18_linear)"/><path d="M230.645 179.741l-.482 1.107 1.124-.442c.73-.287 1.588-.392 2.605-.392 5.112 0 9.257 3.766 9.257 8.46 0 4.093-3.157 7.445-7.389 8.365l-.394.086v.116h-84.762c-5.809 0-10.536-4.299-10.536-9.633 0-5.235 4.618-9.634 10.536-9.634 2.128 0 4.126.514 5.779 1.527l.699.428.061-.818c.326-4.397 4.256-7.857 9.259-7.857 1.458 0 2.668.205 3.873.708l1.051.439-.389-1.071c-.451-1.242-.783-2.676-.783-4.096 0-6.724 5.892-12.193 13.323-12.193 7.432 0 13.324 5.469 13.324 12.193v.968l.627-.164a10.22 10.22 0 012.544-.304c4.673 0 8.628 3.063 9.502 7.073l.979-.009c.878-4.434 5.064-7.81 10.312-7.81 5.809 0 10.536 4.298 10.536 9.633 0 1.218-.221 2.323-.656 3.32z" stroke="url(#paint19_linear)"/></g><g filter="url(#filter10_d)"><path d="M268.74 182.821c0-2.56-1.975-4.587-4.53-5.12 1.278-.854 2.091-2.134 2.091-3.627 0-2.453-2.207-4.48-4.879-4.374-1.278 0-2.556.534-3.369 1.281-.464-1.6-2.091-2.774-3.949-2.774.232-.64.348-1.28.348-1.92 0-2.987-2.671-5.44-5.924-5.333-1.626 0-3.136.64-4.182 1.706-.581-1.493-1.858-2.56-3.601-2.88.116-.426.233-.96.233-1.493 0-2.987-2.672-5.44-5.925-5.333-2.323 0-4.182 1.173-5.227 2.986a5.33 5.33 0 00-3.369-1.173c-2.788 0-5.111 2.133-4.995 4.693 0 .534.117 1.174.349 1.707h-.349c-1.51 0-2.904.853-3.601 1.92-.813-1.493-2.439-2.56-4.414-2.56-2.671 0-4.879 2.027-4.762 4.48 0 .427.116.747.232 1.173-.581-.106-1.162-.213-1.859-.213-3.484 0-6.156 2.56-6.156 5.76 0 1.814.929 3.307 2.323 4.374-1.51.64-2.439 2.026-2.439 3.626 0 2.24 1.974 4.054 4.414 3.947v.107c0 2.666 2.439 4.8 5.343 4.8l53.783-.427v-.107c2.323-.426 4.414-2.666 4.414-5.226z" fill="url(#paint20_linear)"/><path d="M263.932 177.285l-.991.662 1.167.243c2.372.495 4.132 2.354 4.132 4.631 0 2.299-1.899 4.348-4.004 4.734l-.41.076v.027l-53.283.423h-.002c-2.683-.001-4.841-1.963-4.841-4.3v-.629l-.522.022c-2.184.096-3.892-1.52-3.892-3.447 0-1.394.804-2.602 2.134-3.166l.791-.335-.682-.523c-1.3-.994-2.127-2.352-2.127-3.976 0-2.896 2.419-5.26 5.656-5.26.646 0 1.186.098 1.769.205l.781.144-.209-.767-.065-.235c-.091-.322-.149-.528-.149-.807v-.012l-.001-.011c-.1-2.114 1.819-3.957 4.263-3.957 1.788 0 3.248.964 3.975 2.299l.4.735.458-.7c.609-.933 1.849-1.694 3.182-1.694h1.112l-.305-.7a3.988 3.988 0 01-.307-1.507v-.022c-.101-2.222 1.936-4.171 4.495-4.171 1.163 0 2.215.387 3.056 1.063l.455.366.291-.506c.959-1.663 2.655-2.736 4.794-2.736h.017c3.002-.099 5.408 2.16 5.408 4.833 0 .467-.103.951-.215 1.362l-.143.525.535.098c1.58.29 2.71 1.246 3.225 2.57l.281.722.542-.554c.948-.967 2.328-1.556 3.825-1.556h.016c3.003-.099 5.408 2.16 5.408 4.833 0 .578-.104 1.161-.318 1.75l-.244.67h.714c1.66 0 3.073 1.049 3.469 2.413l.225.774.594-.545c.721-.662 1.878-1.149 3.03-1.149h.02c2.418-.096 4.359 1.734 4.359 3.874 0 1.295-.702 2.431-1.869 3.211z" stroke="url(#paint21_linear)"/></g><g filter="url(#filter11_d)"><mask id="b" fill="#fff"><path d="M414.053 128.042c0-1.28-.93-2.347-2.208-2.667 0-.107-.116-.107-.116-.213.117-.32.233-.64.233-.96 0-.64-.349-1.28-.813-1.707.464-.533.813-1.28.813-2.027 0-1.813-1.51-3.2-3.485-3.2-1.046 0-1.859.427-2.556.96-.348-.746-1.161-1.386-2.091-1.386-.697 0-1.394.32-1.858.853a2.228 2.228 0 00-2.091-1.387v-.426c0-1.387-1.162-2.454-2.672-2.454-.464 0-.813.107-1.161.214v-.107c0-1.6-1.394-2.773-3.137-2.773-.929 0-1.858.426-2.323 1.066-.697-1.173-2.091-1.92-3.601-1.92-2.207 0-4.066 1.707-4.066 3.734v.213c-.232 0-.348-.107-.581-.107-.697 0-1.394.32-1.742.854-.697-.96-1.975-1.6-3.369-1.6-2.207 0-4.065 1.706-4.065 3.733v.427c-1.394.106-2.44 1.066-2.672 2.346-.348-.106-.697-.213-1.045-.213-1.511 0-2.672 1.067-2.672 2.453 0 .854.464 1.494 1.045 2.027a3.617 3.617 0 00-2.439 3.413c0 2.027 1.858 3.734 4.066 3.734h41.934c1.626-.32 2.672-1.494 2.672-2.88z"/></mask><path d="M414.053 128.042c0-1.28-.93-2.347-2.208-2.667 0-.107-.116-.107-.116-.213.117-.32.233-.64.233-.96 0-.64-.349-1.28-.813-1.707.464-.533.813-1.28.813-2.027 0-1.813-1.51-3.2-3.485-3.2-1.046 0-1.859.427-2.556.96-.348-.746-1.161-1.386-2.091-1.386-.697 0-1.394.32-1.858.853a2.228 2.228 0 00-2.091-1.387v-.426c0-1.387-1.162-2.454-2.672-2.454-.464 0-.813.107-1.161.214v-.107c0-1.6-1.394-2.773-3.137-2.773-.929 0-1.858.426-2.323 1.066-.697-1.173-2.091-1.92-3.601-1.92-2.207 0-4.066 1.707-4.066 3.734v.213c-.232 0-.348-.107-.581-.107-.697 0-1.394.32-1.742.854-.697-.96-1.975-1.6-3.369-1.6-2.207 0-4.065 1.706-4.065 3.733v.427c-1.394.106-2.44 1.066-2.672 2.346-.348-.106-.697-.213-1.045-.213-1.511 0-2.672 1.067-2.672 2.453 0 .854.464 1.494 1.045 2.027a3.617 3.617 0 00-2.439 3.413c0 2.027 1.858 3.734 4.066 3.734h41.934c1.626-.32 2.672-1.494 2.672-2.88z" fill="url(#paint22_linear)"/><path d="M411.845 125.375h-1v.781l.758.189.242-.97zm-.116-.213l-.94-.341-.06.165v.176h1zm-.58-2.667l-.754-.657-.64.735.717.659.677-.737zm-5.228-4.267l-.906.423.526 1.128.988-.756-.608-.795zm-3.949-.533l-.926.378.614 1.503 1.066-1.224-.754-.657zm-2.091-1.387h-1v1h1v-1zm-3.833-2.666h-1v1.352l1.292-.396-.292-.956zm-5.46-1.814l-.86.511.776 1.307.893-1.23-.809-.588zm-7.667 2.027v1h1v-1h-1zm-2.323.747l-.809.587.852 1.175.794-1.215-.837-.547zm-7.434 2.56l.076.997.924-.071v-.926h-1zm-2.672 2.346l-.293.957 1.076.329.201-1.107-.984-.179zm-2.672 4.267l.333.943 1.569-.554-1.225-1.125-.677.736zm43.561 7.147v1h.097l.096-.019-.193-.981zm3.672-2.88c0-1.798-1.302-3.221-2.965-3.637l-.485 1.94c.893.224 1.45.935 1.45 1.697h2zm-2.208-2.667a1.112 1.112 0 00-.315-.779c-.032-.033-.063-.061-.066-.064l.023.023a.895.895 0 01.242.607h-2a1.114 1.114 0 00.316.779c.032.033.063.061.066.064l-.023-.023a.895.895 0 01-.243-.607h2zm-.176.128c.103-.283.293-.773.293-1.301h-2c0 .112-.043.261-.173.619l1.88.682zm.293-1.301c0-.983-.518-1.875-1.137-2.443l-1.353 1.473c.31.284.49.673.49.97h2zm-1.059-1.05c.585-.672 1.059-1.644 1.059-2.684h-2c0 .454-.224.976-.567 1.37l1.508 1.314zm1.059-2.684c0-2.444-2.04-4.2-4.485-4.2v2c1.504 0 2.485 1.018 2.485 2.2h2zm-4.485-4.2c-1.347 0-2.37.559-3.163 1.166l1.215 1.589c.601-.46 1.203-.755 1.948-.755v-2zm-1.65 1.538c-.483-1.037-1.614-1.964-2.997-1.964v2c.477 0 .972.352 1.185.809l1.812-.845zm-2.997-1.964c-.991 0-1.961.449-2.612 1.196l1.508 1.314c.278-.319.701-.51 1.104-.51v-2zm-.932 1.475c-.507-1.24-1.693-2.009-3.017-2.009v2c.535 0 .975.299 1.165.765l1.852-.756zm-2.017-1.009v-.426h-2v.426h2zm0-.426c0-2.018-1.691-3.454-3.672-3.454v2c1.04 0 1.672.698 1.672 1.454h2zm-3.672-3.454c-.629 0-1.104.15-1.454.258l.585 1.912c.347-.106.569-.17.869-.17v-2zm-1.161 1.214h1v-.107h-2v.107h1zm1-.107c0-2.277-1.976-3.773-4.137-3.773v2c1.324 0 2.137.85 2.137 1.773h2zm-4.137-3.773c-1.186 0-2.445.532-3.132 1.479l1.618 1.175c.242-.333.841-.654 1.514-.654v-2zm-1.463 1.556c-.898-1.512-2.641-2.41-4.461-2.41v2c1.2 0 2.245.596 2.741 1.431l1.72-1.021zm-4.461-2.41c-2.677 0-5.066 2.076-5.066 4.734h2c0-1.396 1.329-2.734 3.066-2.734v-2zm-5.066 4.734v.213h2v-.213h-2zm1-.787c.048 0 .088.017.003-.009-.089-.028-.303-.098-.584-.098v2c-.047 0-.087-.016-.002.01.089.027.303.097.583.097v-2zm-.581-.107c-.959 0-2.008.433-2.579 1.307l1.674 1.094c.126-.193.471-.401.905-.401v-2zm-.933 1.266c-.904-1.245-2.497-2.012-4.178-2.012v2c1.108 0 2.07.513 2.56 1.187l1.618-1.175zm-4.178-2.012c-2.677 0-5.065 2.076-5.065 4.733h2c0-1.396 1.329-2.733 3.065-2.733v-2zm-5.065 4.733v.427h2v-.427h-2zm.923-.57c-1.836.14-3.263 1.426-3.579 3.165l1.968.357c.149-.821.812-1.455 1.764-1.528l-.153-1.994zm-2.302 2.387c-.319-.097-.814-.257-1.338-.257v2c.172 0 .374.054.752.17l.586-1.913zm-1.338-.257c-1.981 0-3.672 1.436-3.672 3.453h2c0-.755.632-1.453 1.672-1.453v-2zm-3.672 3.453c0 1.264.703 2.152 1.369 2.764l1.353-1.473c-.496-.455-.722-.847-.722-1.291h-2zm1.712 1.084a4.618 4.618 0 00-3.106 4.356h2c0-1.075.668-2.08 1.772-2.47l-.666-1.886zm-3.106 4.356c0 2.658 2.388 4.734 5.066 4.734v-2c-1.737 0-3.066-1.338-3.066-2.734h-2zm5.066 4.734h41.933l.001-1-.001-1h-41.933v2zm42.127-.019c2.001-.394 3.479-1.907 3.479-3.861h-2c0 .819-.614 1.652-1.865 1.899l.386 1.962z" fill="url(#paint23_linear)" mask="url(#b)"/></g><g filter="url(#filter12_d)"><path d="M912.273 255.262c0-2.774-2.207-5.014-5.111-5.547 1.394-.853 2.323-2.347 2.207-4.053 0-2.667-2.44-4.907-5.46-4.8-1.51 0-2.788.533-3.717 1.493-.581-1.707-2.323-2.987-4.298-2.987.232-.64.348-1.386.348-2.133-.116-3.307-3.02-5.973-6.621-5.867a6.487 6.487 0 00-4.646 1.92c-.581-1.6-2.091-2.773-3.95-3.2.116-.533.233-1.066.233-1.6 0-3.306-3.021-5.973-6.622-5.866-2.555 0-4.646 1.386-5.692 3.306-1.045-.746-2.323-1.28-3.717-1.28-3.136 0-5.575 2.347-5.575 5.227 0 .64.116 1.28.348 1.813h-.348c-1.743 0-3.137.96-3.95 2.24-.929-1.706-2.788-2.88-4.879-2.773-2.904 0-5.343 2.24-5.227 5.013 0 .427.116.854.232 1.28-.697-.213-1.278-.213-1.975-.213-3.833 0-6.853 2.88-6.737 6.4 0 1.92 1.046 3.627 2.556 4.8-1.627.747-2.672 2.24-2.672 4.053 0 2.454 2.207 4.48 4.879 4.374v.106c0 2.987 2.671 5.334 5.924 5.227l59.359-.853v-.107c2.904-.64 5.111-3.093 5.111-5.973z" fill="url(#paint24_linear)"/><path d="M906.901 249.288l-1.115.683 1.285.236c2.72.499 4.702 2.573 4.702 5.055 0 2.613-2.012 4.888-4.719 5.485l-.392.086v.016l-58.866.846h0-.009c-3.016.099-5.408-2.066-5.408-4.727v-.627l-.52.021c-2.418.096-4.359-1.734-4.359-3.874 0-1.602.917-2.927 2.38-3.599l.749-.343-.651-.506c-1.419-1.103-2.362-2.675-2.362-4.405v-.017c-.106-3.198 2.646-5.883 6.237-5.883.701 0 1.212.003 1.829.191l.867.266-.238-.875c-.12-.44-.215-.801-.215-1.149v-.01l-.001-.011c-.102-2.443 2.061-4.492 4.728-4.492h.013l.013-.001c1.884-.096 3.569.962 4.414 2.513l.406.746.455-.717c.737-1.16 1.983-2.008 3.528-2.008h1.111l-.305-.7c-.2-.459-.306-1.029-.306-1.613 0-2.578 2.188-4.727 5.075-4.727 1.265 0 2.443.485 3.427 1.187l.459.328.271-.496c.96-1.763 2.885-3.045 5.252-3.045h.008l.007-.001c3.364-.099 6.107 2.386 6.107 5.367 0 .47-.103.95-.221 1.494l-.106.483.482.11c1.731.398 3.081 1.476 3.592 2.884l.269.742.556-.561a5.987 5.987 0 014.291-1.772h.015c3.344-.099 5.996 2.369 6.106 5.376 0 .695-.11 1.379-.318 1.954l-.243.67h.713c1.766 0 3.314 1.149 3.825 2.648l.263.774.569-.587c.828-.855 1.972-1.341 3.358-1.341h.009l.009-.001c2.776-.098 4.942 1.954 4.942 4.301v.017l.001.016c.101 1.493-.708 2.821-1.969 3.593z" stroke="url(#paint25_linear)"/></g><g filter="url(#filter13_d)"><path d="M407.6 254.37c0-2.56-1.975-4.587-4.647-5.12 1.278-.854 2.091-2.134 2.091-3.734 0-2.453-2.207-4.48-4.995-4.373-1.277 0-2.555.533-3.368 1.28-.465-1.6-2.091-2.773-3.95-2.667.232-.64.349-1.28.349-1.92 0-2.987-2.788-5.44-6.041-5.333-1.626 0-3.136.64-4.182 1.706-.58-1.493-1.974-2.559-3.601-2.879.117-.427.233-.961.233-1.494 0-2.987-2.788-5.44-6.041-5.333-2.323 0-4.298 1.28-5.227 2.986a5.33 5.33 0 00-3.369-1.173c-2.788 0-5.111 2.133-4.995 4.8 0 .64.117 1.174.349 1.707h-.349c-1.51 0-2.904.853-3.601 2.027-.813-1.494-2.555-2.56-4.53-2.56-2.672 0-4.879 2.026-4.763 4.586 0 .427.117.747.233 1.174-.581-.107-1.162-.214-1.859-.214-3.485 0-6.156 2.667-6.156 5.867 0 1.813.929 3.307 2.323 4.373-1.51.64-2.44 2.027-2.44 3.627 0 2.24 2.091 4.053 4.531 3.947v.106c0 2.667 2.439 4.8 5.343 4.8l54.015-.746v-.107c2.672-.533 4.647-2.773 4.647-5.333z" fill="url(#paint26_linear)"/><path d="M402.676 248.834l-1.004.67 1.183.236c2.491.497 4.245 2.358 4.245 4.63 0 2.294-1.779 4.35-4.245 4.843l-.402.08v.023l-53.515.74h-.003c-2.682-.001-4.84-1.963-4.84-4.3v-.629l-.522.023c-2.202.096-4.009-1.537-4.009-3.447 0-1.394.805-2.603 2.135-3.166l.791-.336-.682-.522c-1.3-.994-2.127-2.352-2.127-3.976 0-2.908 2.431-5.367 5.656-5.367.646 0 1.186.098 1.768.205l.782.144-.209-.767-.065-.235c-.091-.322-.15-.528-.15-.807v-.022c-.101-2.23 1.828-4.064 4.263-4.064 1.801 0 3.37.974 4.091 2.299l.42.771.449-.755c.609-1.026 1.842-1.782 3.171-1.782h1.112l-.305-.7a3.618 3.618 0 01-.307-1.507v-.022c-.102-2.336 1.944-4.278 4.495-4.278 1.163 0 2.215.387 3.056 1.063l.466.375.286-.525c.841-1.545 2.647-2.726 4.788-2.726h.017c3.015-.099 5.524 2.172 5.524 4.833 0 .468-.103.951-.215 1.362l-.141.518.527.104c1.48.291 2.72 1.257 3.231 2.571l.281.722.542-.554c.949-.967 2.328-1.556 3.825-1.556h.017c3.015-.099 5.524 2.172 5.524 4.833 0 .578-.105 1.161-.319 1.75l-.259.713.758-.044c1.636-.094 3.044.941 3.44 2.307l.225.774.594-.545c.721-.662 1.878-1.148 3.03-1.148h.01l.009-.001c2.544-.097 4.476 1.742 4.476 3.874 0 1.408-.707 2.542-1.868 3.318z" stroke="url(#paint27_linear)"/></g><g filter="url(#filter14_d)"><path d="M709.774 40.365c0-1.707-1.161-3.094-2.904-3.627 0-.107-.116-.213-.116-.213a2.65 2.65 0 00.349-1.28c0-.854-.465-1.707-1.162-2.24a3.899 3.899 0 001.046-2.667c0-2.347-2.091-4.267-4.647-4.267-1.278 0-2.439.534-3.369 1.28a3.005 3.005 0 00-2.787-1.813c-1.046 0-1.859.427-2.44 1.173-.348-1.066-1.51-1.813-2.788-1.813h-.116c0-.213.116-.32.116-.533 0-1.814-1.626-3.307-3.601-3.307-.581 0-1.045.107-1.51.32v-.107c0-2.026-1.858-3.733-4.065-3.733-1.278 0-2.44.533-3.137 1.387-.929-1.494-2.672-2.56-4.762-2.56-3.021 0-5.46 2.24-5.46 5.013v.213c-.232-.106-.465-.106-.813-.106-.929 0-1.859.426-2.323 1.066-.93-1.28-2.556-2.133-4.415-2.133-3.02 0-5.459 2.24-5.459 5.013v.534c-1.859.213-3.253 1.493-3.485 3.093-.465-.213-.929-.213-1.394-.213-1.975 0-3.601 1.493-3.601 3.306 0 1.067.581 2.027 1.394 2.667-1.975.747-3.252 2.56-3.252 4.587 0 2.773 2.439 5.013 5.459 5.013l55.525-.106c2.324-.534 3.717-2.134 3.717-3.947z" fill="url(#paint28_linear)"/><path d="M706.128 36.629l.242.222v.257l.354.108c1.569.48 2.55 1.698 2.55 3.149 0 1.509-1.151 2.94-3.275 3.447h-.561l-1.748.004-6.244.012-18.978.037-27.936.053c-2.785 0-4.959-2.055-4.959-4.513 0-1.81 1.14-3.443 2.929-4.12l.828-.312-.696-.548c-.721-.567-1.203-1.393-1.203-2.274 0-1.498 1.361-2.806 3.101-2.806.477 0 .834.006 1.185.168l.608.278.096-.661c.195-1.343 1.38-2.477 3.047-2.668l.443-.051v-.448 0-.005 0-.006 0-.005 0-.006 0-.006 0-.006 0-.007 0-.007 0-.007 0-.002 0-.007 0-.009 0-.002 0-.008 0-.002 0-.01 0-.002 0-.002 0-.012 0-.002 0-.002 0-.002 0-.002 0-.018 0-.002 0-.002 0-.002 0-.002 0-.002 0-.002 0-.002 0-.002 0-.002 0-.002 0-.002 0-.002 0-.002 0-.002 0-.002 0-.002 0-.002 0-.002 0-.002 0-.002 0-.016 0-.002 0-.002 0-.002 0-.002 0-.002 0-.002 0-.011 0-.002 0-.002 0-.002 0-.002 0-.002 0-.008 0-.002 0-.002 0-.002 0-.002 0-.008 0-.002 0-.002 0-.002 0-.002 0-.007 0-.002 0-.002 0-.002 0-.002 0-.007 0-.002 0-.002 0-.002 0-.002 0-.008 0-.002 0-.002 0-.002 0-.002 0-.009 0-.002 0-.002 0-.002 0-.002 0-.002 0-.012 0-.002 0-.002 0-.002 0-.002 0-.002 0-.002 0-.002 0-.002 0-.048 0-.002 0-.002 0-.002 0-.002 0-.002 0-.014 0-.002 0-.002 0-.012 0-.002 0-.002 0-.008 0-.002 0-.008 0-.002 0-.007 0-.002 0-.006 0-.008 0-.007 0-.006 0-.006 0-.006 0-.006 0-.006 0-.005 0-.005c0-2.457 2.174-4.513 4.959-4.513 1.708 0 3.18.784 4.01 1.927l.405.558.404-.558c.353-.486 1.118-.86 1.919-.86.374 0 .489.008.604.06l.709.326v-.78 0-.002 0-.001 0-.002 0-.001 0-.002 0-.001 0-.002 0-.001 0-.001 0-.002 0-.001 0-.001 0-.002 0-.001 0-.001 0-.001 0-.001 0-.001 0-.001 0-.002 0-.001 0-.001 0-.001 0-.001 0-.001 0-.001 0-.001 0-.001 0-.001 0-.001 0-.001 0-.001 0-.001 0-.001 0-.001 0-.001 0-.001 0-.001 0-.001 0-.001 0-.001 0-.001 0-.001 0-.001 0-.001 0-.001 0-.001 0-.001 0-.001 0-.001 0-.001 0-.001 0-.001 0-.001 0-.001 0-.001 0-.001 0-.001 0-.001 0-.001 0-.001 0-.001 0-.001 0-.001 0-.001 0-.001 0-.001 0-.001 0-.001 0-.001 0-.001 0-.001 0-.001 0-.001 0-.001 0-.001 0-.001 0-.001 0-.001 0-.001 0-.001 0-.001 0-.001 0-.001 0-.001 0-.001 0-.001 0-.001 0-.001 0-.001 0-.001 0-.001 0-.001 0-.001 0-.001 0-.001 0-.001 0-.001 0-.001 0-.001 0-.001 0-.001 0-.001 0-.001 0-.001 0-.001 0-.001 0-.001 0-.001 0-.001 0-.001 0-.001 0-.001 0-.001 0-.001 0-.001 0-.001 0-.001 0-.001 0-.001 0-.001 0-.001 0-.001 0-.001 0-.001 0-.001 0-.001 0-.001 0-.001 0-.001 0-.001 0-.001 0-.001 0-.001 0-.001 0-.001 0-.001 0-.001 0-.001 0-.001 0-.001 0-.001 0-.001 0-.001 0-.001 0-.001 0-.001 0-.001 0-.001 0-.001 0-.001 0-.001 0-.001 0-.001 0-.001 0-.001 0-.001 0-.001 0-.001 0-.001 0-.001 0-.001 0-.001 0-.001 0-.001 0-.001 0-.001 0-.001 0-.001 0-.001 0-.001 0-.001 0-.001 0-.001 0-.001 0-.001 0-.001 0-.001 0-.001 0-.001 0-.001 0-.001 0-.001 0-.001 0-.002 0-.001 0-.001 0-.001 0-.002 0-.001 0-.001 0-.002 0-.001 0-.002 0-.001 0-.002 0-.001 0-.002 0-.001 0c0-2.459 2.175-4.514 4.96-4.514 1.917 0 3.499.976 4.338 2.324l.369.594.442-.542c.592-.724 1.605-1.203 2.75-1.203 1.971 0 3.565 1.522 3.565 3.233v.887l.709-.326a2.954 2.954 0 011.301-.274c1.74 0 3.101 1.309 3.101 2.807v0c0 .01 0 .018-.028.096l-.003.01c-.03.081-.085.231-.085.427v.5h.616c1.107 0 2.045.647 2.313 1.469l.292.894.578-.743c.487-.626 1.155-.98 2.045-.98 1.071 0 1.941.622 2.329 1.513l.261.6.511-.41c.865-.695 1.919-1.17 3.055-1.17 2.321 0 4.147 1.736 4.147 3.767a3.4 3.4 0 01-.911 2.326l-.377.403.438.335c.589.45.966 1.163.966 1.843 0 .332-.09.677-.288 1.04l-.187.344z" stroke="url(#paint29_linear)"/></g><g filter="url(#filter15_d)"><path d="M928.428 107.947c0-4.054-3.601-7.36-8.016-7.36-.813 0-1.626.106-2.323.32a7.554 7.554 0 00.581-2.88c0-4.587-4.066-8.32-9.061-8.32-4.414 0-8.131 2.88-8.828 6.72-.813-3.52-4.182-6.08-8.131-6.08-.813 0-1.51.106-2.207.32v-.32c0-5.76-4.995-10.347-11.268-10.347-6.273 0-11.268 4.587-11.268 10.347 0 1.28.233 2.453.697 3.52a8.384 8.384 0 00-3.252-.64c-4.182 0-7.667 2.986-8.015 6.826-1.394-.853-3.137-1.28-4.879-1.28-4.995 0-9.061 3.734-9.061 8.32 0 4.587 4.066 8.32 9.061 8.32h69.697v-.106c3.601-.747 6.273-3.734 6.273-7.36z" fill="url(#paint30_linear)"/><path d="M917.626 100.718l-.398.975 1.007-.308c.642-.197 1.404-.298 2.177-.298 4.179 0 7.516 3.122 7.516 6.86 0 3.364-2.48 6.166-5.875 6.87l-.398.083v.013h-69.197c-4.76 0-8.561-3.548-8.561-7.82 0-4.271 3.801-7.82 8.561-7.82 1.666 0 3.315.41 4.618 1.207l.686.42.073-.801c.322-3.553 3.563-6.372 7.517-6.372 1.095 0 2.076.2 3.063.603l1.139.464-.491-1.127c-.435-.998-.656-2.102-.656-3.32 0-5.445 4.73-9.847 10.768-9.847s10.768 4.402 10.768 9.847v.996l.646-.198a6.815 6.815 0 012.061-.298c3.74 0 6.888 2.422 7.644 5.692l.979-.023c.647-3.567 4.126-6.31 8.336-6.31 4.76 0 8.561 3.55 8.561 7.82a7.06 7.06 0 01-.544 2.692z" stroke="url(#paint31_linear)"/></g><g filter="url(#filter16_d)"><path d="M714.425 169.816c0-4.053-3.601-7.36-8.015-7.36-.813 0-1.626.106-2.323.32a7.57 7.57 0 00.581-2.88c0-4.587-4.066-8.32-9.061-8.32-4.414 0-8.131 2.88-8.828 6.72-.813-3.52-4.182-6.08-8.131-6.08-.814 0-1.511.106-2.208.32v-.32c0-5.76-4.995-10.347-11.267-10.347-6.273 0-11.268 4.587-11.268 10.347 0 1.28.232 2.453.697 3.52a8.379 8.379 0 00-3.252-.64c-4.182 0-7.667 2.986-8.016 6.827-1.394-.854-3.136-1.281-4.878-1.281-4.995 0-9.061 3.734-9.061 8.321 0 4.586 4.066 8.32 9.061 8.32h69.697v-.107c3.601-.747 6.272-3.733 6.272-7.36z" fill="url(#paint32_linear)"/><path d="M703.624 162.587l-.398.975 1.007-.308c.642-.196 1.404-.298 2.177-.298 4.179 0 7.515 3.122 7.515 6.86 0 3.364-2.48 6.166-5.874 6.87l-.398.083v.014h-69.197c-4.76 0-8.561-3.549-8.561-7.82 0-4.272 3.801-7.821 8.561-7.821 1.666 0 3.315.409 4.617 1.207l.687.42.072-.801c.323-3.553 3.563-6.372 7.518-6.372 1.095 0 2.076.2 3.063.603l1.139.464-.492-1.127c-.434-.997-.655-2.102-.655-3.32 0-5.445 4.73-9.847 10.768-9.847 6.037 0 10.767 4.402 10.767 9.847v.996l.647-.198a6.824 6.824 0 012.061-.298c3.74 0 6.888 2.422 7.644 5.692l.979-.023c.647-3.567 4.126-6.309 8.336-6.309 4.76 0 8.561 3.549 8.561 7.82a7.06 7.06 0 01-.544 2.691z" stroke="url(#paint33_linear)"/></g><g filter="url(#filter17_d)"><path d="M121.03 38.947c0-4.054-3.601-7.36-8.015-7.36-.813 0-1.626.106-2.323.32a7.569 7.569 0 00.581-2.88c0-4.587-4.066-8.32-9.061-8.32-4.414 0-8.131 2.88-8.828 6.72-.813-3.52-4.182-6.08-8.131-6.08a7.29 7.29 0 00-2.207.32v-.32C83.046 15.587 78.05 11 71.778 11c-6.273 0-11.268 4.587-11.268 10.347 0 1.28.232 2.453.697 3.52a8.386 8.386 0 00-3.252-.64c-4.182 0-7.667 2.986-8.016 6.826-1.394-.853-3.136-1.28-4.878-1.28-4.995 0-9.061 3.734-9.061 8.32 0 4.587 4.066 8.32 9.06 8.32h69.698v-.106c3.601-.747 6.272-3.734 6.272-7.36z" fill="url(#paint34_linear)"/><path d="M110.229 31.718l-.398.975 1.007-.308c.642-.197 1.404-.298 2.177-.298 4.179 0 7.515 3.122 7.515 6.86 0 3.364-2.48 6.166-5.874 6.87l-.398.083v.013H45.061c-4.76 0-8.561-3.548-8.561-7.82 0-4.27 3.8-7.82 8.56-7.82 1.667 0 3.316.41 4.618 1.207l.687.42.072-.801c.323-3.553 3.563-6.372 7.518-6.372 1.095 0 2.076.2 3.063.603l1.139.464-.491-1.127c-.435-.998-.656-2.102-.656-3.32 0-5.445 4.73-9.847 10.768-9.847 6.037 0 10.767 4.402 10.767 9.847v.996l.647-.198a6.816 6.816 0 012.06-.298c3.741 0 6.89 2.421 7.645 5.692l.979-.023c.647-3.567 4.126-6.31 8.336-6.31 4.76 0 8.561 3.55 8.561 7.82a7.06 7.06 0 01-.544 2.692z" stroke="url(#paint35_linear)"/></g><defs><linearGradient id="paint9_linear" x1="1318.99" y1="260.662" x2="1391.56" y2="260.662" gradientUnits="userSpaceOnUse"><stop stop-color="#DEDDDD"/><stop offset="1" stop-color="#FDFDFD"/></linearGradient><linearGradient id="paint35_linear" x1="35.907" y1="46.518" x2="125.949" y2="46.518" gradientUnits="userSpaceOnUse"><stop stop-color="#DEDDDD"/><stop offset="1" stop-color="#FDFDFD"/></linearGradient><linearGradient id="paint34_linear" x1="55.53" y1="59.442" x2="107.929" y2="2.378" gradientUnits="userSpaceOnUse"><stop stop-color="#fff"/><stop offset=".391" stop-color="#EEEDEE"/><stop offset=".817" stop-color="#D7D6D6"/></linearGradient><linearGradient id="paint33_linear" x1="629.302" y1="177.387" x2="719.344" y2="177.387" gradientUnits="userSpaceOnUse"><stop stop-color="#DEDDDD"/><stop offset="1" stop-color="#FDFDFD"/></linearGradient><linearGradient id="paint32_linear" x1="648.925" y1="190.311" x2="701.324" y2="133.248" gradientUnits="userSpaceOnUse"><stop stop-color="#fff"/><stop offset=".391" stop-color="#EEEDEE"/><stop offset=".817" stop-color="#D7D6D6"/></linearGradient><linearGradient id="paint31_linear" x1="843.305" y1="115.518" x2="933.346" y2="115.518" gradientUnits="userSpaceOnUse"><stop stop-color="#DEDDDD"/><stop offset="1" stop-color="#FDFDFD"/></linearGradient><linearGradient id="paint30_linear" x1="862.927" y1="128.442" x2="915.326" y2="71.378" gradientUnits="userSpaceOnUse"><stop stop-color="#fff"/><stop offset=".391" stop-color="#EEEDEE"/><stop offset=".817" stop-color="#D7D6D6"/></linearGradient><linearGradient id="paint29_linear" x1="645.002" y1="44.501" x2="713.517" y2="44.501" gradientUnits="userSpaceOnUse"><stop stop-color="#DEDDDD"/><stop offset="1" stop-color="#FDFDFD"/></linearGradient><linearGradient id="paint28_linear" x1="659.933" y1="54.739" x2="701.551" y2="11.204" gradientUnits="userSpaceOnUse"><stop stop-color="#fff"/><stop offset=".391" stop-color="#EEEDEE"/><stop offset=".817" stop-color="#D7D6D6"/></linearGradient><linearGradient id="paint27_linear" x1="338.99" y1="260.662" x2="411.564" y2="260.662" gradientUnits="userSpaceOnUse"><stop stop-color="#DEDDDD"/><stop offset="1" stop-color="#FDFDFD"/></linearGradient><linearGradient id="paint26_linear" x1="354.806" y1="273.821" x2="407.767" y2="228.164" gradientUnits="userSpaceOnUse"><stop stop-color="#fff"/><stop offset=".391" stop-color="#EEEDEE"/><stop offset=".817" stop-color="#D7D6D6"/></linearGradient><linearGradient id="paint25_linear" x1="836.918" y1="262.315" x2="916.627" y2="262.315" gradientUnits="userSpaceOnUse"><stop stop-color="#DEDDDD"/><stop offset="1" stop-color="#FDFDFD"/></linearGradient><linearGradient id="paint24_linear" x1="854.289" y1="276.76" x2="912.429" y2="226.61" gradientUnits="userSpaceOnUse"><stop stop-color="#fff"/><stop offset=".391" stop-color="#EEEDEE"/><stop offset=".817" stop-color="#D7D6D6"/></linearGradient><linearGradient id="paint23_linear" x1="365.328" y1="130.984" x2="416.868" y2="130.984" gradientUnits="userSpaceOnUse"><stop stop-color="#DEDDDD"/><stop offset="1" stop-color="#FDFDFD"/></linearGradient><linearGradient id="paint22_linear" x1="376.56" y1="138.652" x2="407.727" y2="105.91" gradientUnits="userSpaceOnUse"><stop stop-color="#fff"/><stop offset=".391" stop-color="#EEEDEE"/><stop offset=".817" stop-color="#D7D6D6"/></linearGradient><linearGradient id="paint21_linear" x1="268.801" y1="188.38" x2="200.762" y2="188.38" gradientUnits="userSpaceOnUse"><stop stop-color="#FEFEFE"/><stop offset="1" stop-color="#D8D7D6"/></linearGradient><linearGradient id="paint20_linear" x1="200.478" y1="170.464" x2="268.782" y2="171.029" gradientUnits="userSpaceOnUse"><stop stop-color="#fff"/><stop offset=".308" stop-color="#F7F7F7"/><stop offset=".718" stop-color="#E2E2E2"/><stop offset=".903" stop-color="#D7D6D6"/></linearGradient><linearGradient id="paint19_linear" x1="140.574" y1="197.511" x2="245.773" y2="197.511" gradientUnits="userSpaceOnUse"><stop stop-color="#DCDBDB"/><stop offset="1" stop-color="#FDFDFC"/></linearGradient><linearGradient id="paint0_linear" x1="1143.44" y1="213.473" x2="1207.57" y2="143.636" gradientUnits="userSpaceOnUse"><stop stop-color="#fff"/><stop offset=".391" stop-color="#EEEDEE"/><stop offset=".817" stop-color="#D7D6D6"/></linearGradient><linearGradient id="paint1_linear" x1="1120.57" y1="197.511" x2="1225.77" y2="197.511" gradientUnits="userSpaceOnUse"><stop stop-color="#DCDBDB"/><stop offset="1" stop-color="#FDFDFC"/></linearGradient><linearGradient id="paint2_linear" x1="1180.48" y1="170.464" x2="1248.78" y2="171.029" gradientUnits="userSpaceOnUse"><stop stop-color="#fff"/><stop offset=".308" stop-color="#F7F7F7"/><stop offset=".718" stop-color="#E2E2E2"/><stop offset=".903" stop-color="#D7D6D6"/></linearGradient><linearGradient id="paint3_linear" x1="1248.8" y1="188.38" x2="1180.76" y2="188.38" gradientUnits="userSpaceOnUse"><stop stop-color="#FEFEFE"/><stop offset="1" stop-color="#D8D7D6"/></linearGradient><linearGradient id="paint4_linear" x1="1356.56" y1="138.652" x2="1387.73" y2="105.91" gradientUnits="userSpaceOnUse"><stop stop-color="#fff"/><stop offset=".391" stop-color="#EEEDEE"/><stop offset=".817" stop-color="#D7D6D6"/></linearGradient><linearGradient id="paint5_linear" x1="1345.33" y1="130.984" x2="1396.87" y2="130.984" gradientUnits="userSpaceOnUse"><stop stop-color="#DEDDDD"/><stop offset="1" stop-color="#FDFDFD"/></linearGradient><linearGradient id="paint6_linear" x1="1834.29" y1="276.76" x2="1892.43" y2="226.61" gradientUnits="userSpaceOnUse"><stop stop-color="#fff"/><stop offset=".391" stop-color="#EEEDEE"/><stop offset=".817" stop-color="#D7D6D6"/></linearGradient><linearGradient id="paint7_linear" x1="1816.92" y1="262.315" x2="1896.63" y2="262.315" gradientUnits="userSpaceOnUse"><stop stop-color="#DEDDDD"/><stop offset="1" stop-color="#FDFDFD"/></linearGradient><linearGradient id="paint8_linear" x1="1334.81" y1="273.821" x2="1387.77" y2="228.164" gradientUnits="userSpaceOnUse"><stop stop-color="#fff"/><stop offset=".391" stop-color="#EEEDEE"/><stop offset=".817" stop-color="#D7D6D6"/></linearGradient><linearGradient id="paint18_linear" x1="163.442" y1="213.473" x2="227.57" y2="143.636" gradientUnits="userSpaceOnUse"><stop stop-color="#fff"/><stop offset=".391" stop-color="#EEEDEE"/><stop offset=".817" stop-color="#D7D6D6"/></linearGradient><linearGradient id="paint10_linear" x1="1639.93" y1="54.739" x2="1681.55" y2="11.204" gradientUnits="userSpaceOnUse"><stop stop-color="#fff"/><stop offset=".391" stop-color="#EEEDEE"/><stop offset=".817" stop-color="#D7D6D6"/></linearGradient><linearGradient id="paint11_linear" x1="1625" y1="44.501" x2="1693.52" y2="44.501" gradientUnits="userSpaceOnUse"><stop stop-color="#DEDDDD"/><stop offset="1" stop-color="#FDFDFD"/></linearGradient><linearGradient id="paint12_linear" x1="1842.93" y1="128.442" x2="1895.33" y2="71.378" gradientUnits="userSpaceOnUse"><stop stop-color="#fff"/><stop offset=".391" stop-color="#EEEDEE"/><stop offset=".817" stop-color="#D7D6D6"/></linearGradient><linearGradient id="paint13_linear" x1="1823.3" y1="115.518" x2="1913.35" y2="115.518" gradientUnits="userSpaceOnUse"><stop stop-color="#DEDDDD"/><stop offset="1" stop-color="#FDFDFD"/></linearGradient><linearGradient id="paint14_linear" x1="1628.92" y1="190.311" x2="1681.32" y2="133.248" gradientUnits="userSpaceOnUse"><stop stop-color="#fff"/><stop offset=".391" stop-color="#EEEDEE"/><stop offset=".817" stop-color="#D7D6D6"/></linearGradient><linearGradient id="paint15_linear" x1="1609.3" y1="177.387" x2="1699.34" y2="177.387" gradientUnits="userSpaceOnUse"><stop stop-color="#DEDDDD"/><stop offset="1" stop-color="#FDFDFD"/></linearGradient><linearGradient id="paint16_linear" x1="1035.53" y1="59.442" x2="1087.93" y2="2.378" gradientUnits="userSpaceOnUse"><stop stop-color="#fff"/><stop offset=".391" stop-color="#EEEDEE"/><stop offset=".817" stop-color="#D7D6D6"/></linearGradient><linearGradient id="paint17_linear" x1="1015.91" y1="46.518" x2="1105.95" y2="46.518" gradientUnits="userSpaceOnUse"><stop stop-color="#DEDDDD"/><stop offset="1" stop-color="#FDFDFD"/></linearGradient><filter id="filter9_d" x="120.568" y="143.341" width="134.081" height="73.2" filterUnits="userSpaceOnUse" color-interpolation-filters="sRGB"><feFlood flood-opacity="0" result="BackgroundImageFix"/><feColorMatrix in="SourceAlpha" values="0 0 0 0 0 0 0 0 0 0 0 0 0 0 0 0 0 0 127 0"/><feOffset dx="-4" dy="4"/><feGaussianBlur stdDeviation="7.5"/><feColorMatrix values="0 0 0 0 0 0 0 0 0 0 0 0 0 0 0 0 0 0 0.25 0"/><feBlend in2="BackgroundImageFix" result="effect1_dropShadow"/><feBlend in="SourceGraphic" in2="effect1_dropShadow" result="shape"/></filter><filter id="filter1_d" x="1161.79" y="141.95" width="97.954" height="65.63" filterUnits="userSpaceOnUse" color-interpolation-filters="sRGB"><feFlood flood-opacity="0" result="BackgroundImageFix"/><feColorMatrix in="SourceAlpha" values="0 0 0 0 0 0 0 0 0 0 0 0 0 0 0 0 0 0 127 0"/><feOffset dx="-4" dy="4"/><feGaussianBlur stdDeviation="7.5"/><feColorMatrix values="0 0 0 0 0 0 0 0 0 0 0 0 0 0 0 0 0 0 0.25 0"/><feBlend in2="BackgroundImageFix" result="effect1_dropShadow"/><feBlend in="SourceGraphic" in2="effect1_dropShadow" result="shape"/></filter><filter id="filter16_d" x="610.395" y="130.869" width="115.03" height="65.413" filterUnits="userSpaceOnUse" color-interpolation-filters="sRGB"><feFlood flood-opacity="0" result="BackgroundImageFix"/><feColorMatrix in="SourceAlpha" values="0 0 0 0 0 0 0 0 0 0 0 0 0 0 0 0 0 0 127 0"/><feOffset dx="-4" dy="4"/><feGaussianBlur stdDeviation="7.5"/><feColorMatrix values="0 0 0 0 0 0 0 0 0 0 0 0 0 0 0 0 0 0 0.25 0"/><feBlend in2="BackgroundImageFix" result="effect1_dropShadow"/><feBlend in="SourceGraphic" in2="effect1_dropShadow" result="shape"/></filter><filter id="filter15_d" x="824.397" y="69" width="115.03" height="65.413" filterUnits="userSpaceOnUse" color-interpolation-filters="sRGB"><feFlood flood-opacity="0" result="BackgroundImageFix"/><feColorMatrix in="SourceAlpha" values="0 0 0 0 0 0 0 0 0 0 0 0 0 0 0 0 0 0 127 0"/><feOffset dx="-4" dy="4"/><feGaussianBlur stdDeviation="7.5"/><feColorMatrix values="0 0 0 0 0 0 0 0 0 0 0 0 0 0 0 0 0 0 0.25 0"/><feBlend in2="BackgroundImageFix" result="effect1_dropShadow"/><feBlend in="SourceGraphic" in2="effect1_dropShadow" result="shape"/></filter><filter id="filter14_d" x="626.073" y="5.365" width="94.702" height="58.053" filterUnits="userSpaceOnUse" color-interpolation-filters="sRGB"><feFlood flood-opacity="0" result="BackgroundImageFix"/><feColorMatrix in="SourceAlpha" values="0 0 0 0 0 0 0 0 0 0 0 0 0 0 0 0 0 0 127 0"/><feOffset dx="-4" dy="4"/><feGaussianBlur stdDeviation="7.5"/><feColorMatrix values="0 0 0 0 0 0 0 0 0 0 0 0 0 0 0 0 0 0 0.25 0"/><feBlend in2="BackgroundImageFix" result="effect1_dropShadow"/><feBlend in="SourceGraphic" in2="effect1_dropShadow" result="shape"/></filter><filter id="filter13_d" x="320.064" y="213.499" width="98.535" height="66.057" filterUnits="userSpaceOnUse" color-interpolation-filters="sRGB"><feFlood flood-opacity="0" result="BackgroundImageFix"/><feColorMatrix in="SourceAlpha" values="0 0 0 0 0 0 0 0 0 0 0 0 0 0 0 0 0 0 127 0"/><feOffset dx="-4" dy="4"/><feGaussianBlur stdDeviation="7.5"/><feColorMatrix values="0 0 0 0 0 0 0 0 0 0 0 0 0 0 0 0 0 0 0.25 0"/><feBlend in2="BackgroundImageFix" result="effect1_dropShadow"/><feBlend in="SourceGraphic" in2="effect1_dropShadow" result="shape"/></filter><filter id="filter12_d" x="818" y="211.618" width="105.273" height="69.58" filterUnits="userSpaceOnUse" color-interpolation-filters="sRGB"><feFlood flood-opacity="0" result="BackgroundImageFix"/><feColorMatrix in="SourceAlpha" values="0 0 0 0 0 0 0 0 0 0 0 0 0 0 0 0 0 0 127 0"/><feOffset dx="-4" dy="4"/><feGaussianBlur stdDeviation="7.5"/><feColorMatrix values="0 0 0 0 0 0 0 0 0 0 0 0 0 0 0 0 0 0 0.25 0"/><feBlend in2="BackgroundImageFix" result="effect1_dropShadow"/><feBlend in="SourceGraphic" in2="effect1_dropShadow" result="shape"/></filter><filter id="filter11_d" x="346.381" y="98.908" width="78.672" height="51.013" filterUnits="userSpaceOnUse" color-interpolation-filters="sRGB"><feFlood flood-opacity="0" result="BackgroundImageFix"/><feColorMatrix in="SourceAlpha" values="0 0 0 0 0 0 0 0 0 0 0 0 0 0 0 0 0 0 127 0"/><feOffset dx="-4" dy="4"/><feGaussianBlur stdDeviation="7.5"/><feColorMatrix values="0 0 0 0 0 0 0 0 0 0 0 0 0 0 0 0 0 0 0.25 0"/><feBlend in2="BackgroundImageFix" result="effect1_dropShadow"/><feBlend in="SourceGraphic" in2="effect1_dropShadow" result="shape"/></filter><filter id="filter10_d" x="181.786" y="141.95" width="97.954" height="65.63" filterUnits="userSpaceOnUse" color-interpolation-filters="sRGB"><feFlood flood-opacity="0" result="BackgroundImageFix"/><feColorMatrix in="SourceAlpha" values="0 0 0 0 0 0 0 0 0 0 0 0 0 0 0 0 0 0 127 0"/><feOffset dx="-4" dy="4"/><feGaussianBlur stdDeviation="7.5"/><feColorMatrix values="0 0 0 0 0 0 0 0 0 0 0 0 0 0 0 0 0 0 0.25 0"/><feBlend in2="BackgroundImageFix" result="effect1_dropShadow"/><feBlend in="SourceGraphic" in2="effect1_dropShadow" result="shape"/></filter><filter id="filter17_d" x="17" y="0" width="115.03" height="65.413" filterUnits="userSpaceOnUse" color-interpolation-filters="sRGB"><feFlood flood-opacity="0" result="BackgroundImageFix"/><feColorMatrix in="SourceAlpha" values="0 0 0 0 0 0 0 0 0 0 0 0 0 0 0 0 0 0 127 0"/><feOffset dx="-4" dy="4"/><feGaussianBlur stdDeviation="7.5"/><feColorMatrix values="0 0 0 0 0 0 0 0 0 0 0 0 0 0 0 0 0 0 0.25 0"/><feBlend in2="BackgroundImageFix" result="effect1_dropShadow"/><feBlend in="SourceGraphic" in2="effect1_dropShadow" result="shape"/></filter><filter id="filter8_d" x="997" y="0" width="115.03" height="65.413" filterUnits="userSpaceOnUse" color-interpolation-filters="sRGB"><feFlood flood-opacity="0" result="BackgroundImageFix"/><feColorMatrix in="SourceAlpha" values="0 0 0 0 0 0 0 0 0 0 0 0 0 0 0 0 0 0 127 0"/><feOffset dx="-4" dy="4"/><feGaussianBlur stdDeviation="7.5"/><feColorMatrix values="0 0 0 0 0 0 0 0 0 0 0 0 0 0 0 0 0 0 0.25 0"/><feBlend in2="BackgroundImageFix" result="effect1_dropShadow"/><feBlend in="SourceGraphic" in2="effect1_dropShadow" result="shape"/></filter><filter id="filter7_d" x="1590.4" y="130.869" width="115.03" height="65.413" filterUnits="userSpaceOnUse" color-interpolation-filters="sRGB"><feFlood flood-opacity="0" result="BackgroundImageFix"/><feColorMatrix in="SourceAlpha" values="0 0 0 0 0 0 0 0 0 0 0 0 0 0 0 0 0 0 127 0"/><feOffset dx="-4" dy="4"/><feGaussianBlur stdDeviation="7.5"/><feColorMatrix values="0 0 0 0 0 0 0 0 0 0 0 0 0 0 0 0 0 0 0.25 0"/><feBlend in2="BackgroundImageFix" result="effect1_dropShadow"/><feBlend in="SourceGraphic" in2="effect1_dropShadow" result="shape"/></filter><filter id="filter6_d" x="1804.4" y="69" width="115.03" height="65.413" filterUnits="userSpaceOnUse" color-interpolation-filters="sRGB"><feFlood flood-opacity="0" result="BackgroundImageFix"/><feColorMatrix in="SourceAlpha" values="0 0 0 0 0 0 0 0 0 0 0 0 0 0 0 0 0 0 127 0"/><feOffset dx="-4" dy="4"/><feGaussianBlur stdDeviation="7.5"/><feColorMatrix values="0 0 0 0 0 0 0 0 0 0 0 0 0 0 0 0 0 0 0.25 0"/><feBlend in2="BackgroundImageFix" result="effect1_dropShadow"/><feBlend in="SourceGraphic" in2="effect1_dropShadow" result="shape"/></filter><filter id="filter5_d" x="1606.07" y="5.365" width="94.702" height="58.053" filterUnits="userSpaceOnUse" color-interpolation-filters="sRGB"><feFlood flood-opacity="0" result="BackgroundImageFix"/><feColorMatrix in="SourceAlpha" values="0 0 0 0 0 0 0 0 0 0 0 0 0 0 0 0 0 0 127 0"/><feOffset dx="-4" dy="4"/><feGaussianBlur stdDeviation="7.5"/><feColorMatrix values="0 0 0 0 0 0 0 0 0 0 0 0 0 0 0 0 0 0 0.25 0"/><feBlend in2="BackgroundImageFix" result="effect1_dropShadow"/><feBlend in="SourceGraphic" in2="effect1_dropShadow" result="shape"/></filter><filter id="filter4_d" x="1300.06" y="213.499" width="98.535" height="66.057" filterUnits="userSpaceOnUse" color-interpolation-filters="sRGB"><feFlood flood-opacity="0" result="BackgroundImageFix"/><feColorMatrix in="SourceAlpha" values="0 0 0 0 0 0 0 0 0 0 0 0 0 0 0 0 0 0 127 0"/><feOffset dx="-4" dy="4"/><feGaussianBlur stdDeviation="7.5"/><feColorMatrix values="0 0 0 0 0 0 0 0 0 0 0 0 0 0 0 0 0 0 0.25 0"/><feBlend in2="BackgroundImageFix" result="effect1_dropShadow"/><feBlend in="SourceGraphic" in2="effect1_dropShadow" result="shape"/></filter><filter id="filter3_d" x="1798" y="211.618" width="105.273" height="69.58" filterUnits="userSpaceOnUse" color-interpolation-filters="sRGB"><feFlood flood-opacity="0" result="BackgroundImageFix"/><feColorMatrix in="SourceAlpha" values="0 0 0 0 0 0 0 0 0 0 0 0 0 0 0 0 0 0 127 0"/><feOffset dx="-4" dy="4"/><feGaussianBlur stdDeviation="7.5"/><feColorMatrix values="0 0 0 0 0 0 0 0 0 0 0 0 0 0 0 0 0 0 0.25 0"/><feBlend in2="BackgroundImageFix" result="effect1_dropShadow"/><feBlend in="SourceGraphic" in2="effect1_dropShadow" result="shape"/></filter><filter id="filter2_d" x="1326.38" y="98.908" width="78.672" height="51.013" filterUnits="userSpaceOnUse" color-interpolation-filters="sRGB"><feFlood flood-opacity="0" result="BackgroundImageFix"/><feColorMatrix in="SourceAlpha" values="0 0 0 0 0 0 0 0 0 0 0 0 0 0 0 0 0 0 127 0"/><feOffset dx="-4" dy="4"/><feGaussianBlur stdDeviation="7.5"/><feColorMatrix values="0 0 0 0 0 0 0 0 0 0 0 0 0 0 0 0 0 0 0.25 0"/><feBlend in2="BackgroundImageFix" result="effect1_dropShadow"/><feBlend in="SourceGraphic" in2="effect1_dropShadow" result="shape"/></filter><filter id="filter0_d" x="1100.57" y="143.341" width="134.081" height="73.2" filterUnits="userSpaceOnUse" color-interpolation-filters="sRGB"><feFlood flood-opacity="0" result="BackgroundImageFix"/><feColorMatrix in="SourceAlpha" values="0 0 0 0 0 0 0 0 0 0 0 0 0 0 0 0 0 0 127 0"/><feOffset dx="-4" dy="4"/><feGaussianBlur stdDeviation="7.5"/><feColorMatrix values="0 0 0 0 0 0 0 0 0 0 0 0 0 0 0 0 0 0 0.25 0"/><feBlend in2="BackgroundImageFix" result="effect1_dropShadow"/><feBlend in="SourceGraphic" in2="effect1_dropShadow" result="shape"/></filter></defs></svg>