<svg width="4564" height="742" viewBox="0 0 4564 742" fill="none" xmlns="http://www.w3.org/2000/svg"><path fill-rule="evenodd" clip-rule="evenodd" d="M688.675 379.273c-20-12.107-46.028-5.709-58.135 14.291l-4.519 7.465-7.463-4.518c-20-12.107-46.028-5.709-58.135 14.291-12.108 20-5.709 46.028 14.291 58.136l79.669 48.229.135-.222.219.133 48.229-79.669c12.108-20 5.709-46.029-14.291-58.136zm509.215-52.828c-7.26-3.616-16.08-.661-19.7 6.599l-1.34 2.709-2.71-1.349c-7.26-3.615-16.08-.661-19.69 6.599-3.62 7.26-.67 16.076 6.59 19.692l28.92 14.402.04-.081.08.04 14.41-28.92c3.61-7.26.66-16.076-6.6-19.691zm463.82 309.311c-7.68-7.675-20.12-7.675-27.79 0l-2.87 2.864-2.86-2.863c-7.68-7.675-20.12-7.675-27.79 0-7.68 7.674-7.68 20.117 0 27.792l30.57 30.571.08-.085.09.084 30.57-30.571c7.67-7.675 7.67-20.118 0-27.792zm432.17-358.164c-7.04-16.371-26.02-23.935-42.39-16.895l-6.18 2.658-2.66-6.18c-7.04-16.371-26.02-23.936-42.39-16.896-16.37 7.041-23.94 26.019-16.9 42.39l28.05 65.213.25-.109.11.252 65.21-28.043c16.37-7.04 23.94-26.019 16.9-42.39zM131.005 114.232c-14.976-14.976-39.256-14.976-54.232 0l-5.656 5.655-5.654-5.654c-14.975-14.975-39.256-14.975-54.231 0-14.976 14.976-14.976 39.256 0 54.232l59.655 59.655.232-.232.23.23 59.656-59.655c14.975-14.975 14.975-39.256 0-54.231zm313.351 556.726c-3.985-7.681-13.442-10.677-21.123-6.692l-2.9 1.505-1.505-2.9c-3.985-7.681-13.442-10.677-21.123-6.692-7.68 3.985-10.676 13.442-6.691 21.123l15.874 30.596.119-.062.062.118 30.595-15.874c7.681-3.985 10.677-13.442 6.692-21.122zM2271.97 504.616c-12.82-12.822-33.61-12.822-46.43 0l-4.84 4.842-4.84-4.841c-12.83-12.822-33.61-12.822-46.43 0-12.83 12.821-12.83 33.608 0 46.429l51.07 51.073.2-.199.2.198 51.07-51.073c12.82-12.821 12.82-33.608 0-46.429zM361.259 142.768c-6.358-6.357-16.666-6.357-23.024 0l-2.401 2.402-2.401-2.401c-6.358-6.358-16.666-6.358-23.024 0-6.358 6.358-6.358 16.666 0 23.024l25.327 25.327.098-.099.099.098 25.326-25.326c6.358-6.358 6.358-16.667 0-23.025zM1612.9 163.191c-18.92-9.516-41.97-1.891-51.48 17.03l-3.6 7.145-7.14-3.592c-18.92-9.516-41.97-1.891-51.49 17.03-9.51 18.921-1.89 41.973 17.03 51.488l75.37 37.904.15-.293.29.146 37.9-75.37c9.52-18.921 1.9-41.973-17.03-51.488zm1357.78 216.082c-20-12.107-46.03-5.709-58.14 14.291l-4.52 7.465-7.46-4.518c-20-12.107-46.03-5.709-58.14 14.291-12.1 20-5.71 46.028 14.29 58.136l79.67 48.229.14-.222.22.133 48.23-79.669c12.1-20 5.71-46.029-14.29-58.136zm563.21-111.828c-7.26-3.616-16.08-.661-19.7 6.599l-1.34 2.709-2.71-1.349c-7.26-3.615-16.08-.661-19.69 6.599-3.62 7.26-.67 16.076 6.59 19.692l28.92 14.402.04-.081.08.04 14.41-28.92c3.61-7.26.66-16.076-6.6-19.691zm409.82 368.311c-7.68-7.675-20.12-7.675-27.79 0l-2.87 2.864-2.86-2.863c-7.68-7.675-20.12-7.675-27.79 0-7.68 7.674-7.68 20.117 0 27.792l30.57 30.571.08-.085.09.084 30.57-30.571c7.67-7.675 7.67-20.118 0-27.792zm466.17-358.164c-7.04-16.371-26.02-23.935-42.39-16.895l-6.18 2.658-2.66-6.18c-7.04-16.371-26.02-23.936-42.39-16.896-16.37 7.041-23.94 26.019-16.9 42.39l28.05 65.213.25-.109.11.252 65.21-28.043c16.37-7.04 23.94-26.019 16.9-42.39zM2413 114.232c-14.97-14.976-39.25-14.976-54.23 0l-5.65 5.655-5.66-5.654c-14.97-14.975-39.25-14.975-54.23 0-14.97 14.976-14.97 39.256 0 54.232l59.66 59.655.23-.232.23.23 59.65-59.655c14.98-14.975 14.98-39.256 0-54.231zm313.36 556.726c-3.99-7.681-13.45-10.677-21.13-6.692l-2.9 1.505-1.5-2.9c-3.99-7.681-13.44-10.677-21.12-6.692-7.69 3.985-10.68 13.442-6.7 21.123l15.88 30.596.12-.062.06.118 30.59-15.874c7.68-3.985 10.68-13.442 6.7-21.122zm1827.61-166.342c-12.82-12.822-33.61-12.822-46.43 0l-4.84 4.842-4.84-4.841c-12.83-12.822-33.61-12.822-46.43 0-12.83 12.821-12.83 33.608 0 46.429l51.07 51.073.2-.199.2.198 51.07-51.073c12.82-12.821 12.82-33.608 0-46.429zM2643.26 142.768c-6.36-6.357-16.67-6.357-23.02 0l-2.41 2.402-2.4-2.401c-6.35-6.358-16.66-6.358-23.02 0-6.36 6.358-6.36 16.666 0 23.024l25.33 25.327.09-.099.1.098 25.33-25.326c6.36-6.358 6.36-16.667 0-23.025zM3955.55 14.19c-18.93-9.515-41.98-1.89-51.49 17.03l-3.6 7.146-7.14-3.592c-18.92-9.516-41.97-1.891-51.49 17.03-9.51 18.92-1.89 41.973 17.03 51.488l75.37 37.904.15-.293.29.146 37.91-75.37c9.51-18.92 1.89-41.973-17.03-51.488z" fill="#E32E30"/><g filter="url(#filter0_d)"><path d="M659.584 544.197c0-10.432-8.434-18.644-18.644-18.644-1.998 0-3.773.222-5.327.888.888-2.219 1.332-4.661 1.332-7.324 0-11.763-9.544-21.085-21.085-21.085-10.431 0-18.865 7.324-20.641 17.09-1.776-8.878-9.766-15.537-19.087-15.537-1.776 0-3.552.222-5.105.666v-.666a26.333 26.333 0 00-26.412-26.411 26.333 26.333 0 00-26.412 26.411c0 3.108.666 6.215 1.554 8.878-2.441-1.109-4.883-1.553-7.768-1.553-9.988 0-17.978 7.546-18.644 17.312-3.329-2.22-7.324-3.33-11.541-3.33-11.763 0-21.085 9.544-21.085 21.085 0 11.764 9.544 21.085 21.085 21.085h162.909v-.444c8.434-1.997 14.871-9.321 14.871-18.421z" fill="url(#paint0_linear)"/><path d="M635.149 526.255l-.448 1.121 1.109-.475c1.465-.628 3.164-.848 5.13-.848 9.937 0 18.144 7.992 18.144 18.144 0 8.849-6.259 15.986-14.486 17.935l-.385.091v.339H481.804c-11.268 0-20.585-9.101-20.585-20.585 0-11.268 9.102-20.585 20.585-20.585 4.13 0 8.026 1.087 11.264 3.246l.718.478.058-.86c.648-9.503 8.42-16.846 18.145-16.846 2.828 0 5.197.434 7.561 1.509l1.044.474-.363-1.088c-.875-2.627-1.528-5.68-1.528-8.72a25.833 25.833 0 0125.912-25.911 25.833 25.833 0 0125.912 25.911v1.329l.637-.182c1.502-.429 3.231-.647 4.968-.647 9.083 0 16.868 6.491 18.597 15.135l.982-.009c1.733-9.53 9.962-16.679 20.149-16.679 11.269 0 20.585 9.101 20.585 20.585 0 2.607-.434 4.984-1.296 7.138z" stroke="url(#paint1_linear)"/></g><g filter="url(#filter1_d)"><path d="M707.524 532.433c0-5.327-3.773-9.544-8.655-10.653 2.441-1.776 3.995-4.439 3.995-7.547 0-5.104-4.217-9.321-9.322-9.099-2.442 0-4.883 1.109-6.437 2.663-.887-3.329-3.995-5.771-7.546-5.771a12.56 12.56 0 00.666-3.995c0-6.214-5.105-11.319-11.319-11.097a10.744 10.744 0 00-7.99 3.551c-1.11-3.107-3.552-5.327-6.881-5.992.222-.888.444-1.998.444-3.108 0-6.214-5.105-11.319-11.319-11.097-4.439 0-7.99 2.441-9.988 6.214-1.775-1.553-3.995-2.441-6.436-2.441-5.327 0-9.766 4.439-9.544 9.766 0 1.109.222 2.441.666 3.551h-.666c-2.885 0-5.549 1.775-6.88 3.995-1.554-3.107-4.661-5.327-8.434-5.327-5.105 0-9.322 4.217-9.1 9.322 0 .888.222 1.554.444 2.441-1.11-.222-2.22-.444-3.551-.444-6.659 0-11.763 5.327-11.763 11.986 0 3.773 1.775 6.88 4.438 9.099-2.885 1.332-4.66 4.217-4.66 7.547 0 4.661 3.773 8.434 8.434 8.212v.222c0 5.548 4.66 9.987 10.209 9.987l102.761-.888v-.222c4.439-.887 8.434-5.548 8.434-10.875z" fill="url(#paint2_linear)"/><path d="M698.574 521.375l-.89.648 1.074.244c4.674 1.062 8.266 5.092 8.266 10.166 0 5.099-3.836 9.546-8.032 10.385l-.402.081v.136l-102.261.883h-.002c-5.286-.001-9.707-4.23-9.707-9.487v-.747l-.524.025c-4.362.208-7.91-3.323-7.91-7.712 0-3.148 1.673-5.848 4.37-7.093l.718-.331-.607-.507c-2.569-2.14-4.259-5.114-4.259-8.715 0-6.395 4.893-11.486 11.263-11.486 1.276 0 2.341.212 3.453.435l.775.155-.192-.767-.118-.461c-.177-.678-.311-1.193-.311-1.859v-.011l-.001-.011c-.209-4.807 3.768-8.8 8.601-8.8 3.564 0 6.508 2.094 7.987 5.051l.407.814.468-.781c1.253-2.088 3.764-3.752 6.452-3.752h1.404l-.274-.686c-.418-1.044-.63-2.312-.63-3.365v-.021c-.21-5.03 3.989-9.245 9.044-9.245 2.315 0 4.418.84 6.107 2.318l.476.416.295-.559c1.921-3.628 5.313-5.948 9.546-5.948h.018c5.921-.212 10.801 4.655 10.801 10.597 0 1.049-.21 2.113-.429 2.986l-.127.509.514.103c3.15.63 5.455 2.721 6.508 5.67l.282.79.56-.623a10.244 10.244 0 017.619-3.386h.018c5.921-.212 10.801 4.655 10.801 10.597 0 1.275-.212 2.554-.64 3.837l-.22.658h.694c3.323 0 6.233 2.288 7.063 5.4l.224.838.613-.613c1.465-1.465 3.781-2.517 6.083-2.517h.011l.011-.001c4.807-.209 8.8 3.767 8.8 8.6 0 2.928-1.461 5.449-3.79 7.142z" stroke="url(#paint3_linear)"/></g><g filter="url(#filter2_d)"><path d="M853.281 97.444c0-4.883-3.329-8.877-7.546-10.21-.222-.221-.222-.443-.444-.665.666-1.11.888-2.441.888-3.773 0-2.664-1.11-4.883-2.885-6.437 1.775-2.219 2.885-4.882 2.885-7.768 0-6.658-5.549-12.207-12.207-12.207-3.551 0-6.658 1.554-8.878 3.773-1.11-3.107-3.995-5.104-7.324-5.104-2.664 0-4.883 1.331-6.437 3.329-1.109-3.107-3.995-5.327-7.324-5.327h-.222c0-.444.222-1.11.222-1.554 0-5.104-4.217-9.321-9.322-9.321-1.553 0-2.885.444-3.995.887v-.221c0-5.993-4.883-10.876-10.875-10.876-3.329 0-6.215 1.554-8.212 3.995-2.442-4.439-7.102-7.546-12.651-7.546a14.398 14.398 0 00-14.427 14.427v.665c-.665-.222-1.331-.222-1.997-.222-2.442 0-4.883 1.332-6.215 3.108-2.663-3.773-6.88-6.215-11.763-6.215a14.397 14.397 0 00-14.426 14.427v1.553c-4.661.666-8.656 4.217-9.322 8.878-1.11-.444-2.442-.666-3.773-.666-5.105 0-9.322 4.217-9.322 9.322 0 3.107 1.554 5.77 3.773 7.546-5.105 2.22-8.656 7.325-8.656 13.095 0 7.99 6.437 14.427 14.427 14.427 1.331 0 147.15-.222 147.15-.222 4.883-1.332 8.878-5.771 8.878-11.098z" fill="url(#paint4_linear)"/><path d="M845.382 87.588l.086.087.117.037c4.025 1.27 7.196 5.085 7.196 9.732 0 5.046-3.777 9.296-8.446 10.598h-.351l-1.219.002-4.631.007-16.536.025-50.271.077-74.074.111a13.898 13.898 0 01-13.927-13.927c0-5.563 3.426-10.493 8.355-12.636l.761-.33-.648-.52c-2.12-1.695-3.585-4.223-3.585-7.155 0-4.829 3.993-8.822 8.822-8.822 1.281 0 2.547.215 3.587.63l.591.237.09-.63c.63-4.413 4.427-7.815 8.897-8.454l.43-.061v-1.987a13.897 13.897 0 0113.926-13.927c4.707 0 8.777 2.351 11.355 6.003l.396.561.412-.55c1.242-1.655 3.538-2.907 5.815-2.907.677 0 1.262.004 1.839.197l.658.219v-.698 0-.004 0-.01 0-.004 0-.009 0-.004 0-.009 0-.004 0-.009 0-.004 0-.009 0-.004 0-.009 0-.004 0-.009 0-.004 0-.009 0-.004 0-.008 0-.004 0-.01 0-.004 0-.009 0-.004 0-.009 0-.004 0-.009 0-.004 0-.009 0-.004 0-.009 0-.004 0-.009 0-.004 0-.009 0-.004 0-.004 0-.009 0-.004 0-.009 0-.004 0-.009 0-.004 0-.008 0-.004 0-.01 0-.004 0-.009 0-.004 0-.009 0-.004 0-.009 0-.004 0-.009 0-.004 0-.009 0-.004 0-.009 0-.004 0-.009 0-.004 0-.009 0-.004 0-.008 0-.004 0-.01 0-.004 0-.009 0-.004 0-.009 0-.004 0-.009 0-.004 0-.009 0-.004 0-.009 0-.004 0-.004 0-.009 0V43v0-.009 0-.004 0-.009 0-.004 0-.009 0-.004 0-.009 0-.004 0-.008 0-.004 0-.01 0-.004 0-.009 0-.004 0-.009 0-.004 0-.009 0-.004 0-.009 0-.004 0-.009 0-.004 0-.009 0-.004a13.898 13.898 0 0113.927-13.926c5.353 0 9.853 2.996 12.213 7.287l.356.648.469-.572c1.912-2.338 4.661-3.812 7.825-3.812 5.716 0 10.375 4.66 10.375 10.376v.96l.686-.274c1.09-.436 2.351-.852 3.809-.852 4.829 0 8.822 3.993 8.822 8.821 0 .162-.042.385-.101.68l-.006.027c-.051.256-.115.575-.115.847v.5h.722c3.1 0 5.809 2.069 6.854 4.995l.306.858.559-.72c1.477-1.899 3.561-3.135 6.042-3.135 3.123 0 5.816 1.869 6.853 4.773l.266.744.559-.56c2.139-2.138 5.123-3.626 8.524-3.626 6.382 0 11.707 5.325 11.707 11.707 0 2.753-1.058 5.309-2.776 7.456l-.299.374.36.315c1.671 1.462 2.715 3.545 2.715 6.06 0 1.284-.215 2.514-.817 3.516l-.2.335.276.275a.681.681 0 01.128.204l.005.01c.056.111.142.284.311.452z" stroke="url(#paint5_linear)"/></g><g filter="url(#filter3_d)"><mask id="a" fill="#fff"><path d="M1019.58 463.69a5.73 5.73 0 00-4.22-5.548c0-.222-.22-.222-.22-.444.22-.666.44-1.332.44-1.998 0-1.331-.66-2.663-1.55-3.551.89-1.11 1.55-2.663 1.55-4.217 0-3.773-2.88-6.658-6.66-6.658-1.99 0-3.55.888-4.88 1.997-.67-1.553-2.22-2.885-3.99-2.885-1.336 0-2.668.666-3.556 1.776-.666-1.776-2.219-2.886-3.995-2.886v-.888c0-2.885-2.219-5.104-5.104-5.104-.888 0-1.554.222-2.22.444v-.222c0-3.33-2.663-5.771-5.993-5.771-1.775 0-3.551.888-4.438 2.22-1.332-2.442-3.996-3.996-6.881-3.996-4.217 0-7.768 3.552-7.768 7.769v.443c-.444 0-.666-.221-1.11-.221-1.331 0-2.663.665-3.329 1.775-1.332-1.997-3.773-3.329-6.436-3.329-4.217 0-7.768 3.551-7.768 7.768v.888c-2.664.222-4.661 2.219-5.105 4.883-.666-.222-1.332-.444-1.998-.444-2.885 0-5.105 2.219-5.105 5.105 0 1.775.888 3.107 1.998 4.217-2.885 1.109-4.661 3.995-4.661 7.102 0 4.217 3.551 7.768 7.768 7.768h80.121c3.11-.666 5.11-3.107 5.11-5.993z"/></mask><path d="M1019.58 463.69a5.73 5.73 0 00-4.22-5.548c0-.222-.22-.222-.22-.444.22-.666.44-1.332.44-1.998 0-1.331-.66-2.663-1.55-3.551.89-1.11 1.55-2.663 1.55-4.217 0-3.773-2.88-6.658-6.66-6.658-1.99 0-3.55.888-4.88 1.997-.67-1.553-2.22-2.885-3.99-2.885-1.336 0-2.668.666-3.556 1.776-.666-1.776-2.219-2.886-3.995-2.886v-.888c0-2.885-2.219-5.104-5.104-5.104-.888 0-1.554.222-2.22.444v-.222c0-3.33-2.663-5.771-5.993-5.771-1.775 0-3.551.888-4.438 2.22-1.332-2.442-3.996-3.996-6.881-3.996-4.217 0-7.768 3.552-7.768 7.769v.443c-.444 0-.666-.221-1.11-.221-1.331 0-2.663.665-3.329 1.775-1.332-1.997-3.773-3.329-6.436-3.329-4.217 0-7.768 3.551-7.768 7.768v.888c-2.664.222-4.661 2.219-5.105 4.883-.666-.222-1.332-.444-1.998-.444-2.885 0-5.105 2.219-5.105 5.105 0 1.775.888 3.107 1.998 4.217-2.885 1.109-4.661 3.995-4.661 7.102 0 4.217 3.551 7.768 7.768 7.768h80.121c3.11-.666 5.11-3.107 5.11-5.993z" fill="url(#paint6_linear)"/><path d="M1015.36 458.142h-1v.764l.74.201.26-.965zm-.22-.444l-.95-.316-.05.154v.162h1zm-1.11-5.549l-.78-.624-.56.698.63.633.71-.707zm-9.99-8.878l-.92.394.53 1.234 1.03-.859-.64-.769zm-7.546-1.109l-.936.351.618 1.647 1.099-1.374-.781-.624zm-3.995-2.886h-1v1h1v-1zm-7.324-5.548h-1v1.387l1.316-.439-.316-.948zm-10.431-3.773l-.878.478.792 1.453.918-1.377-.832-.554zm-14.649 4.216v1h1v-1h-1zm-4.439 1.554l-.832.555.877 1.315.813-1.355-.858-.515zm-14.204 5.327l.083.996.917-.076v-.92h-1zm-5.105 4.883l-.316.948 1.11.37.192-1.154-.986-.164zm-5.105 8.878l.359.933 1.436-.552-1.088-1.089-.707.708zm83.228 14.87v1h.11l.1-.022-.21-.978zm6.11-5.993a6.73 6.73 0 00-4.96-6.513l-.52 1.93a4.73 4.73 0 013.48 4.583h2zm-4.22-5.548c0-.113-.01-.228-.05-.344a1.211 1.211 0 00-.13-.302c-.09-.158-.21-.269-.22-.283-.04-.041.02.015.07.102a.81.81 0 01.11.383h-2c0 .113.01.228.04.343.04.116.08.217.14.303.09.157.21.268.22.283.04.041-.02-.015-.07-.103a.782.782 0 01-.11-.382h2zm-.27-.128c.21-.632.49-1.456.49-2.314h-2c0 .475-.16.982-.39 1.682l1.9.632zm.49-2.314c0-1.643-.81-3.219-1.84-4.258l-1.42 1.414c.74.737 1.26 1.825 1.26 2.844h2zm-1.77-2.926c1-1.253 1.77-3.021 1.77-4.842h-2c0 1.286-.56 2.626-1.33 3.593l1.56 1.249zm1.77-4.842c0-4.325-3.33-7.658-7.66-7.658v2c3.22 0 5.66 2.437 5.66 5.658h2zm-7.66-7.658c-2.32 0-4.1 1.044-5.52 2.229l1.28 1.537c1.24-1.034 2.57-1.766 4.24-1.766v-2zm-3.96 2.603c-.78-1.818-2.64-3.491-4.91-3.491v2c1.27 0 2.52.99 3.07 2.279l1.84-.788zm-4.91-3.491c-1.663 0-3.274.822-4.337 2.151l1.562 1.249c.713-.891 1.765-1.4 2.775-1.4v-2zm-2.619 2.424c-.802-2.138-2.71-3.534-4.932-3.534v2c1.33 0 2.529.824 3.059 2.237l1.873-.703zm-3.932-2.534v-.888h-2v.888h2zm0-.888c0-3.437-2.667-6.104-6.104-6.104v2c2.333 0 4.104 1.771 4.104 4.104h2zm-6.104-6.104c-1.067 0-1.87.273-2.536.495l.632 1.897c.666-.222 1.194-.392 1.904-.392v-2zm-2.22 1.444h1v-.222h-2v.222h1zm1-.222c0-3.931-3.161-6.771-6.993-6.771v2c2.828 0 4.993 2.043 4.993 4.771h2zm-6.993-6.771c-2.066 0-4.175 1.021-5.271 2.665l1.665 1.109c.679-1.019 2.122-1.774 3.606-1.774v-2zm-3.561 2.741c-1.513-2.775-4.521-4.517-7.758-4.517v2c2.534 0 4.853 1.367 6.003 3.474l1.755-.957zm-7.758-4.517c-4.769 0-8.768 3.999-8.768 8.769h2c0-3.665 3.103-6.769 6.768-6.769v-2zm-8.768 8.769v.443h2v-.443h-2zm1-.557c-.044 0-.073-.004-.239-.059-.167-.056-.47-.162-.871-.162v2c.044 0 .073.004.239.059.167.056.471.162.871.162v-2zm-1.11-.221c-1.631 0-3.315.808-4.186 2.261l1.715 1.029c.46-.767 1.439-1.29 2.471-1.29v-2zm-2.497 2.22c-1.524-2.285-4.283-3.774-7.268-3.774v2c2.341 0 4.464 1.174 5.604 2.884l1.664-1.11zm-7.268-3.774c-4.77 0-8.768 3.999-8.768 8.768h2c0-3.665 3.103-6.768 6.768-6.768v-2zm-8.768 8.768v.888h2v-.888h-2zm.916-.109c-3.161.264-5.496 2.643-6.008 5.715l1.973.329c.376-2.254 2.036-3.87 4.202-4.051l-.167-1.993zm-4.705 4.931c-.632-.211-1.456-.495-2.314-.495v2c.475 0 .982.159 1.682.392l.632-1.897zm-2.314-.495c-3.437 0-6.105 2.667-6.105 6.105h2c0-2.333 1.772-4.105 4.105-4.105v-2zm-6.105 6.105c0 2.152 1.091 3.724 2.291 4.924l1.414-1.415c-1.02-1.019-1.705-2.111-1.705-3.509h-2zm2.639 3.283c-3.315 1.275-5.302 4.563-5.302 8.036h2c0-2.742 1.564-5.225 4.02-6.169l-.718-1.867zm-5.302 8.036c0 4.769 3.999 8.768 8.768 8.768v-2c-3.665 0-6.768-3.103-6.768-6.768h-2zm8.768 8.768h80.121v-2h-80.121v2zm80.331-.022c3.54-.758 5.9-3.58 5.9-6.971h-2c0 2.38-1.64 4.441-4.32 5.015l.42 1.956z" fill="url(#paint7_linear)" mask="url(#a)"/></g><g filter="url(#filter4_d)"><mask id="b" fill="#fff"><path d="M1834 485.731a5.731 5.731 0 00-4.22-5.549c0-.222-.22-.222-.22-.444.22-.665.44-1.331.44-1.997 0-1.332-.67-2.663-1.55-3.551.88-1.11 1.55-2.664 1.55-4.217 0-3.773-2.88-6.659-6.66-6.659-2 0-3.55.888-4.88 1.998-.67-1.554-2.22-2.885-4-2.885-1.33 0-2.66.665-3.55 1.775-.66-1.775-2.22-2.885-3.99-2.885v-.888c0-2.885-2.22-5.105-5.11-5.105-.88 0-1.55.222-2.22.444v-.222c0-3.329-2.66-5.77-5.99-5.77-1.77 0-3.55.887-4.44 2.219-1.33-2.441-3.99-3.995-6.88-3.995-4.21 0-7.77 3.551-7.77 7.768v.444c-.44 0-.66-.222-1.11-.222-1.33 0-2.66.666-3.33 1.776-1.33-1.998-3.77-3.33-6.43-3.33-4.22 0-7.77 3.552-7.77 7.769v.887c-2.66.222-4.66 2.22-5.1 4.883-.67-.222-1.34-.444-2-.444-2.89 0-5.11 2.22-5.11 5.105 0 1.776.89 3.107 2 4.217-2.88 1.11-4.66 3.995-4.66 7.102 0 4.217 3.55 7.769 7.77 7.769h80.12c3.11-.666 5.11-3.108 5.11-5.993z"/></mask><path d="M1834 485.731a5.731 5.731 0 00-4.22-5.549c0-.222-.22-.222-.22-.444.22-.665.44-1.331.44-1.997 0-1.332-.67-2.663-1.55-3.551.88-1.11 1.55-2.664 1.55-4.217 0-3.773-2.88-6.659-6.66-6.659-2 0-3.55.888-4.88 1.998-.67-1.554-2.22-2.885-4-2.885-1.33 0-2.66.665-3.55 1.775-.66-1.775-2.22-2.885-3.99-2.885v-.888c0-2.885-2.22-5.105-5.11-5.105-.88 0-1.55.222-2.22.444v-.222c0-3.329-2.66-5.77-5.99-5.77-1.77 0-3.55.887-4.44 2.219-1.33-2.441-3.99-3.995-6.88-3.995-4.21 0-7.77 3.551-7.77 7.768v.444c-.44 0-.66-.222-1.11-.222-1.33 0-2.66.666-3.33 1.776-1.33-1.998-3.77-3.33-6.43-3.33-4.22 0-7.77 3.552-7.77 7.769v.887c-2.66.222-4.66 2.22-5.1 4.883-.67-.222-1.34-.444-2-.444-2.89 0-5.11 2.22-5.11 5.105 0 1.776.89 3.107 2 4.217-2.88 1.11-4.66 3.995-4.66 7.102 0 4.217 3.55 7.769 7.77 7.769h80.12c3.11-.666 5.11-3.108 5.11-5.993z" fill="url(#paint8_linear)"/><path d="M1829.78 480.182h-1v.764l.74.201.26-.965zm-.22-.444l-.95-.316-.05.154v.162h1zm-1.11-5.548l-.78-.625-.56.699.63.633.71-.707zm-9.99-8.878l-.92.394.53 1.233 1.03-.859-.64-.768zm-7.55-1.11l-.93.351.61 1.648 1.1-1.374-.78-.625zm-3.99-2.885h-1v1h1v-1zm-7.33-5.549h-1v1.388l1.32-.439-.32-.949zm-10.43-3.773l-.88.479.8 1.452.91-1.376-.83-.555zm-14.65 4.217v1h1v-1h-1zm-4.44 1.554l-.83.554.88 1.315.81-1.355-.86-.514zm-14.2 5.326l.08.997.92-.076v-.921h-1zm-5.1 4.883l-.32.949 1.11.37.19-1.154-.98-.165zm-5.11 8.878l.36.933 1.44-.552-1.09-1.088-.71.707zm83.23 14.871v1h.11l.1-.023-.21-.977zm6.11-5.993a6.73 6.73 0 00-4.96-6.513l-.52 1.929a4.731 4.731 0 013.48 4.584h2zm-4.22-5.549c0-.112-.02-.228-.05-.343a1.219 1.219 0 00-.13-.303 1.14 1.14 0 00-.23-.283c-.04-.041.03.015.08.103a.79.79 0 01.11.382h-2c0 .113.01.228.04.344.04.115.08.216.13.303.1.157.22.268.23.282.04.041-.02-.014-.07-.102a.81.81 0 01-.11-.383h2zm-.27-.127c.21-.633.49-1.457.49-2.314h-2c0 .474-.16.982-.39 1.681l1.9.633zm.49-2.314c0-1.644-.81-3.219-1.85-4.258l-1.41 1.414c.74.736 1.26 1.824 1.26 2.844h2zm-1.77-2.927c1-1.252 1.77-3.02 1.77-4.841h-2c0 1.286-.56 2.625-1.33 3.592l1.56 1.249zm1.77-4.841c0-4.326-3.33-7.659-7.66-7.659v2c3.22 0 5.66 2.438 5.66 5.659h2zm-7.66-7.659c-2.32 0-4.1 1.044-5.52 2.23l1.28 1.536c1.24-1.034 2.57-1.766 4.24-1.766v-2zm-3.96 2.604c-.78-1.818-2.64-3.491-4.92-3.491v2c1.28 0 2.53.99 3.08 2.279l1.84-.788zm-4.92-3.491c-1.65 0-3.26.822-4.33 2.15l1.56 1.25c.72-.891 1.77-1.4 2.77-1.4v-2zm-2.61 2.424c-.8-2.138-2.71-3.534-4.93-3.534v2c1.33 0 2.53.823 3.06 2.236l1.87-.702zm-3.93-2.534v-.888h-2v.888h2zm0-.888c0-3.438-2.67-6.105-6.11-6.105v2c2.34 0 4.11 1.772 4.11 4.105h2zm-6.11-6.105c-1.06 0-1.87.273-2.53.495l.63 1.898c.67-.222 1.19-.393 1.9-.393v-2zm-2.22 1.444h1v-.222h-2v.222h1zm1-.222c0-3.93-3.16-6.77-6.99-6.77v2c2.83 0 4.99 2.042 4.99 4.77h2zm-6.99-6.77c-2.07 0-4.17 1.02-5.27 2.664l1.66 1.11c.68-1.02 2.13-1.774 3.61-1.774v-2zm-3.56 2.74c-1.51-2.775-4.52-4.516-7.76-4.516v2c2.54 0 4.85 1.366 6 3.474l1.76-.958zm-7.76-4.516c-4.77 0-8.77 3.999-8.77 8.768h2c0-3.665 3.11-6.768 6.77-6.768v-2zm-8.77 8.768v.444h2v-.444h-2zm1-.556c-.04 0-.07-.004-.23-.06-.17-.055-.48-.162-.88-.162v2c.05 0 .08.004.24.06.17.055.47.162.87.162v-2zm-1.11-.222c-1.63 0-3.31.809-4.18 2.261l1.71 1.029c.46-.767 1.44-1.29 2.47-1.29v-2zm-2.49 2.221c-1.53-2.286-4.29-3.775-7.27-3.775v2c2.34 0 4.46 1.175 5.6 2.884l1.67-1.109zm-7.27-3.775c-4.77 0-8.77 3.999-8.77 8.769h2c0-3.665 3.1-6.769 6.77-6.769v-2zm-8.77 8.769v.887h2v-.887h-2zm.92-.109c-3.16.263-5.5 2.643-6.01 5.715l1.97.329c.38-2.255 2.04-3.871 4.2-4.051l-.16-1.993zm-4.71 4.931c-.63-.211-1.45-.496-2.31-.496v2c.47 0 .98.16 1.68.393l.63-1.897zm-2.31-.496c-3.44 0-6.11 2.667-6.11 6.105h2c0-2.333 1.78-4.105 4.11-4.105v-2zm-6.11 6.105c0 2.153 1.09 3.725 2.29 4.924l1.42-1.414c-1.02-1.02-1.71-2.112-1.71-3.51h-2zm2.64 3.284c-3.31 1.275-5.3 4.563-5.3 8.035h2c0-2.742 1.56-5.224 4.02-6.169l-.72-1.866zm-5.3 8.035c0 4.77 4 8.769 8.77 8.769v-2c-3.67 0-6.77-3.104-6.77-6.769h-2zm8.77 8.769h80.12v-2h-80.12v2zm80.33-.023c3.53-.757 5.9-3.579 5.9-6.97h-2c0 2.38-1.64 4.44-4.32 5.015l.42 1.955z" fill="url(#paint9_linear)" mask="url(#b)"/></g><g filter="url(#filter5_d)"><path d="M2155.91 364.809c0-5.771-4.21-10.432-9.76-11.541 2.66-1.776 4.44-4.883 4.21-8.434 0-5.549-4.66-10.21-10.43-9.988-2.88 0-5.32 1.11-7.1 3.107-1.11-3.551-4.44-6.214-8.21-6.214.44-1.332.66-2.885.66-4.439-.22-6.88-5.77-12.429-12.65-12.207-3.55 0-6.66 1.553-8.88 3.995-1.1-3.329-3.99-5.771-7.54-6.659.22-1.109.44-2.219.44-3.329 0-6.88-5.77-12.429-12.65-12.207-4.88 0-8.88 2.885-10.87 6.881-2-1.554-4.44-2.664-7.11-2.664-5.99 0-10.65 4.883-10.65 10.876 0 1.331.22 2.663.67 3.773h-.67c-3.33 0-5.99 1.997-7.55 4.661-1.77-3.552-5.32-5.993-9.32-5.771-5.55 0-10.21 4.661-9.99 10.431 0 .888.23 1.776.45 2.664-1.33-.444-2.44-.444-3.77-.444-7.33 0-13.1 5.992-12.88 13.317 0 3.995 2 7.546 4.89 9.987-3.11 1.554-5.11 4.661-5.11 8.434 0 5.105 4.22 9.322 9.32 9.1v.222c0 6.215 5.11 11.097 11.32 10.875l113.42-1.775v-.222c5.55-1.332 9.76-6.437 9.76-12.429z" fill="url(#paint10_linear)"/><path d="M2145.87 352.852l-1.01.669 1.19.237c5.34 1.067 9.36 5.54 9.36 11.051 0 5.757-4.05 10.664-9.38 11.943l-.38.092v.124l-112.93 1.767-.01.001c-5.93.212-10.8-4.447-10.8-10.376v-.744l-.52.023c-4.81.209-8.8-3.768-8.8-8.601 0-3.585 1.89-6.518 4.83-7.986l.68-.34-.58-.489c-2.8-2.365-4.71-5.784-4.71-9.606v-.015c-.21-7.045 5.34-12.802 12.38-12.802 1.33 0 2.37.003 3.61.418l.86.288-.22-.883c-.22-.9-.43-1.727-.43-2.543v-.019c-.21-5.483 4.22-9.912 9.49-9.912h.02l.01-.001c3.76-.209 7.15 2.091 8.85 5.495l.41.827.47-.799c1.48-2.549 4-4.412 7.11-4.412h1.4l-.27-.686c-.42-1.04-.63-2.307-.63-3.587 0-5.73 4.45-10.376 10.15-10.376 2.53 0 4.86 1.052 6.8 2.558l.48.375.27-.546c1.93-3.845 5.76-6.604 10.43-6.604h.02c6.6-.213 12.13 5.112 12.13 11.707 0 1.052-.21 2.113-.43 3.231l-.1.468.47.115c3.41.852 6.14 3.186 7.19 6.332l.27.81.57-.632c2.14-2.346 5.11-3.831 8.51-3.831h.02c6.58-.213 11.92 5.095 12.13 11.715 0 1.507-.21 3.003-.64 4.273l-.22.658h.7c3.53 0 6.68 2.504 7.73 5.863l.27.844.58-.661c1.68-1.887 3.99-2.939 6.73-2.939h.02c5.48-.211 9.91 4.219 9.91 9.488v.031c.21 3.359-1.46 6.302-3.99 7.987z" stroke="url(#paint11_linear)"/></g><g filter="url(#filter6_d)"><path d="M990.804 701.662c0-5.326-3.773-9.543-8.878-10.653 2.442-1.776 3.995-4.439 3.995-7.768a9.108 9.108 0 00-9.543-9.1c-2.442 0-4.883 1.11-6.437 2.663-.888-3.329-3.995-5.77-7.546-5.548a12.57 12.57 0 00.666-3.995c0-6.215-5.327-11.32-11.542-11.098a10.747 10.747 0 00-7.99 3.551c-1.109-3.107-3.773-5.326-6.88-5.992.222-.888.444-1.998.444-3.107 0-6.215-5.327-11.32-11.541-11.098-4.439 0-8.212 2.664-9.988 6.215-1.775-1.554-3.995-2.442-6.436-2.442-5.327 0-9.766 4.439-9.544 9.988 0 1.332.222 2.441.666 3.551h-.666c-2.885 0-5.549 1.776-6.88 4.217-1.554-3.107-4.883-5.327-8.656-5.327a9.108 9.108 0 00-9.1 9.544c0 .888.222 1.554.444 2.441-1.11-.221-2.22-.443-3.551-.443-6.659 0-11.764 5.548-11.764 12.207 0 3.773 1.776 6.88 4.439 9.099-2.885 1.332-4.661 4.217-4.661 7.547 0 4.661 3.995 8.434 8.656 8.212v.222c0 5.548 4.661 9.987 10.21 9.987l103.205-1.553v-.222c5.105-1.11 8.878-5.771 8.878-11.098z" fill="url(#paint12_linear)"/><path d="M981.632 690.605l-.902.656 1.09.236c4.897 1.065 8.484 5.096 8.484 10.165 0 5.093-3.611 9.55-8.484 10.609l-.394.086v.132l-102.705 1.546h-.004c-5.285-.002-9.706-4.23-9.706-9.487v-.747l-.523.025c-4.379.209-8.133-3.34-8.133-7.712 0-3.148 1.674-5.848 4.371-7.093l.718-.331-.608-.507c-2.568-2.14-4.259-5.114-4.259-8.715 0-6.407 4.905-11.707 11.264-11.707 1.276 0 2.341.211 3.453.434l.774.155-.191-.767a47.36 47.36 0 00-.119-.461c-.176-.678-.31-1.193-.31-1.859v-.01l-.001-.011a8.609 8.609 0 018.601-9.023c3.577 0 6.736 2.107 8.208 5.051l.428.856.459-.84c1.253-2.299 3.758-3.957 6.441-3.957h1.404l-.274-.686c-.42-1.049-.63-2.096-.63-3.365v-.02c-.211-5.261 3.997-9.468 9.044-9.468 2.315 0 4.418.841 6.107 2.318l.487.426.289-.579c1.698-3.395 5.306-5.938 9.541-5.938h.018c5.933-.212 11.023 4.668 11.023 10.598 0 1.049-.211 2.112-.429 2.986l-.125.501.505.109c2.945.631 5.465 2.734 6.515 5.672l.281.789.561-.623a10.243 10.243 0 017.618-3.386h.018c5.934-.212 11.024 4.668 11.024 10.598 0 1.275-.213 2.553-.64 3.837l-.235.703.74-.046c3.297-.206 6.201 2.063 7.032 5.178l.223.838.614-.613c1.464-1.465 3.78-2.517 6.083-2.517h.02a8.607 8.607 0 019.023 8.6c0 3.156-1.466 5.674-3.789 7.364z" stroke="url(#paint13_linear)"/></g><g filter="url(#filter7_d)"><path d="M1594.62 288.938c0-3.551-2.22-6.436-5.54-7.546 0-.222-.23-.444-.23-.444.45-.888.67-1.776.67-2.663 0-1.776-.89-3.552-2.22-4.661 1.33-1.554 2-3.551 2-5.549 0-4.883-4-8.878-8.88-8.878-2.44 0-4.66 1.11-6.44 2.664-.88-2.22-2.88-3.774-5.32-3.774-2 0-3.55.888-4.66 2.442-.67-2.22-2.89-3.773-5.33-3.773h-.22c0-.444.22-.666.22-1.11 0-3.773-3.11-6.88-6.88-6.88-1.11 0-2 .222-2.89.665v-.221c0-4.217-3.55-7.769-7.76-7.769-2.45 0-4.67 1.11-6 2.886-1.77-3.108-5.1-5.327-9.1-5.327-5.77 0-10.43 4.661-10.43 10.431v.444c-.44-.222-.89-.222-1.55-.222-1.78 0-3.55.888-4.44 2.22-1.78-2.663-4.88-4.439-8.44-4.439-5.77 0-10.43 4.661-10.43 10.431v1.11c-3.55.444-6.21 3.107-6.66 6.437-.88-.444-1.77-.444-2.66-.444-3.77 0-6.88 3.107-6.88 6.88 0 2.22 1.11 4.217 2.66 5.549-3.77 1.553-6.21 5.326-6.21 9.543 0 5.771 4.66 10.432 10.43 10.432.89 0 106.09-.222 106.09-.222 4.44-1.11 7.1-4.439 7.1-8.212z" fill="url(#paint14_linear)"/><path d="M1588.55 281.364c.02.025.02.041.03.048v.34l.34.114c3.13 1.046 5.2 3.749 5.2 7.072 0 3.495-2.45 6.636-6.66 7.712h-.02l-.22.001-.88.002-3.34.007-11.93.025-36.26.076c-26.41.056-52.94.111-53.38.111a9.921 9.921 0 01-9.93-9.932c0-4.025 2.33-7.609 5.9-9.081l.76-.311-.62-.531c-1.46-1.253-2.49-3.118-2.49-5.169 0-3.497 2.88-6.38 6.38-6.38.9 0 1.67.007 2.44.391l.63.313.09-.694c.41-3.098 2.89-5.59 6.23-6.007l.43-.054v-1.552a9.92 9.92 0 019.93-9.931c3.39 0 6.34 1.69 8.02 4.216l.42.624.41-.624c.79-1.175 2.4-1.997 4.03-1.997.69 0 1.01.01 1.33.17l.72.361v-.908 0-.009 0-.007 0-.006 0-.005 0-.005 0-.004 0-.004 0-.004 0-.003 0-.003 0-.003 0-.003 0-.003 0-.003 0-.003 0-.002 0-.003 0-.002 0-.003 0-.002 0-.002 0-.002 0-.003 0-.002 0-.002 0-.002 0-.002 0-.002 0-.002 0-.002 0-.002 0-.002 0-.002 0-.002 0-.002 0-.002 0-.001 0-.002 0-.002 0-.002 0-.002 0-.002 0-.002 0-.002 0-.001 0-.002 0-.002 0-.002 0-.002 0-.002 0-.002 0-.002 0-.002 0-.001 0-.002 0-.002 0-.002 0-.002 0-.002 0-.002 0-.003 0-.002 0-.002 0-.002 0-.002 0-.003 0-.002 0-.002 0-.003 0-.002 0-.003 0-.002 0-.003 0-.003 0-.003 0-.003 0-.003 0-.004 0-.004 0-.003 0-.005 0-.004 0-.006 0-.006 0-.007 0-.01 0-.098a9.92 9.92 0 019.93-9.931c3.8 0 6.97 2.11 8.67 5.075l.38.66.45-.608c1.23-1.644 3.3-2.686 5.6-2.686 3.94 0 7.26 3.328 7.26 7.269v1.031l.73-.362c.81-.409 1.63-.613 2.66-.613 3.5 0 6.38 2.883 6.38 6.38 0 .133-.03.23-.09.397v.012c-.06.166-.13.397-.13.701v.5h.72c2.24 0 4.25 1.428 4.85 3.417l.29.976.59-.83c1.03-1.432 2.43-2.232 4.26-2.232 2.21 0 4.04 1.404 4.86 3.459l.26.656.53-.465c1.72-1.5 3.82-2.54 6.11-2.54 4.61 0 8.38 3.771 8.38 8.378 0 1.889-.63 3.768-1.88 5.223l-.33.385.39.325c1.22 1.02 2.04 2.658 2.04 4.277 0 .801-.2 1.613-.61 2.439l-.16.323.25.251v.001c0 .002 0 .006.01.012.01.013.02.032.04.053z" stroke="url(#paint15_linear)"/></g><path d="M2186.78 93.172c0-8.434-6.88-15.315-15.32-15.315-1.55 0-3.1.222-4.43.666.66-1.775 1.1-3.773 1.1-5.992 0-9.544-7.76-17.312-17.31-17.312-8.43 0-15.53 5.992-16.86 13.982-1.56-7.324-7.99-12.65-15.54-12.65-1.55 0-2.89.221-4.22.665v-.666c0-11.985-9.54-21.528-21.53-21.528-11.98 0-21.53 9.543-21.53 21.529 0 2.663.45 5.104 1.34 7.324-2-.888-4-1.332-6.22-1.332-7.99 0-14.65 6.215-15.31 14.205-2.67-1.776-6-2.664-9.32-2.664-9.55 0-17.32 7.769-17.32 17.312 0 9.544 7.77 17.312 17.32 17.312h133.16v-.222c6.88-1.554 11.99-7.768 11.99-15.314z" fill="#fff"/><g filter="url(#filter8_d)"><path d="M2186.78 93.172c0-8.434-6.88-15.315-15.32-15.315-1.55 0-3.1.222-4.43.666.66-1.775 1.1-3.773 1.1-5.992 0-9.544-7.76-17.312-17.31-17.312-8.43 0-15.53 5.992-16.86 13.982-1.56-7.324-7.99-12.65-15.54-12.65-1.55 0-2.89.221-4.22.665v-.666c0-11.985-9.54-21.528-21.53-21.528-11.98 0-21.53 9.543-21.53 21.529 0 2.663.45 5.104 1.34 7.324-2-.888-4-1.332-6.22-1.332-7.99 0-14.65 6.215-15.31 14.205-2.67-1.776-6-2.664-9.32-2.664-9.55 0-17.32 7.769-17.32 17.312 0 9.544 7.77 17.312 17.32 17.312h133.16v-.222c6.88-1.554 11.99-7.768 11.99-15.314z" fill="url(#paint16_linear)"/><path d="M2166.56 78.348l-.37.981.99-.331c1.28-.425 2.77-.64 4.28-.64 8.16 0 14.82 6.656 14.82 14.814 0 7.315-4.95 13.325-11.6 14.826l-.39.088v.122h-132.66c-9.27 0-16.82-7.544-16.82-16.812 0-9.267 7.55-16.812 16.82-16.812 3.24 0 6.47.867 9.04 2.58l.7.47.08-.845c.64-7.735 7.09-13.746 14.81-13.746 2.15 0 4.08.428 6.01 1.289l1.13.5-.46-1.143c-.86-2.154-1.3-4.532-1.3-7.139 0-11.708 9.32-21.028 21.03-21.028s21.03 9.32 21.03 21.029v1.359l.66-.22c1.28-.426 2.56-.64 4.06-.64 7.3 0 13.54 5.158 15.05 12.255l.98-.021c1.29-7.742 8.18-13.565 16.37-13.565 9.27 0 16.81 7.544 16.81 16.812 0 2.15-.43 4.089-1.07 5.817z" stroke="url(#paint17_linear)"/></g><g filter="url(#filter9_d)"><path d="M1388.47 557.15c0-8.434-6.89-15.314-15.32-15.314-1.55 0-3.11.222-4.44.666a16.86 16.86 0 001.11-5.993c0-9.544-7.77-17.312-17.31-17.312-8.43 0-15.54 5.993-16.87 13.983-1.55-7.324-7.99-12.651-15.53-12.651-1.56 0-2.89.222-4.22.666v-.666c0-11.985-9.55-21.529-21.53-21.529-11.99 0-21.53 9.544-21.53 21.529 0 2.663.44 5.105 1.33 7.324-2-.888-3.99-1.332-6.21-1.332-7.99 0-14.65 6.215-15.32 14.205-2.66-1.776-5.99-2.663-9.32-2.663-9.54 0-17.31 7.768-17.31 17.311 0 9.544 7.77 17.312 17.31 17.312h133.17v-.222c6.88-1.553 11.99-7.768 11.99-15.314z" fill="url(#paint18_linear)"/><path d="M1368.24 542.326l-.36.981.99-.331c1.27-.424 2.77-.64 4.28-.64 8.16 0 14.82 6.656 14.82 14.814 0 7.315-4.95 13.325-11.6 14.827l-.39.088v.121h-132.67c-9.27 0-16.81-7.544-16.81-16.812 0-9.267 7.54-16.811 16.81-16.811 3.25 0 6.48.866 9.05 2.579l.7.47.07-.845c.65-7.735 7.09-13.746 14.82-13.746 2.14 0 4.07.429 6.01 1.289l1.12.5-.45-1.143c-.86-2.154-1.3-4.531-1.3-7.138 0-11.709 9.32-21.029 21.03-21.029s21.03 9.32 21.03 21.029v1.359l.66-.219c1.28-.426 2.55-.64 4.06-.64 7.3 0 13.54 5.157 15.04 12.255l.98-.022c1.3-7.742 8.18-13.565 16.38-13.565 9.27 0 16.81 7.544 16.81 16.812a16.4 16.4 0 01-1.08 5.817z" stroke="url(#paint19_linear)"/></g><g filter="url(#filter10_d)"><path d="M461.779 307.172c0-8.434-6.881-15.315-15.315-15.315-1.553 0-3.107.222-4.439.666.666-1.775 1.11-3.773 1.11-5.992 0-9.544-7.768-17.312-17.312-17.312-8.434 0-15.536 5.992-16.868 13.983-1.553-7.325-7.99-12.651-15.536-12.651-1.554 0-2.885.222-4.217.665v-.665c0-11.986-9.544-21.529-21.529-21.529s-21.529 9.543-21.529 21.529c0 2.663.444 5.104 1.332 7.324-1.998-.888-3.995-1.332-6.215-1.332-7.99 0-14.648 6.215-15.314 14.205-2.663-1.776-5.992-2.664-9.322-2.664-9.543 0-17.312 7.768-17.312 17.312s7.769 17.312 17.312 17.312h133.168v-.222c6.881-1.554 11.986-7.768 11.986-15.314z" fill="url(#paint20_linear)"/><path d="M441.557 292.348l-.368.981.994-.331c1.273-.424 2.772-.641 4.281-.641 8.158 0 14.815 6.657 14.815 14.815 0 7.315-4.946 13.325-11.596 14.826l-.39.088v.122H316.625c-9.267 0-16.812-7.544-16.812-16.812 0-9.267 7.545-16.812 16.812-16.812 3.245 0 6.475.866 9.045 2.58l.705.47.07-.845c.645-7.735 7.091-13.746 14.816-13.746 2.147 0 4.076.428 6.012 1.289l1.124.499-.457-1.142c-.861-2.154-1.296-4.531-1.296-7.138 0-11.709 9.32-21.029 21.029-21.029s21.029 9.32 21.029 21.029v1.359l.658-.219c1.279-.427 2.558-.64 4.059-.64 7.306 0 13.542 5.157 15.047 12.254l.982-.021c1.291-7.742 8.178-13.565 16.375-13.565 9.268 0 16.812 7.544 16.812 16.812 0 2.151-.43 4.089-1.078 5.817z" stroke="url(#paint21_linear)"/></g><g filter="url(#filter11_d)"><path d="M2976.27 551.778c0-10.432-8.43-18.644-18.64-18.644-2 0-3.78.222-5.33.888.89-2.219 1.33-4.661 1.33-7.324 0-11.763-9.54-21.085-21.08-21.085-10.44 0-18.87 7.324-20.64 17.09-1.78-8.878-9.77-15.536-19.09-15.536-1.78 0-3.55.222-5.11.665v-.665a26.33 26.33 0 00-26.41-26.412 26.33 26.33 0 00-26.41 26.412c0 3.107.67 6.214 1.55 8.877-2.44-1.109-4.88-1.553-7.76-1.553-9.99 0-17.98 7.546-18.65 17.312-3.33-2.22-7.32-3.33-11.54-3.33-11.76 0-21.08 9.544-21.08 21.085 0 11.764 9.54 21.085 21.08 21.085h162.91v-.444c8.43-1.997 14.87-9.321 14.87-18.421z" fill="url(#paint22_linear)"/><path d="M2951.84 533.836l-.45 1.121 1.11-.475c1.46-.628 3.16-.848 5.13-.848 9.93 0 18.14 7.992 18.14 18.144 0 8.849-6.26 15.986-14.49 17.935l-.38.091v.339h-162.41c-11.27 0-20.58-9.101-20.58-20.585 0-11.268 9.1-20.585 20.58-20.585 4.13 0 8.03 1.087 11.26 3.246l.72.478.06-.86c.65-9.503 8.42-16.846 18.15-16.846 2.82 0 5.19.434 7.56 1.509l1.04.474-.36-1.088c-.88-2.627-1.53-5.68-1.53-8.719a25.833 25.833 0 0125.91-25.912 25.833 25.833 0 0125.91 25.912v1.328l.64-.182c1.5-.429 3.23-.646 4.97-.646 9.08 0 16.87 6.49 18.59 15.134l.99-.009c1.73-9.53 9.96-16.679 20.15-16.679 11.26 0 20.58 9.101 20.58 20.585 0 2.607-.43 4.984-1.29 7.138z" stroke="url(#paint23_linear)"/></g><g filter="url(#filter12_d)"><path d="M3024.21 540.014c0-5.327-3.77-9.544-8.66-10.653 2.45-1.776 4-4.439 4-7.547 0-5.104-4.22-9.321-9.32-9.099-2.44 0-4.88 1.109-6.44 2.663-.89-3.329-3.99-5.771-7.54-5.771.44-1.331.66-2.663.66-3.995 0-6.214-5.1-11.319-11.32-11.097-3.11 0-5.99 1.332-7.99 3.551-1.11-3.107-3.55-5.327-6.88-5.992.22-.888.45-1.998.45-3.108 0-6.214-5.11-11.319-11.32-11.097-4.44 0-7.99 2.441-9.99 6.215-1.78-1.554-4-2.442-6.44-2.442-5.32 0-9.76 4.439-9.54 9.766 0 1.11.22 2.441.66 3.551h-.66c-2.89 0-5.55 1.776-6.88 3.995-1.56-3.107-4.66-5.327-8.44-5.327-5.1 0-9.32 4.217-9.1 9.322 0 .888.23 1.554.45 2.441-1.11-.222-2.22-.444-3.55-.444-6.66 0-11.77 5.327-11.77 11.986 0 3.773 1.78 6.88 4.44 9.099-2.88 1.332-4.66 4.217-4.66 7.547 0 4.661 3.77 8.434 8.44 8.212v.222c0 5.548 4.66 9.987 10.21 9.987l102.76-.888v-.221c4.44-.888 8.43-5.549 8.43-10.876z" fill="url(#paint24_linear)"/><path d="M3015.26 528.956l-.89.648 1.07.244c4.68 1.063 8.27 5.092 8.27 10.166 0 5.099-3.84 9.546-8.03 10.385l-.4.081v.136l-102.26.883h-.01c-5.28-.001-9.7-4.23-9.7-9.487v-.747l-.53.025c-4.36.208-7.91-3.323-7.91-7.712 0-3.148 1.68-5.848 4.37-7.093l.72-.331-.61-.507c-2.57-2.14-4.26-5.114-4.26-8.715 0-6.395 4.9-11.486 11.27-11.486 1.27 0 2.34.212 3.45.435l.77.155-.19-.767a16.67 16.67 0 00-.12-.461c-.17-.678-.31-1.193-.31-1.859v-.022c-.21-4.807 3.77-8.8 8.6-8.8 3.57 0 6.51 2.094 7.99 5.051l.41.814.47-.781c1.25-2.088 3.76-3.752 6.45-3.752h1.4l-.27-.686c-.42-1.044-.63-2.312-.63-3.365v-.021c-.21-5.03 3.99-9.245 9.04-9.245 2.32 0 4.42.84 6.11 2.318l.47.416.3-.559c1.92-3.628 5.31-5.948 9.55-5.948h.01c5.92-.212 10.81 4.655 10.81 10.597 0 1.05-.22 2.113-.43 2.986l-.13.509.51.103c3.15.63 5.46 2.722 6.51 5.67l.28.79.56-.623a10.262 10.262 0 017.62-3.386h.02c5.92-.212 10.8 4.655 10.8 10.597 0 1.275-.21 2.554-.64 3.837l-.22.658h.7c3.32 0 6.23 2.288 7.06 5.4l.22.838.62-.613c1.46-1.465 3.78-2.517 6.08-2.517h.01l.01-.001c4.81-.209 8.8 3.767 8.8 8.6 0 2.928-1.46 5.449-3.79 7.142z" stroke="url(#paint25_linear)"/></g><g filter="url(#filter13_d)"><path d="M3212.46 127.026c0-4.883-3.33-8.878-7.55-10.21-.22-.222-.22-.444-.44-.666.66-1.109.88-2.441.88-3.773 0-2.663-1.11-4.883-2.88-6.436 1.77-2.22 2.88-4.883 2.88-7.768 0-6.659-5.55-12.207-12.2-12.207-3.56 0-6.66 1.553-8.88 3.773-1.11-3.108-4-5.105-7.33-5.105-2.66 0-4.88 1.332-6.43 3.33-1.11-3.108-4-5.328-7.33-5.328h-.22c0-.444.22-1.11.22-1.553 0-5.105-4.21-9.322-9.32-9.322-1.55 0-2.88.444-3.99.888v-.222c0-5.993-4.89-10.876-10.88-10.876-3.33 0-6.21 1.554-8.21 3.995-2.44-4.439-7.1-7.546-12.65-7.546a14.4 14.4 0 00-14.43 14.427v.666c-.66-.222-1.33-.222-2-.222-2.44 0-4.88 1.331-6.21 3.107-2.66-3.773-6.88-6.215-11.76-6.215a14.4 14.4 0 00-14.43 14.427v1.554c-4.66.665-8.66 4.217-9.32 8.877-1.11-.443-2.44-.665-3.78-.665-5.1 0-9.32 4.217-9.32 9.321 0 3.108 1.56 5.771 3.78 7.547-5.11 2.219-8.66 7.324-8.66 13.094a14.4 14.4 0 0014.43 14.427c1.33 0 147.15-.222 147.15-.222 4.88-1.332 8.88-5.771 8.88-11.097z" fill="url(#paint26_linear)"/><path d="M3204.56 117.17l.08.086.12.037c4.02 1.271 7.2 5.085 7.2 9.733 0 5.046-3.78 9.295-8.45 10.597h-.04l-.31.001-1.22.002-4.63.007-16.54.025-50.27.076-74.07.111c-7.72 0-13.93-6.213-13.93-13.927 0-5.563 3.43-10.492 8.36-12.636l.76-.331-.65-.518c-2.12-1.696-3.59-4.224-3.59-7.156 0-4.828 4-8.821 8.82-8.821 1.29 0 2.55.214 3.59.63l.59.236.09-.63c.63-4.413 4.43-7.815 8.9-8.453l.43-.062V84.19c0-7.714 6.21-13.927 13.93-13.927 4.7 0 8.77 2.351 11.35 6.003l.4.562.41-.55c1.24-1.656 3.54-2.907 5.81-2.907.68 0 1.27.004 1.84.196l.66.22v-.7 0-.014 0-.004 0-.009 0-.013 0-.004 0-.009 0-.004 0-.009 0-.013 0-.004 0-.009 0-.013 0-.012 0-.004 0-.01 0-.013 0-.013 0-.004 0-.009 0-.013 0-.004 0-.009 0-.004 0-.009 0-.017 0-.013 0-.013 0-.004 0-.009 0-.012 0-.004 0-.01 0-.004 0-.009 0-.013 0-.004 0-.009 0-.004 0-.009 0-.013 0-.004 0-.009 0-.013 0-.013 0-.004 0-.008 0-.014 0-.004 0-.009 0-.004 0-.009 0-.013 0-.004 0-.009 0-.017 0-.004 0-.009 0-.013 0-.013 0-.004 0-.009 0-.013 0-.004 0-.008 0-.004 0-.01 0-.013 0-.004 0-.009 0-.013 0-.013 0-.004 0-.009 0-.013 0-.002c0-7.714 6.21-13.927 13.93-13.927 5.35 0 9.85 2.996 12.21 7.287l.36.649.47-.573c1.91-2.338 4.66-3.812 7.82-3.812 5.72 0 10.38 4.66 10.38 10.376v.96l.68-.274c1.09-.436 2.35-.852 3.81-.852 4.83 0 8.82 3.993 8.82 8.822 0 .161-.04.384-.1.678v.028c-.06.256-.12.575-.12.847v.5h.72c3.1 0 5.81 2.07 6.86 4.995l.3.858.56-.719c1.48-1.9 3.56-3.136 6.04-3.136 3.13 0 5.82 1.87 6.86 4.773l.26.744.56-.559c2.14-2.139 5.13-3.626 8.53-3.626 6.38 0 11.7 5.324 11.7 11.707 0 2.752-1.06 5.308-2.77 7.455l-.3.374.36.315c1.67 1.462 2.71 3.546 2.71 6.06 0 1.284-.21 2.514-.81 3.516l-.2.335.27.276c.05.048.07.092.13.203v.01c.06.112.15.284.32.453z" stroke="url(#paint27_linear)"/></g><g filter="url(#filter14_d)"><mask id="c" fill="#fff"><path d="M3336.26 471.271a5.72 5.72 0 00-4.21-5.548c0-.222-.23-.222-.23-.444.23-.666.45-1.332.45-1.998 0-1.332-.67-2.663-1.56-3.551.89-1.11 1.56-2.663 1.56-4.217 0-3.773-2.89-6.658-6.66-6.658-2 0-3.55.887-4.88 1.997-.67-1.553-2.22-2.885-4-2.885-1.33 0-2.66.666-3.55 1.775-.66-1.775-2.22-2.885-3.99-2.885v-.888c0-2.885-2.22-5.104-5.11-5.104-.89 0-1.55.221-2.22.443v-.222c0-3.329-2.66-5.77-5.99-5.77-1.78 0-3.55.888-4.44 2.219-1.33-2.441-3.99-3.995-6.88-3.995-4.22 0-7.77 3.551-7.77 7.768v.444c-.44 0-.66-.222-1.11-.222-1.33 0-2.66.666-3.33 1.776-1.33-1.998-3.77-3.329-6.43-3.329-4.22 0-7.77 3.551-7.77 7.768v.888c-2.67.222-4.66 2.219-5.11 4.882-.66-.221-1.33-.443-1.99-.443-2.89 0-5.11 2.219-5.11 5.104 0 1.776.89 3.108 2 4.217-2.89 1.11-4.66 3.995-4.66 7.103 0 4.217 3.55 7.768 7.77 7.768h80.12c3.11-.666 5.1-3.107 5.1-5.993z"/></mask><path d="M3336.26 471.271a5.72 5.72 0 00-4.21-5.548c0-.222-.23-.222-.23-.444.23-.666.45-1.332.45-1.998 0-1.332-.67-2.663-1.56-3.551.89-1.11 1.56-2.663 1.56-4.217 0-3.773-2.89-6.658-6.66-6.658-2 0-3.55.887-4.88 1.997-.67-1.553-2.22-2.885-4-2.885-1.33 0-2.66.666-3.55 1.775-.66-1.775-2.22-2.885-3.99-2.885v-.888c0-2.885-2.22-5.104-5.11-5.104-.89 0-1.55.221-2.22.443v-.222c0-3.329-2.66-5.77-5.99-5.77-1.78 0-3.55.888-4.44 2.219-1.33-2.441-3.99-3.995-6.88-3.995-4.22 0-7.77 3.551-7.77 7.768v.444c-.44 0-.66-.222-1.11-.222-1.33 0-2.66.666-3.33 1.776-1.33-1.998-3.77-3.329-6.43-3.329-4.22 0-7.77 3.551-7.77 7.768v.888c-2.67.222-4.66 2.219-5.11 4.882-.66-.221-1.33-.443-1.99-.443-2.89 0-5.11 2.219-5.11 5.104 0 1.776.89 3.108 2 4.217-2.89 1.11-4.66 3.995-4.66 7.103 0 4.217 3.55 7.768 7.77 7.768h80.12c3.11-.666 5.1-3.107 5.1-5.993z" fill="url(#paint28_linear)"/><path d="M3332.05 465.723h-1v.763l.73.201.27-.964zm-.23-.444l-.94-.317-.06.154v.163h1zm-1.11-5.549l-.78-.625-.56.699.64.633.7-.707zm-9.98-8.878l-.92.394.53 1.233 1.03-.859-.64-.768zm-7.55-1.11l-.94.352.62 1.647 1.1-1.374-.78-.625zm-3.99-2.885h-1v1h1v-1zm-7.33-5.549h-1v1.388l1.32-.439-.32-.949zm-10.43-3.773l-.88.479.79 1.453.92-1.377-.83-.555zm-14.65 4.217v1h1v-1h-1zm-4.44 1.554l-.83.555.88 1.314.81-1.355-.86-.514zm-14.2 5.327l.08.996.92-.076v-.92h-1zm-5.11 4.882l-.31.949 1.11.37.19-1.154-.99-.165zm-5.1 8.878l.36.934 1.43-.553-1.08-1.088-.71.707zm83.23 14.871v1h.1l.11-.022-.21-.978zm6.1-5.993a6.72 6.72 0 00-4.95-6.513l-.53 1.929a4.72 4.72 0 013.48 4.584h2zm-4.21-5.548c0-.113-.02-.228-.05-.344a1.235 1.235 0 00-.36-.585c-.04-.041.02.014.08.102a.81.81 0 01.08.187c.02.072.02.139.02.196h-2c0 .112.02.228.05.343.03.116.08.216.13.303.1.157.21.268.23.283.04.041-.02-.015-.08-.103a.79.79 0 01-.08-.187c-.02-.071-.02-.138-.02-.195h2zm-.28-.128c.21-.632.5-1.457.5-2.314h-2c0 .475-.16.982-.39 1.681l1.89.633zm.5-2.314c0-1.644-.81-3.219-1.85-4.258l-1.41 1.414c.73.736 1.26 1.825 1.26 2.844h2zm-1.77-2.926c1-1.253 1.77-3.021 1.77-4.842h-2c0 1.286-.56 2.626-1.34 3.592l1.57 1.25zm1.77-4.842c0-4.325-3.33-7.658-7.66-7.658v2c3.22 0 5.66 2.437 5.66 5.658h2zm-7.66-7.658c-2.33 0-4.1 1.043-5.52 2.229l1.28 1.536c1.24-1.034 2.57-1.765 4.24-1.765v-2zm-3.96 2.603c-.78-1.818-2.64-3.491-4.92-3.491v2c1.28 0 2.53.99 3.08 2.279l1.84-.788zm-4.92-3.491c-1.66 0-3.27.822-4.33 2.151l1.56 1.249c.71-.891 1.77-1.4 2.77-1.4v-2zm-2.61 2.424c-.8-2.138-2.71-3.534-4.93-3.534v2c1.33 0 2.52.824 3.05 2.237l1.88-.703zm-3.93-2.534v-.888h-2v.888h2zm0-.888c0-3.437-2.67-6.104-6.11-6.104v2c2.33 0 4.11 1.771 4.11 4.104h2zm-6.11-6.104c-1.06 0-1.87.273-2.53.495l.63 1.897c.66-.222 1.19-.392 1.9-.392v-2zm-2.22 1.443h1v-.222h-2v.222h1zm1-.222c0-3.93-3.16-6.77-6.99-6.77v2c2.83 0 4.99 2.043 4.99 4.77h2zm-6.99-6.77c-2.07 0-4.18 1.021-5.27 2.665l1.66 1.109c.68-1.019 2.12-1.774 3.61-1.774v-2zm-3.56 2.74c-1.52-2.774-4.52-4.516-7.76-4.516v2c2.53 0 4.85 1.366 6 3.474l1.76-.958zm-7.76-4.516c-4.77 0-8.77 3.999-8.77 8.768h2c0-3.664 3.11-6.768 6.77-6.768v-2zm-8.77 8.768v.444h2v-.444h-2zm1-.556c-.04 0-.07-.004-.24-.059a2.555 2.555 0 00-.87-.163v2c.05 0 .07.005.24.06.17.056.47.162.87.162v-2zm-1.11-.222c-1.63 0-3.31.809-4.18 2.261l1.71 1.029c.46-.766 1.44-1.29 2.47-1.29v-2zm-2.5 2.221c-1.52-2.285-4.28-3.774-7.26-3.774v2c2.34 0 4.46 1.174 5.6 2.884l1.66-1.11zm-7.26-3.774c-4.77 0-8.77 3.999-8.77 8.768h2c0-3.665 3.1-6.768 6.77-6.768v-2zm-8.77 8.768v.888h2v-.888h-2zm.92-.109c-3.17.264-5.5 2.643-6.01 5.715l1.97.329c.38-2.255 2.04-3.87 4.2-4.051l-.16-1.993zm-4.71 4.931c-.63-.211-1.46-.495-2.31-.495v2c.47 0 .98.159 1.68.392l.63-1.897zm-2.31-.495c-3.44 0-6.11 2.667-6.11 6.104h2c0-2.333 1.77-4.104 4.11-4.104v-2zm-6.11 6.104c0 2.153 1.09 3.725 2.29 4.924l1.42-1.414c-1.02-1.02-1.71-2.111-1.71-3.51h-2zm2.64 3.284c-3.32 1.275-5.3 4.563-5.3 8.036h2c0-2.742 1.56-5.225 4.02-6.169l-.72-1.867zm-5.3 8.036c0 4.769 4 8.768 8.77 8.768v-2c-3.67 0-6.77-3.104-6.77-6.768h-2zm8.77 8.768h80.12v-2h-80.12v2zm80.33-.022c3.53-.758 5.89-3.58 5.89-6.971h-2c0 2.38-1.63 4.441-4.31 5.015l.42 1.956z" fill="url(#paint29_linear)" mask="url(#c)"/></g><g filter="url(#filter15_d)"><mask id="d" fill="#fff"><path d="M4095 466.731a5.73 5.73 0 00-4.22-5.548c0-.222-.22-.222-.22-.444.22-.666.44-1.332.44-1.998 0-1.332-.67-2.663-1.55-3.551.88-1.11 1.55-2.663 1.55-4.217 0-3.773-2.88-6.658-6.66-6.658-2 0-3.55.887-4.88 1.997-.67-1.554-2.22-2.885-4-2.885-1.33 0-2.66.666-3.55 1.775-.66-1.775-2.22-2.885-3.99-2.885v-.888c0-2.885-2.22-5.105-5.11-5.105-.88 0-1.55.222-2.22.444v-.222c0-3.329-2.66-5.77-5.99-5.77-1.77 0-3.55.888-4.44 2.219-1.33-2.441-3.99-3.995-6.88-3.995-4.21 0-7.77 3.551-7.77 7.768v.444c-.44 0-.66-.222-1.11-.222-1.33 0-2.66.666-3.33 1.776-1.33-1.998-3.77-3.329-6.43-3.329-4.22 0-7.77 3.551-7.77 7.768v.888c-2.66.222-4.66 2.219-5.1 4.882-.67-.221-1.34-.443-2-.443-2.89 0-5.11 2.219-5.11 5.104 0 1.776.89 3.108 2 4.217-2.88 1.11-4.66 3.995-4.66 7.103 0 4.217 3.55 7.768 7.77 7.768h80.12c3.11-.666 5.11-3.107 5.11-5.993z"/></mask><path d="M4095 466.731a5.73 5.73 0 00-4.22-5.548c0-.222-.22-.222-.22-.444.22-.666.44-1.332.44-1.998 0-1.332-.67-2.663-1.55-3.551.88-1.11 1.55-2.663 1.55-4.217 0-3.773-2.88-6.658-6.66-6.658-2 0-3.55.887-4.88 1.997-.67-1.554-2.22-2.885-4-2.885-1.33 0-2.66.666-3.55 1.775-.66-1.775-2.22-2.885-3.99-2.885v-.888c0-2.885-2.22-5.105-5.11-5.105-.88 0-1.55.222-2.22.444v-.222c0-3.329-2.66-5.77-5.99-5.77-1.77 0-3.55.888-4.44 2.219-1.33-2.441-3.99-3.995-6.88-3.995-4.21 0-7.77 3.551-7.77 7.768v.444c-.44 0-.66-.222-1.11-.222-1.33 0-2.66.666-3.33 1.776-1.33-1.998-3.77-3.329-6.43-3.329-4.22 0-7.77 3.551-7.77 7.768v.888c-2.66.222-4.66 2.219-5.1 4.882-.67-.221-1.34-.443-2-.443-2.89 0-5.11 2.219-5.11 5.104 0 1.776.89 3.108 2 4.217-2.88 1.11-4.66 3.995-4.66 7.103 0 4.217 3.55 7.768 7.77 7.768h80.12c3.11-.666 5.11-3.107 5.11-5.993z" fill="url(#paint30_linear)"/><path d="M4090.78 461.183h-1v.763l.74.201.26-.964zm-.22-.444l-.95-.317-.05.154v.163h1zm-1.11-5.549l-.78-.625-.56.699.63.633.71-.707zm-9.99-8.878l-.92.394.53 1.233 1.03-.859-.64-.768zm-7.55-1.11l-.93.351.61 1.648 1.1-1.374-.78-.625zm-3.99-2.885h-1v1h1v-1zm-7.33-5.549h-1v1.388l1.32-.439-.32-.949zm-10.43-3.773l-.88.479.8 1.453.91-1.377-.83-.555zm-14.65 4.217v1h1v-1h-1zm-4.44 1.554l-.83.555.88 1.314.81-1.355-.86-.514zm-14.2 5.327l.08.996.92-.076v-.92h-1zm-5.1 4.882l-.32.949 1.11.37.19-1.154-.98-.165zm-5.11 8.878l.36.934 1.44-.553-1.09-1.088-.71.707zm83.23 14.871v1h.11l.1-.022-.21-.978zm6.11-5.993a6.73 6.73 0 00-4.96-6.513l-.52 1.929c2.01.55 3.48 2.38 3.48 4.584h2zm-4.22-5.548c0-.113-.02-.229-.05-.344a1.235 1.235 0 00-.36-.585c-.04-.041.03.014.08.102a.81.81 0 01.11.383h-2c0 .112.01.228.04.343.04.115.08.216.13.303.1.157.22.268.23.283.04.04-.02-.015-.07-.103a.79.79 0 01-.11-.382h2zm-.27-.128c.21-.633.49-1.457.49-2.314h-2c0 .474-.16.982-.39 1.681l1.9.633zm.49-2.314c0-1.644-.81-3.219-1.85-4.258l-1.41 1.414c.74.736 1.26 1.825 1.26 2.844h2zm-1.77-2.926c1-1.253 1.77-3.021 1.77-4.842h-2c0 1.286-.56 2.626-1.33 3.592l1.56 1.25zm1.77-4.842c0-4.325-3.33-7.658-7.66-7.658v2c3.22 0 5.66 2.437 5.66 5.658h2zm-7.66-7.658c-2.32 0-4.1 1.043-5.52 2.229l1.28 1.536c1.24-1.034 2.57-1.765 4.24-1.765v-2zm-3.96 2.603c-.78-1.818-2.64-3.491-4.92-3.491v2c1.28 0 2.53.99 3.08 2.279l1.84-.788zm-4.92-3.491c-1.65 0-3.26.822-4.33 2.151l1.56 1.249c.72-.891 1.77-1.4 2.77-1.4v-2zm-2.61 2.424c-.8-2.138-2.71-3.534-4.93-3.534v2c1.33 0 2.53.823 3.06 2.236l1.87-.702zm-3.93-2.534v-.888h-2v.888h2zm0-.888c0-3.437-2.67-6.105-6.11-6.105v2c2.34 0 4.11 1.772 4.11 4.105h2zm-6.11-6.105c-1.06 0-1.87.274-2.53.496l.63 1.897c.67-.222 1.19-.393 1.9-.393v-2zm-2.22 1.444h1v-.222h-2v.222h1zm1-.222c0-3.93-3.16-6.77-6.99-6.77v2c2.83 0 4.99 2.042 4.99 4.77h2zm-6.99-6.77c-2.07 0-4.17 1.021-5.27 2.665l1.66 1.109c.68-1.019 2.13-1.774 3.61-1.774v-2zm-3.56 2.74c-1.51-2.775-4.52-4.516-7.76-4.516v2c2.54 0 4.85 1.366 6 3.474l1.76-.958zm-7.76-4.516c-4.77 0-8.77 3.999-8.77 8.768h2c0-3.664 3.11-6.768 6.77-6.768v-2zm-8.77 8.768v.444h2v-.444h-2zm1-.556c-.04 0-.07-.004-.23-.059-.17-.056-.48-.163-.88-.163v2c.05 0 .08.005.24.06.17.056.47.162.87.162v-2zm-1.11-.222c-1.63 0-3.31.809-4.18 2.261l1.71 1.029c.46-.766 1.44-1.29 2.47-1.29v-2zm-2.49 2.221c-1.53-2.285-4.29-3.774-7.27-3.774v2c2.34 0 4.46 1.174 5.6 2.884l1.67-1.11zm-7.27-3.774c-4.77 0-8.77 3.999-8.77 8.768h2c0-3.665 3.1-6.768 6.77-6.768v-2zm-8.77 8.768v.888h2v-.888h-2zm.92-.109c-3.16.264-5.5 2.643-6.01 5.715l1.97.329c.38-2.255 2.04-3.87 4.2-4.051l-.16-1.993zm-4.71 4.931c-.63-.211-1.45-.495-2.31-.495v2c.47 0 .98.159 1.68.392l.63-1.897zm-2.31-.495c-3.44 0-6.11 2.667-6.11 6.104h2c0-2.333 1.78-4.104 4.11-4.104v-2zm-6.11 6.104c0 2.153 1.09 3.725 2.29 4.924l1.42-1.414c-1.02-1.02-1.71-2.111-1.71-3.51h-2zm2.64 3.284c-3.31 1.275-5.3 4.563-5.3 8.036h2c0-2.742 1.56-5.225 4.02-6.169l-.72-1.867zm-5.3 8.036c0 4.769 4 8.768 8.77 8.768v-2c-3.67 0-6.77-3.104-6.77-6.768h-2zm8.77 8.768h80.12v-2h-80.12v2zm80.33-.022c3.53-.758 5.9-3.58 5.9-6.971h-2c0 2.38-1.64 4.441-4.32 5.015l.42 1.956z" fill="url(#paint31_linear)" mask="url(#d)"/></g><g filter="url(#filter16_d)"><path d="M4472.6 372.39c0-5.771-4.22-10.432-9.77-11.541 2.67-1.776 4.44-4.883 4.22-8.434 0-5.549-4.66-10.21-10.43-9.988-2.89 0-5.33 1.11-7.1 3.107-1.11-3.551-4.44-6.214-8.22-6.214.45-1.332.67-2.885.67-4.439-.22-6.88-5.77-12.429-12.65-12.207-3.55 0-6.66 1.553-8.88 3.995-1.11-3.329-3.99-5.771-7.55-6.659.23-1.109.45-2.219.45-3.329 0-6.88-5.77-12.429-12.65-12.207-4.88 0-8.88 2.886-10.88 6.881-1.99-1.554-4.44-2.664-7.1-2.664-5.99 0-10.65 4.883-10.65 10.876 0 1.331.22 2.663.66 3.773h-.66c-3.33 0-6 1.997-7.55 4.661-1.77-3.552-5.33-5.993-9.32-5.771-5.55 0-10.21 4.661-9.99 10.431 0 .888.22 1.776.45 2.664-1.34-.444-2.45-.444-3.78-.444-7.32 0-13.09 5.993-12.87 13.317 0 3.995 2 7.546 4.88 9.987-3.11 1.554-5.1 4.661-5.1 8.434 0 5.105 4.21 9.322 9.32 9.1v.222c0 6.215 5.1 11.097 11.32 10.875l113.41-1.775v-.222c5.55-1.332 9.77-6.437 9.77-12.429z" fill="url(#paint32_linear)"/><path d="M4462.56 360.433l-1.01.669 1.18.237c5.34 1.067 9.37 5.54 9.37 11.051 0 5.757-4.06 10.664-9.38 11.943l-.39.092v.124l-112.92 1.767-.01.001c-5.93.212-10.8-4.447-10.8-10.376v-.744l-.52.023c-4.81.209-8.8-3.768-8.8-8.601 0-3.585 1.89-6.518 4.83-7.986l.67-.34-.58-.489c-2.79-2.364-4.7-5.784-4.7-9.606v-.015c-.21-7.045 5.33-12.802 12.37-12.802 1.34 0 2.37.003 3.62.418l.86.288-.22-.883c-.22-.9-.43-1.727-.43-2.543v-.019c-.21-5.483 4.22-9.912 9.49-9.912h.01l.02-.001c3.76-.209 7.14 2.091 8.84 5.495l.42.827.46-.798c1.49-2.55 4.01-4.413 7.12-4.413h1.4l-.27-.686c-.42-1.04-.63-2.306-.63-3.587 0-5.73 4.45-10.376 10.15-10.376 2.52 0 4.86 1.052 6.8 2.558l.48.375.27-.546c1.92-3.845 5.76-6.604 10.43-6.604h.01c6.6-.213 12.14 5.112 12.14 11.707 0 1.052-.21 2.113-.44 3.231l-.09.468.46.116c3.41.852 6.15 3.185 7.2 6.331l.27.81.57-.632c2.13-2.346 5.11-3.831 8.51-3.831h.02c6.58-.213 11.91 5.095 12.13 11.715 0 1.507-.22 3.003-.64 4.273l-.22.658h.69c3.54 0 6.69 2.504 7.74 5.863l.26.844.59-.66c1.68-1.888 3.98-2.94 6.73-2.94h.02c5.48-.211 9.91 4.219 9.91 9.488v.031c.21 3.359-1.47 6.302-3.99 7.987z" stroke="url(#paint33_linear)"/></g><g filter="url(#filter17_d)"><path d="M3307.49 709.243c0-5.326-3.77-9.543-8.88-10.653 2.44-1.776 4-4.439 4-7.768a9.112 9.112 0 00-9.55-9.1c-2.44 0-4.88 1.11-6.43 2.663-.89-3.329-4-5.77-7.55-5.548.45-1.332.67-2.664.67-3.995 0-6.215-5.33-11.32-11.54-11.098-3.11 0-6 1.332-7.99 3.551-1.11-3.107-3.78-5.326-6.88-5.992.22-.888.44-1.998.44-3.107 0-6.215-5.33-11.32-11.54-11.098-4.44 0-8.21 2.664-9.99 6.215-1.78-1.554-3.99-2.442-6.44-2.442-5.32 0-9.76 4.439-9.54 9.988 0 1.332.22 2.441.67 3.551h-.67c-2.89 0-5.55 1.776-6.88 4.217-1.55-3.107-4.88-5.327-8.66-5.327-5.1 0-9.32 4.217-9.1 9.544 0 .888.23 1.554.45 2.442-1.11-.222-2.22-.444-3.55-.444-6.66 0-11.77 5.548-11.77 12.207 0 3.773 1.78 6.88 4.44 9.1-2.88 1.331-4.66 4.217-4.66 7.546 0 4.661 4 8.434 8.66 8.212v.222c0 5.548 4.66 9.987 10.21 9.987l103.2-1.553v-.222c5.11-1.11 8.88-5.771 8.88-11.098z" fill="url(#paint34_linear)"/><path d="M3298.32 698.186l-.9.656 1.09.237c4.89 1.064 8.48 5.095 8.48 10.164 0 5.094-3.61 9.55-8.48 10.609l-.4.086v.132l-102.7 1.546h-.01c-5.28-.002-9.7-4.23-9.7-9.487v-.747l-.53.025c-4.37.209-8.13-3.34-8.13-7.712 0-3.148 1.68-5.848 4.37-7.092l.72-.332-.61-.507c-2.57-2.14-4.26-5.114-4.26-8.715 0-6.407 4.91-11.707 11.27-11.707 1.27 0 2.34.211 3.45.434l.77.155-.19-.767a16.67 16.67 0 00-.12-.461c-.17-.678-.31-1.193-.31-1.859v-.021a8.611 8.611 0 018.6-9.023c3.58 0 6.74 2.107 8.21 5.051l.43.856.46-.84c1.25-2.299 3.76-3.957 6.44-3.957h1.4l-.27-.686c-.42-1.049-.63-2.096-.63-3.365v-.02c-.21-5.261 4-9.468 9.04-9.468 2.32 0 4.42.841 6.11 2.318l.49.426.29-.579c1.7-3.395 5.3-5.938 9.54-5.938h.02c5.93-.212 11.02 4.668 11.02 10.598 0 1.049-.21 2.112-.43 2.986l-.13.501.51.109c2.95.631 5.47 2.734 6.51 5.672l.29.789.56-.623a10.23 10.23 0 017.62-3.386h.01c5.94-.212 11.03 4.668 11.03 10.598 0 1.275-.22 2.553-.64 3.837l-.24.703.74-.046c3.3-.206 6.2 2.063 7.03 5.178l.23.838.61-.613c1.47-1.465 3.78-2.517 6.08-2.517h.02a8.613 8.613 0 019.03 8.6c0 3.156-1.47 5.674-3.79 7.364z" stroke="url(#paint35_linear)"/></g><g filter="url(#filter18_d)"><path d="M3813.31 248.519c0-3.551-2.22-6.436-5.55-7.546 0-.222-.22-.444-.22-.444.44-.888.67-1.776.67-2.663 0-1.776-.89-3.552-2.22-4.661 1.33-1.554 1.99-3.551 1.99-5.549 0-4.883-3.99-8.878-8.87-8.878-2.45 0-4.66 1.11-6.44 2.664-.89-2.22-2.89-3.774-5.33-3.774-1.99 0-3.55.888-4.66 2.442-.66-2.22-2.88-3.773-5.32-3.773h-.23c0-.444.23-.666.23-1.11 0-3.773-3.11-6.88-6.88-6.88-1.11 0-2 .222-2.89.666v-.222c0-4.217-3.55-7.769-7.77-7.769-2.44 0-4.66 1.11-5.99 2.886-1.78-3.107-5.11-5.327-9.1-5.327-5.77 0-10.43 4.661-10.43 10.432v.443c-.45-.222-.89-.221-1.56-.221-1.77 0-3.55.887-4.43 2.219-1.78-2.663-4.89-4.439-8.44-4.439-5.77 0-10.43 4.661-10.43 10.432v1.109c-3.55.444-6.21 3.108-6.66 6.437-.89-.444-1.77-.444-2.66-.444-3.78 0-6.88 3.107-6.88 6.88 0 2.22 1.11 4.217 2.66 5.549-3.77 1.553-6.21 5.327-6.21 9.544 0 5.77 4.66 10.431 10.43 10.431.89 0 106.09-.222 106.09-.222 4.44-1.11 7.1-4.439 7.1-8.212z" fill="url(#paint36_linear)"/><path d="M3807.24 240.945c.01.025.02.041.02.048v.34l.34.114c3.14 1.046 5.21 3.749 5.21 7.072 0 3.495-2.45 6.636-6.66 7.712h-.02l-.22.001-.88.002-3.34.007-11.93.025-36.26.076c-26.42.056-52.94.111-53.38.111-5.5 0-9.93-4.437-9.93-9.931 0-4.026 2.33-7.609 5.9-9.082l.76-.311-.62-.531c-1.47-1.253-2.49-3.118-2.49-5.169 0-3.497 2.88-6.38 6.38-6.38.9 0 1.67.007 2.44.391l.62.313.1-.694c.41-3.098 2.89-5.59 6.22-6.007l.44-.054v-1.551a9.921 9.921 0 019.93-9.932c3.38 0 6.34 1.69 8.02 4.216l.42.624.41-.624c.78-1.175 2.39-1.996 4.02-1.996.7 0 1.01.009 1.33.169l.73.361v-.907 0-.01 0-.007 0-.006 0-.005 0-.005 0-.004 0-.004 0-.003 0-.004 0-.003 0-.003 0-.003 0-.003 0-.003 0-.002 0-.003 0-.003 0-.002 0-.002 0-.003 0-.002 0-.002 0-.002 0-.003 0-.002 0-.002 0-.002 0-.002 0-.002 0-.002 0-.002 0-.002 0-.002 0-.002 0-.002 0-.001 0-.002 0-.002 0-.002 0-.002 0-.002 0-.002 0-.002 0-.001 0-.002 0-.002 0-.002 0-.002 0-.002 0-.002 0-.002 0-.001 0-.002 0-.002 0-.002 0-.002 0-.002 0-.002 0-.002 0-.002 0-.002 0-.003 0-.002 0-.002 0-.002 0-.002 0-.003 0-.002 0-.003 0-.002 0-.003 0-.002 0-.003 0-.003 0-.003 0-.003 0-.003 0-.004 0-.003 0-.004 0-.004 0-.005 0-.005 0-.006 0-.007 0-.01 0-.098a9.915 9.915 0 019.93-9.932c3.8 0 6.97 2.11 8.66 5.075l.38.661.46-.609c1.23-1.643 3.3-2.686 5.59-2.686 3.94 0 7.27 3.328 7.27 7.269v1.031l.72-.362c.82-.409 1.63-.613 2.67-.613 3.49 0 6.38 2.883 6.38 6.38 0 .133-.03.231-.09.397v.012c-.06.166-.14.397-.14.701v.5h.73c2.24 0 4.25 1.428 4.84 3.417l.3.976.59-.829c1.02-1.433 2.43-2.233 4.25-2.233 2.21 0 4.04 1.404 4.87 3.459l.26.656.53-.465c1.71-1.5 3.82-2.54 6.11-2.54 4.6 0 8.37 3.771 8.37 8.378 0 1.889-.63 3.768-1.87 5.223l-.33.385.39.325c1.22 1.02 2.04 2.658 2.04 4.277 0 .801-.2 1.613-.62 2.439l-.16.323.25.251v.001c.01.002.01.006.02.012.01.013.02.032.04.053z" stroke="url(#paint37_linear)"/></g><path d="M4503.47 100.753c0-8.434-6.89-15.314-15.32-15.314-1.55 0-3.11.221-4.44.665a16.853 16.853 0 001.11-5.992c0-9.544-7.77-17.312-17.31-17.312-8.43 0-15.54 5.993-16.87 13.983-1.55-7.325-7.99-12.651-15.53-12.651-1.56 0-2.89.222-4.22.665v-.665c0-11.986-9.55-21.53-21.53-21.53-11.99 0-21.53 9.545-21.53 21.53 0 2.663.44 5.104 1.33 7.324-1.99-.888-3.99-1.332-6.21-1.332-7.99 0-14.65 6.215-15.32 14.205-2.66-1.776-5.99-2.664-9.32-2.664-9.54 0-17.31 7.768-17.31 17.312s7.77 17.312 17.31 17.312h133.17v-.222c6.88-1.554 11.99-7.768 11.99-15.314z" fill="#fff"/><g filter="url(#filter19_d)"><path d="M4503.47 100.753c0-8.434-6.89-15.314-15.32-15.314-1.55 0-3.11.221-4.44.665a16.853 16.853 0 001.11-5.992c0-9.544-7.77-17.312-17.31-17.312-8.43 0-15.54 5.993-16.87 13.983-1.55-7.325-7.99-12.651-15.53-12.651-1.56 0-2.89.222-4.22.665v-.665c0-11.986-9.55-21.53-21.53-21.53-11.99 0-21.53 9.545-21.53 21.53 0 2.663.44 5.104 1.33 7.324-1.99-.888-3.99-1.332-6.21-1.332-7.99 0-14.65 6.215-15.32 14.205-2.66-1.776-5.99-2.664-9.32-2.664-9.54 0-17.31 7.768-17.31 17.312s7.77 17.312 17.31 17.312h133.17v-.222c6.88-1.554 11.99-7.768 11.99-15.314z" fill="url(#paint38_linear)"/><path d="M4483.24 85.929l-.36.981.99-.331c1.27-.424 2.77-.64 4.28-.64 8.16 0 14.82 6.656 14.82 14.814 0 7.315-4.95 13.325-11.6 14.826l-.39.088v.122h-132.67c-9.27 0-16.81-7.544-16.81-16.812 0-9.267 7.54-16.812 16.81-16.812 3.25 0 6.48.866 9.05 2.58l.7.47.07-.845c.65-7.735 7.09-13.746 14.82-13.746 2.15 0 4.07.428 6.01 1.289l1.12.5-.45-1.143c-.86-2.154-1.3-4.531-1.3-7.138 0-11.71 9.32-21.03 21.03-21.03s21.03 9.32 21.03 21.03v1.358l.66-.22c1.28-.426 2.55-.64 4.06-.64 7.3 0 13.54 5.158 15.04 12.255l.99-.021c1.29-7.742 8.17-13.565 16.37-13.565 9.27 0 16.81 7.544 16.81 16.812a16.4 16.4 0 01-1.08 5.817z" stroke="url(#paint39_linear)"/></g><g filter="url(#filter20_d)"><path d="M3727.15 577.731c0-8.434-6.88-15.314-15.31-15.314-1.56 0-3.11.222-4.44.666.66-1.776 1.11-3.773 1.11-5.993 0-9.544-7.77-17.312-17.31-17.312-8.44 0-15.54 5.993-16.87 13.983-1.56-7.324-7.99-12.651-15.54-12.651-1.55 0-2.88.222-4.22.666v-.666c0-11.985-9.54-21.529-21.52-21.529-11.99 0-21.53 9.544-21.53 21.529 0 2.663.44 5.105 1.33 7.324-2-.888-4-1.332-6.22-1.332-7.99 0-14.64 6.215-15.31 14.205-2.66-1.776-5.99-2.663-9.32-2.663-9.55 0-17.31 7.768-17.31 17.312 0 9.543 7.76 17.311 17.31 17.311h133.17v-.222c6.88-1.553 11.98-7.768 11.98-15.314z" fill="url(#paint40_linear)"/><path d="M3706.93 562.907l-.37.981 1-.331c1.27-.424 2.77-.64 4.28-.64 8.16 0 14.81 6.656 14.81 14.814 0 7.315-4.94 13.325-11.59 14.827l-.39.088v.121H3582c-9.27 0-16.81-7.544-16.81-16.811 0-9.268 7.54-16.812 16.81-16.812 3.24 0 6.47.866 9.04 2.579l.71.47.07-.844c.64-7.736 7.09-13.747 14.81-13.747 2.15 0 4.08.429 6.02 1.289l1.12.5-.46-1.143c-.86-2.154-1.29-4.531-1.29-7.138 0-11.709 9.32-21.029 21.03-21.029s21.02 9.32 21.02 21.029v1.359l.66-.219c1.28-.426 2.56-.64 4.06-.64 7.31 0 13.54 5.157 15.05 12.255l.98-.022c1.29-7.742 8.18-13.565 16.38-13.565 9.26 0 16.81 7.544 16.81 16.812a16.4 16.4 0 01-1.08 5.817z" stroke="url(#paint41_linear)"/></g><g filter="url(#filter21_d)"><path d="M2778.47 314.753c0-8.434-6.89-15.315-15.32-15.315-1.55 0-3.11.222-4.44.666a16.85 16.85 0 001.11-5.992c0-9.544-7.77-17.312-17.31-17.312-8.43 0-15.54 5.992-16.87 13.983-1.55-7.325-7.99-12.651-15.53-12.651-1.56 0-2.89.222-4.22.665v-.665c0-11.986-9.55-21.529-21.53-21.529-11.99 0-21.53 9.543-21.53 21.529 0 2.663.44 5.104 1.33 7.324-2-.888-3.99-1.332-6.21-1.332-7.99 0-14.65 6.215-15.32 14.205-2.66-1.776-5.99-2.664-9.32-2.664-9.54 0-17.31 7.769-17.31 17.312 0 9.544 7.77 17.312 17.31 17.312h133.17v-.222c6.88-1.554 11.99-7.768 11.99-15.314z" fill="url(#paint42_linear)"/><path d="M2758.24 299.929l-.36.981.99-.331c1.27-.424 2.77-.641 4.28-.641 8.16 0 14.82 6.657 14.82 14.815 0 7.315-4.95 13.325-11.6 14.826l-.39.088v.122h-132.67c-9.27 0-16.81-7.544-16.81-16.812 0-9.267 7.54-16.812 16.81-16.812 3.25 0 6.48.867 9.05 2.58l.7.47.07-.845c.65-7.735 7.09-13.746 14.82-13.746 2.14 0 4.07.428 6.01 1.289l1.12.499-.45-1.142c-.86-2.154-1.3-4.531-1.3-7.138 0-11.709 9.32-21.029 21.03-21.029s21.03 9.32 21.03 21.029v1.359l.66-.219c1.28-.427 2.55-.64 4.06-.64 7.3 0 13.54 5.157 15.04 12.254l.98-.021c1.3-7.742 8.18-13.565 16.38-13.565 9.27 0 16.81 7.544 16.81 16.812a16.4 16.4 0 01-1.08 5.817z" stroke="url(#paint43_linear)"/></g><defs><linearGradient id="paint11_linear" x1="2011.93" y1="379.485" x2="2164.23" y2="379.485" gradientUnits="userSpaceOnUse"><stop stop-color="#DEDDDD"/><stop offset="1" stop-color="#FDFDFD"/></linearGradient><linearGradient id="paint43_linear" x1="2615.82" y1="330.506" x2="2787.86" y2="330.506" gradientUnits="userSpaceOnUse"><stop stop-color="#DEDDDD"/><stop offset="1" stop-color="#FDFDFD"/></linearGradient><linearGradient id="paint42_linear" x1="2653.32" y1="357.398" x2="2762.74" y2="247.972" gradientUnits="userSpaceOnUse"><stop stop-color="#fff"/><stop offset=".391" stop-color="#EEEDEE"/><stop offset=".817" stop-color="#D7D6D6"/></linearGradient><linearGradient id="paint41_linear" x1="3564.51" y1="593.484" x2="3736.55" y2="593.484" gradientUnits="userSpaceOnUse"><stop stop-color="#DEDDDD"/><stop offset="1" stop-color="#FDFDFD"/></linearGradient><linearGradient id="paint40_linear" x1="3602" y1="620.376" x2="3711.43" y2="510.95" gradientUnits="userSpaceOnUse"><stop stop-color="#fff"/><stop offset=".391" stop-color="#EEEDEE"/><stop offset=".817" stop-color="#D7D6D6"/></linearGradient><linearGradient id="paint39_linear" x1="4340.82" y1="116.506" x2="4512.86" y2="116.506" gradientUnits="userSpaceOnUse"><stop stop-color="#DEDDDD"/><stop offset="1" stop-color="#FDFDFD"/></linearGradient><linearGradient id="paint38_linear" x1="4378.32" y1="143.398" x2="4487.74" y2="33.972" gradientUnits="userSpaceOnUse"><stop stop-color="#fff"/><stop offset=".391" stop-color="#EEEDEE"/><stop offset=".817" stop-color="#D7D6D6"/></linearGradient><linearGradient id="paint37_linear" x1="3689.55" y1="257.125" x2="3820.46" y2="257.125" gradientUnits="userSpaceOnUse"><stop stop-color="#DEDDDD"/><stop offset="1" stop-color="#FDFDFD"/></linearGradient><linearGradient id="paint36_linear" x1="3718.08" y1="278.428" x2="3804.69" y2="195.23" gradientUnits="userSpaceOnUse"><stop stop-color="#fff"/><stop offset=".391" stop-color="#EEEDEE"/><stop offset=".817" stop-color="#D7D6D6"/></linearGradient><linearGradient id="paint35_linear" x1="3176.4" y1="722.337" x2="3315.06" y2="722.337" gradientUnits="userSpaceOnUse"><stop stop-color="#DEDDDD"/><stop offset="1" stop-color="#FDFDFD"/></linearGradient><linearGradient id="paint34_linear" x1="3206.62" y1="749.717" x2="3315.06" y2="663.873" gradientUnits="userSpaceOnUse"><stop stop-color="#fff"/><stop offset=".391" stop-color="#EEEDEE"/><stop offset=".817" stop-color="#D7D6D6"/></linearGradient><linearGradient id="paint33_linear" x1="4328.62" y1="387.066" x2="4480.92" y2="387.066" gradientUnits="userSpaceOnUse"><stop stop-color="#DEDDDD"/><stop offset="1" stop-color="#FDFDFD"/></linearGradient><linearGradient id="paint32_linear" x1="4361.81" y1="417.122" x2="4480.86" y2="322.827" gradientUnits="userSpaceOnUse"><stop stop-color="#fff"/><stop offset=".391" stop-color="#EEEDEE"/><stop offset=".817" stop-color="#D7D6D6"/></linearGradient><linearGradient id="paint31_linear" x1="4001.9" y1="472.852" x2="4100.37" y2="472.852" gradientUnits="userSpaceOnUse"><stop stop-color="#DEDDDD"/><stop offset="1" stop-color="#FDFDFD"/></linearGradient><linearGradient id="paint30_linear" x1="4023.36" y1="488.809" x2="4088.25" y2="426.214" gradientUnits="userSpaceOnUse"><stop stop-color="#fff"/><stop offset=".391" stop-color="#EEEDEE"/><stop offset=".817" stop-color="#D7D6D6"/></linearGradient><linearGradient id="paint29_linear" x1="3243.17" y1="477.393" x2="3341.64" y2="477.393" gradientUnits="userSpaceOnUse"><stop stop-color="#DEDDDD"/><stop offset="1" stop-color="#FDFDFD"/></linearGradient><linearGradient id="paint28_linear" x1="3264.63" y1="493.349" x2="3329.52" y2="430.754" gradientUnits="userSpaceOnUse"><stop stop-color="#fff"/><stop offset=".391" stop-color="#EEEDEE"/><stop offset=".817" stop-color="#D7D6D6"/></linearGradient><linearGradient id="paint27_linear" x1="3041.81" y1="138.582" x2="3222.31" y2="138.582" gradientUnits="userSpaceOnUse"><stop stop-color="#DEDDDD"/><stop offset="1" stop-color="#FDFDFD"/></linearGradient><linearGradient id="paint26_linear" x1="3081.15" y1="167.903" x2="3200.38" y2="53.181" gradientUnits="userSpaceOnUse"><stop stop-color="#fff"/><stop offset=".391" stop-color="#EEEDEE"/><stop offset=".817" stop-color="#D7D6D6"/></linearGradient><linearGradient id="paint25_linear" x1="3024.33" y1="551.581" x2="2894.33" y2="551.581" gradientUnits="userSpaceOnUse"><stop stop-color="#FEFEFE"/><stop offset="1" stop-color="#D8D7D6"/></linearGradient><linearGradient id="paint24_linear" x1="2893.78" y1="514.303" x2="3024.29" y2="515.295" gradientUnits="userSpaceOnUse"><stop stop-color="#fff"/><stop offset=".308" stop-color="#F7F7F7"/><stop offset=".718" stop-color="#E2E2E2"/><stop offset=".903" stop-color="#D7D6D6"/></linearGradient><linearGradient id="paint23_linear" x1="2779.33" y1="570.581" x2="2980.33" y2="570.581" gradientUnits="userSpaceOnUse"><stop stop-color="#DCDBDB"/><stop offset="1" stop-color="#FDFDFC"/></linearGradient><linearGradient id="paint0_linear" x1="506.333" y1="596.213" x2="640.253" y2="462.293" gradientUnits="userSpaceOnUse"><stop stop-color="#fff"/><stop offset=".391" stop-color="#EEEDEE"/><stop offset=".817" stop-color="#D7D6D6"/></linearGradient><linearGradient id="paint1_linear" x1="462.641" y1="563" x2="663.641" y2="563" gradientUnits="userSpaceOnUse"><stop stop-color="#DCDBDB"/><stop offset="1" stop-color="#FDFDFC"/></linearGradient><linearGradient id="paint2_linear" x1="577.098" y1="506.722" x2="707.606" y2="507.714" gradientUnits="userSpaceOnUse"><stop stop-color="#fff"/><stop offset=".308" stop-color="#F7F7F7"/><stop offset=".718" stop-color="#E2E2E2"/><stop offset=".903" stop-color="#D7D6D6"/></linearGradient><linearGradient id="paint3_linear" x1="707.641" y1="544" x2="577.641" y2="544" gradientUnits="userSpaceOnUse"><stop stop-color="#FEFEFE"/><stop offset="1" stop-color="#D8D7D6"/></linearGradient><linearGradient id="paint4_linear" x1="721.976" y1="138.322" x2="841.202" y2="23.599" gradientUnits="userSpaceOnUse"><stop stop-color="#fff"/><stop offset=".391" stop-color="#EEEDEE"/><stop offset=".817" stop-color="#D7D6D6"/></linearGradient><linearGradient id="paint5_linear" x1="682.641" y1="109" x2="863.141" y2="109" gradientUnits="userSpaceOnUse"><stop stop-color="#DEDDDD"/><stop offset="1" stop-color="#FDFDFD"/></linearGradient><linearGradient id="paint6_linear" x1="947.94" y1="485.768" x2="1012.83" y2="423.173" gradientUnits="userSpaceOnUse"><stop stop-color="#fff"/><stop offset=".391" stop-color="#EEEDEE"/><stop offset=".817" stop-color="#D7D6D6"/></linearGradient><linearGradient id="paint7_linear" x1="926.48" y1="469.812" x2="1024.96" y2="469.812" gradientUnits="userSpaceOnUse"><stop stop-color="#DEDDDD"/><stop offset="1" stop-color="#FDFDFD"/></linearGradient><linearGradient id="paint8_linear" x1="1762.36" y1="507.809" x2="1827.25" y2="445.214" gradientUnits="userSpaceOnUse"><stop stop-color="#fff"/><stop offset=".391" stop-color="#EEEDEE"/><stop offset=".817" stop-color="#D7D6D6"/></linearGradient><linearGradient id="paint9_linear" x1="1740.9" y1="491.852" x2="1839.37" y2="491.852" gradientUnits="userSpaceOnUse"><stop stop-color="#DEDDDD"/><stop offset="1" stop-color="#FDFDFD"/></linearGradient><linearGradient id="paint10_linear" x1="2045.12" y1="409.541" x2="2164.17" y2="315.246" gradientUnits="userSpaceOnUse"><stop stop-color="#fff"/><stop offset=".391" stop-color="#EEEDEE"/><stop offset=".817" stop-color="#D7D6D6"/></linearGradient><linearGradient id="paint22_linear" x1="2823.02" y1="603.794" x2="2956.94" y2="469.874" gradientUnits="userSpaceOnUse"><stop stop-color="#fff"/><stop offset=".391" stop-color="#EEEDEE"/><stop offset=".817" stop-color="#D7D6D6"/></linearGradient><linearGradient id="paint12_linear" x1="889.932" y1="742.136" x2="998.372" y2="656.292" gradientUnits="userSpaceOnUse"><stop stop-color="#fff"/><stop offset=".391" stop-color="#EEEDEE"/><stop offset=".817" stop-color="#D7D6D6"/></linearGradient><linearGradient id="paint13_linear" x1="859.713" y1="714.756" x2="998.378" y2="714.756" gradientUnits="userSpaceOnUse"><stop stop-color="#DEDDDD"/><stop offset="1" stop-color="#FDFDFD"/></linearGradient><linearGradient id="paint14_linear" x1="1499.39" y1="318.847" x2="1586.01" y2="235.649" gradientUnits="userSpaceOnUse"><stop stop-color="#fff"/><stop offset=".391" stop-color="#EEEDEE"/><stop offset=".817" stop-color="#D7D6D6"/></linearGradient><linearGradient id="paint15_linear" x1="1470.87" y1="297.544" x2="1601.77" y2="297.544" gradientUnits="userSpaceOnUse"><stop stop-color="#DEDDDD"/><stop offset="1" stop-color="#FDFDFD"/></linearGradient><linearGradient id="paint16_linear" x1="2061.63" y1="135.817" x2="2171.05" y2="26.391" gradientUnits="userSpaceOnUse"><stop stop-color="#fff"/><stop offset=".391" stop-color="#EEEDEE"/><stop offset=".817" stop-color="#D7D6D6"/></linearGradient><linearGradient id="paint17_linear" x1="2024.14" y1="108.925" x2="2196.18" y2="108.925" gradientUnits="userSpaceOnUse"><stop stop-color="#DEDDDD"/><stop offset="1" stop-color="#FDFDFD"/></linearGradient><linearGradient id="paint18_linear" x1="1263.32" y1="599.795" x2="1372.74" y2="490.369" gradientUnits="userSpaceOnUse"><stop stop-color="#fff"/><stop offset=".391" stop-color="#EEEDEE"/><stop offset=".817" stop-color="#D7D6D6"/></linearGradient><linearGradient id="paint19_linear" x1="1225.82" y1="572.903" x2="1397.86" y2="572.903" gradientUnits="userSpaceOnUse"><stop stop-color="#DEDDDD"/><stop offset="1" stop-color="#FDFDFD"/></linearGradient><linearGradient id="paint20_linear" x1="336.629" y1="349.817" x2="446.054" y2="240.391" gradientUnits="userSpaceOnUse"><stop stop-color="#fff"/><stop offset=".391" stop-color="#EEEDEE"/><stop offset=".817" stop-color="#D7D6D6"/></linearGradient><linearGradient id="paint21_linear" x1="299.137" y1="322.925" x2="471.176" y2="322.925" gradientUnits="userSpaceOnUse"><stop stop-color="#DEDDDD"/><stop offset="1" stop-color="#FDFDFD"/></linearGradient><filter id="filter11_d" x="2758.41" y="469.755" width="228.864" height="119.888" filterUnits="userSpaceOnUse" color-interpolation-filters="sRGB"><feFlood flood-opacity="0" result="BackgroundImageFix"/><feColorMatrix in="SourceAlpha" values="0 0 0 0 0 0 0 0 0 0 0 0 0 0 0 0 0 0 127 0"/><feOffset dx="-4" dy="4"/><feGaussianBlur stdDeviation="7.5"/><feColorMatrix values="0 0 0 0 0 0 0 0 0 0 0 0 0 0 0 0 0 0 0.25 0"/><feBlend in2="BackgroundImageFix" result="effect1_dropShadow"/><feBlend in="SourceGraphic" in2="effect1_dropShadow" result="shape"/></filter><filter id="filter1_d" x="558.686" y="459.281" width="159.839" height="104.137" filterUnits="userSpaceOnUse" color-interpolation-filters="sRGB"><feFlood flood-opacity="0" result="BackgroundImageFix"/><feColorMatrix in="SourceAlpha" values="0 0 0 0 0 0 0 0 0 0 0 0 0 0 0 0 0 0 127 0"/><feOffset dx="-4" dy="4"/><feGaussianBlur stdDeviation="7.5"/><feColorMatrix values="0 0 0 0 0 0 0 0 0 0 0 0 0 0 0 0 0 0 0.25 0"/><feBlend in2="BackgroundImageFix" result="effect1_dropShadow"/><feBlend in="SourceGraphic" in2="effect1_dropShadow" result="shape"/></filter><filter id="filter20_d" x="3545.69" y="508.581" width="192.465" height="103.686" filterUnits="userSpaceOnUse" color-interpolation-filters="sRGB"><feFlood flood-opacity="0" result="BackgroundImageFix"/><feColorMatrix in="SourceAlpha" values="0 0 0 0 0 0 0 0 0 0 0 0 0 0 0 0 0 0 127 0"/><feOffset dx="-4" dy="4"/><feGaussianBlur stdDeviation="7.5"/><feColorMatrix values="0 0 0 0 0 0 0 0 0 0 0 0 0 0 0 0 0 0 0.25 0"/><feBlend in2="BackgroundImageFix" result="effect1_dropShadow"/><feBlend in="SourceGraphic" in2="effect1_dropShadow" result="shape"/></filter><filter id="filter19_d" x="4322" y="31.603" width="192.465" height="103.686" filterUnits="userSpaceOnUse" color-interpolation-filters="sRGB"><feFlood flood-opacity="0" result="BackgroundImageFix"/><feColorMatrix in="SourceAlpha" values="0 0 0 0 0 0 0 0 0 0 0 0 0 0 0 0 0 0 127 0"/><feOffset dx="-4" dy="4"/><feGaussianBlur stdDeviation="7.5"/><feColorMatrix values="0 0 0 0 0 0 0 0 0 0 0 0 0 0 0 0 0 0 0.25 0"/><feBlend in2="BackgroundImageFix" result="effect1_dropShadow"/><feBlend in="SourceGraphic" in2="effect1_dropShadow" result="shape"/></filter><filter id="filter18_d" x="3670.69" y="187.581" width="153.624" height="88.372" filterUnits="userSpaceOnUse" color-interpolation-filters="sRGB"><feFlood flood-opacity="0" result="BackgroundImageFix"/><feColorMatrix in="SourceAlpha" values="0 0 0 0 0 0 0 0 0 0 0 0 0 0 0 0 0 0 127 0"/><feOffset dx="-4" dy="4"/><feGaussianBlur stdDeviation="7.5"/><feColorMatrix values="0 0 0 0 0 0 0 0 0 0 0 0 0 0 0 0 0 0 0.25 0"/><feBlend in2="BackgroundImageFix" result="effect1_dropShadow"/><feBlend in="SourceGraphic" in2="effect1_dropShadow" result="shape"/></filter><filter id="filter17_d" x="3157.54" y="636.091" width="160.949" height="105.025" filterUnits="userSpaceOnUse" color-interpolation-filters="sRGB"><feFlood flood-opacity="0" result="BackgroundImageFix"/><feColorMatrix in="SourceAlpha" values="0 0 0 0 0 0 0 0 0 0 0 0 0 0 0 0 0 0 127 0"/><feOffset dx="-4" dy="4"/><feGaussianBlur stdDeviation="7.5"/><feColorMatrix values="0 0 0 0 0 0 0 0 0 0 0 0 0 0 0 0 0 0 0.25 0"/><feBlend in2="BackgroundImageFix" result="effect1_dropShadow"/><feBlend in="SourceGraphic" in2="effect1_dropShadow" result="shape"/></filter><filter id="filter16_d" x="4309.78" y="293.468" width="173.821" height="112.356" filterUnits="userSpaceOnUse" color-interpolation-filters="sRGB"><feFlood flood-opacity="0" result="BackgroundImageFix"/><feColorMatrix in="SourceAlpha" values="0 0 0 0 0 0 0 0 0 0 0 0 0 0 0 0 0 0 127 0"/><feOffset dx="-4" dy="4"/><feGaussianBlur stdDeviation="7.5"/><feColorMatrix values="0 0 0 0 0 0 0 0 0 0 0 0 0 0 0 0 0 0 0.25 0"/><feBlend in2="BackgroundImageFix" result="effect1_dropShadow"/><feBlend in="SourceGraphic" in2="effect1_dropShadow" result="shape"/></filter><filter id="filter15_d" x="3983" y="418" width="122.996" height="73.724" filterUnits="userSpaceOnUse" color-interpolation-filters="sRGB"><feFlood flood-opacity="0" result="BackgroundImageFix"/><feColorMatrix in="SourceAlpha" values="0 0 0 0 0 0 0 0 0 0 0 0 0 0 0 0 0 0 127 0"/><feOffset dx="-4" dy="4"/><feGaussianBlur stdDeviation="7.5"/><feColorMatrix values="0 0 0 0 0 0 0 0 0 0 0 0 0 0 0 0 0 0 0.25 0"/><feBlend in2="BackgroundImageFix" result="effect1_dropShadow"/><feBlend in="SourceGraphic" in2="effect1_dropShadow" result="shape"/></filter><filter id="filter14_d" x="3224.27" y="422.54" width="122.996" height="73.724" filterUnits="userSpaceOnUse" color-interpolation-filters="sRGB"><feFlood flood-opacity="0" result="BackgroundImageFix"/><feColorMatrix in="SourceAlpha" values="0 0 0 0 0 0 0 0 0 0 0 0 0 0 0 0 0 0 127 0"/><feOffset dx="-4" dy="4"/><feGaussianBlur stdDeviation="7.5"/><feColorMatrix values="0 0 0 0 0 0 0 0 0 0 0 0 0 0 0 0 0 0 0.25 0"/><feBlend in2="BackgroundImageFix" result="effect1_dropShadow"/><feBlend in="SourceGraphic" in2="effect1_dropShadow" result="shape"/></filter><filter id="filter13_d" x="3023" y="47" width="200.455" height="110.345" filterUnits="userSpaceOnUse" color-interpolation-filters="sRGB"><feFlood flood-opacity="0" result="BackgroundImageFix"/><feColorMatrix in="SourceAlpha" values="0 0 0 0 0 0 0 0 0 0 0 0 0 0 0 0 0 0 127 0"/><feOffset dx="-4" dy="4"/><feGaussianBlur stdDeviation="7.5"/><feColorMatrix values="0 0 0 0 0 0 0 0 0 0 0 0 0 0 0 0 0 0 0.25 0"/><feBlend in2="BackgroundImageFix" result="effect1_dropShadow"/><feBlend in="SourceGraphic" in2="effect1_dropShadow" result="shape"/></filter><filter id="filter12_d" x="2875.37" y="466.862" width="159.839" height="104.137" filterUnits="userSpaceOnUse" color-interpolation-filters="sRGB"><feFlood flood-opacity="0" result="BackgroundImageFix"/><feColorMatrix in="SourceAlpha" values="0 0 0 0 0 0 0 0 0 0 0 0 0 0 0 0 0 0 127 0"/><feOffset dx="-4" dy="4"/><feGaussianBlur stdDeviation="7.5"/><feColorMatrix values="0 0 0 0 0 0 0 0 0 0 0 0 0 0 0 0 0 0 0.25 0"/><feBlend in2="BackgroundImageFix" result="effect1_dropShadow"/><feBlend in="SourceGraphic" in2="effect1_dropShadow" result="shape"/></filter><filter id="filter21_d" x="2597" y="245.603" width="192.465" height="103.686" filterUnits="userSpaceOnUse" color-interpolation-filters="sRGB"><feFlood flood-opacity="0" result="BackgroundImageFix"/><feColorMatrix in="SourceAlpha" values="0 0 0 0 0 0 0 0 0 0 0 0 0 0 0 0 0 0 127 0"/><feOffset dx="-4" dy="4"/><feGaussianBlur stdDeviation="7.5"/><feColorMatrix values="0 0 0 0 0 0 0 0 0 0 0 0 0 0 0 0 0 0 0.25 0"/><feBlend in2="BackgroundImageFix" result="effect1_dropShadow"/><feBlend in="SourceGraphic" in2="effect1_dropShadow" result="shape"/></filter><filter id="filter10_d" x="280.313" y="238.022" width="192.465" height="103.686" filterUnits="userSpaceOnUse" color-interpolation-filters="sRGB"><feFlood flood-opacity="0" result="BackgroundImageFix"/><feColorMatrix in="SourceAlpha" values="0 0 0 0 0 0 0 0 0 0 0 0 0 0 0 0 0 0 127 0"/><feOffset dx="-4" dy="4"/><feGaussianBlur stdDeviation="7.5"/><feColorMatrix values="0 0 0 0 0 0 0 0 0 0 0 0 0 0 0 0 0 0 0.25 0"/><feBlend in2="BackgroundImageFix" result="effect1_dropShadow"/><feBlend in="SourceGraphic" in2="effect1_dropShadow" result="shape"/></filter><filter id="filter9_d" x="1207" y="488" width="192.465" height="103.686" filterUnits="userSpaceOnUse" color-interpolation-filters="sRGB"><feFlood flood-opacity="0" result="BackgroundImageFix"/><feColorMatrix in="SourceAlpha" values="0 0 0 0 0 0 0 0 0 0 0 0 0 0 0 0 0 0 127 0"/><feOffset dx="-4" dy="4"/><feGaussianBlur stdDeviation="7.5"/><feColorMatrix values="0 0 0 0 0 0 0 0 0 0 0 0 0 0 0 0 0 0 0.25 0"/><feBlend in2="BackgroundImageFix" result="effect1_dropShadow"/><feBlend in="SourceGraphic" in2="effect1_dropShadow" result="shape"/></filter><filter id="filter8_d" x="2005.31" y="24.022" width="192.465" height="103.686" filterUnits="userSpaceOnUse" color-interpolation-filters="sRGB"><feFlood flood-opacity="0" result="BackgroundImageFix"/><feColorMatrix in="SourceAlpha" values="0 0 0 0 0 0 0 0 0 0 0 0 0 0 0 0 0 0 127 0"/><feOffset dx="-4" dy="4"/><feGaussianBlur stdDeviation="7.5"/><feColorMatrix values="0 0 0 0 0 0 0 0 0 0 0 0 0 0 0 0 0 0 0.25 0"/><feBlend in2="BackgroundImageFix" result="effect1_dropShadow"/><feBlend in="SourceGraphic" in2="effect1_dropShadow" result="shape"/></filter><filter id="filter7_d" x="1452" y="228" width="153.624" height="88.372" filterUnits="userSpaceOnUse" color-interpolation-filters="sRGB"><feFlood flood-opacity="0" result="BackgroundImageFix"/><feColorMatrix in="SourceAlpha" values="0 0 0 0 0 0 0 0 0 0 0 0 0 0 0 0 0 0 127 0"/><feOffset dx="-4" dy="4"/><feGaussianBlur stdDeviation="7.5"/><feColorMatrix values="0 0 0 0 0 0 0 0 0 0 0 0 0 0 0 0 0 0 0.25 0"/><feBlend in2="BackgroundImageFix" result="effect1_dropShadow"/><feBlend in="SourceGraphic" in2="effect1_dropShadow" result="shape"/></filter><filter id="filter6_d" x="840.855" y="628.51" width="160.949" height="105.025" filterUnits="userSpaceOnUse" color-interpolation-filters="sRGB"><feFlood flood-opacity="0" result="BackgroundImageFix"/><feColorMatrix in="SourceAlpha" values="0 0 0 0 0 0 0 0 0 0 0 0 0 0 0 0 0 0 127 0"/><feOffset dx="-4" dy="4"/><feGaussianBlur stdDeviation="7.5"/><feColorMatrix values="0 0 0 0 0 0 0 0 0 0 0 0 0 0 0 0 0 0 0.25 0"/><feBlend in2="BackgroundImageFix" result="effect1_dropShadow"/><feBlend in="SourceGraphic" in2="effect1_dropShadow" result="shape"/></filter><filter id="filter5_d" x="1993.09" y="285.887" width="173.821" height="112.356" filterUnits="userSpaceOnUse" color-interpolation-filters="sRGB"><feFlood flood-opacity="0" result="BackgroundImageFix"/><feColorMatrix in="SourceAlpha" values="0 0 0 0 0 0 0 0 0 0 0 0 0 0 0 0 0 0 127 0"/><feOffset dx="-4" dy="4"/><feGaussianBlur stdDeviation="7.5"/><feColorMatrix values="0 0 0 0 0 0 0 0 0 0 0 0 0 0 0 0 0 0 0.25 0"/><feBlend in2="BackgroundImageFix" result="effect1_dropShadow"/><feBlend in="SourceGraphic" in2="effect1_dropShadow" result="shape"/></filter><filter id="filter4_d" x="1722" y="437" width="122.996" height="73.724" filterUnits="userSpaceOnUse" color-interpolation-filters="sRGB"><feFlood flood-opacity="0" result="BackgroundImageFix"/><feColorMatrix in="SourceAlpha" values="0 0 0 0 0 0 0 0 0 0 0 0 0 0 0 0 0 0 127 0"/><feOffset dx="-4" dy="4"/><feGaussianBlur stdDeviation="7.5"/><feColorMatrix values="0 0 0 0 0 0 0 0 0 0 0 0 0 0 0 0 0 0 0.25 0"/><feBlend in2="BackgroundImageFix" result="effect1_dropShadow"/><feBlend in="SourceGraphic" in2="effect1_dropShadow" result="shape"/></filter><filter id="filter3_d" x="907.581" y="414.959" width="122.996" height="73.724" filterUnits="userSpaceOnUse" color-interpolation-filters="sRGB"><feFlood flood-opacity="0" result="BackgroundImageFix"/><feColorMatrix in="SourceAlpha" values="0 0 0 0 0 0 0 0 0 0 0 0 0 0 0 0 0 0 127 0"/><feOffset dx="-4" dy="4"/><feGaussianBlur stdDeviation="7.5"/><feColorMatrix values="0 0 0 0 0 0 0 0 0 0 0 0 0 0 0 0 0 0 0.25 0"/><feBlend in2="BackgroundImageFix" result="effect1_dropShadow"/><feBlend in="SourceGraphic" in2="effect1_dropShadow" result="shape"/></filter><filter id="filter2_d" x="663.826" y="17.419" width="200.455" height="110.345" filterUnits="userSpaceOnUse" color-interpolation-filters="sRGB"><feFlood flood-opacity="0" result="BackgroundImageFix"/><feColorMatrix in="SourceAlpha" values="0 0 0 0 0 0 0 0 0 0 0 0 0 0 0 0 0 0 127 0"/><feOffset dx="-4" dy="4"/><feGaussianBlur stdDeviation="7.5"/><feColorMatrix values="0 0 0 0 0 0 0 0 0 0 0 0 0 0 0 0 0 0 0.25 0"/><feBlend in2="BackgroundImageFix" result="effect1_dropShadow"/><feBlend in="SourceGraphic" in2="effect1_dropShadow" result="shape"/></filter><filter id="filter0_d" x="441.719" y="462.174" width="228.864" height="119.888" filterUnits="userSpaceOnUse" color-interpolation-filters="sRGB"><feFlood flood-opacity="0" result="BackgroundImageFix"/><feColorMatrix in="SourceAlpha" values="0 0 0 0 0 0 0 0 0 0 0 0 0 0 0 0 0 0 127 0"/><feOffset dx="-4" dy="4"/><feGaussianBlur stdDeviation="7.5"/><feColorMatrix values="0 0 0 0 0 0 0 0 0 0 0 0 0 0 0 0 0 0 0.25 0"/><feBlend in2="BackgroundImageFix" result="effect1_dropShadow"/><feBlend in="SourceGraphic" in2="effect1_dropShadow" result="shape"/></filter></defs></svg>