<svg width="2681" height="387" viewBox="0 0 2681 387" fill="none" xmlns="http://www.w3.org/2000/svg"><path fill-rule="evenodd" clip-rule="evenodd" d="M1696.69 169.534c-19.38-11.731-44.6-5.531-56.33 13.848l-4.38 7.233-7.23-4.377c-19.38-11.732-44.6-5.532-56.33 13.847-11.73 19.38-5.53 44.6 13.85 56.332l77.19 46.732.14-.216.21.129 46.73-77.196c11.73-19.38 5.53-44.6-13.85-56.332zm445.3 34.043c-7.44-7.436-19.5-7.436-26.93 0l-2.78 2.776-2.77-2.776c-7.44-7.436-19.5-7.436-26.93 0-7.44 7.437-7.44 19.493 0 26.93l29.62 29.622.08-.083.08.083 29.63-29.622c7.43-7.437 7.43-19.493 0-26.93zm-713.58 138.671c-3.86-7.442-13.02-10.345-20.47-6.484l-2.81 1.458-1.46-2.81c-3.86-7.442-13.02-10.345-20.46-6.484-7.44 3.862-10.35 13.025-6.49 20.467l15.38 29.646.12-.059.06.115 29.65-15.382c7.44-3.861 10.34-13.025 6.48-20.467zm1242.39-80.904c-12.42-12.423-32.56-12.423-44.99 0l-4.69 4.692-4.69-4.691c-12.42-12.424-32.56-12.424-44.99 0-12.42 12.423-12.42 32.565 0 44.989l49.49 49.487.19-.193.2.192 49.48-49.487c12.43-12.424 12.43-32.566 0-44.989zm-2335.659-71.81c-19.379-11.731-44.599-5.531-56.331 13.848l-4.379 7.233-7.23-4.377c-19.38-11.732-44.6-5.532-56.331 13.847-11.732 19.38-5.532 44.6 13.847 56.332l77.197 46.732.13-.216.213.129 46.732-77.196c11.731-19.38 5.532-44.6-13.848-56.332zm413.846 33.043c-7.436-7.436-19.493-7.436-26.929 0l-2.776 2.776-2.775-2.776c-7.437-7.436-19.493-7.436-26.93 0-7.436 7.437-7.436 19.493 0 26.93l29.623 29.622.082-.083.083.083 29.622-29.622c7.436-7.437 7.436-19.493 0-26.93zM63.058 342.248c-3.862-7.442-13.025-10.345-20.467-6.484l-2.81 1.458-1.459-2.81c-3.861-7.442-13.025-10.345-20.467-6.484-7.442 3.862-10.345 13.025-6.484 20.467l15.382 29.646.115-.059.06.115 29.646-15.382c7.442-3.861 10.345-13.024 6.484-20.467zm1242.392-80.904c-12.42-12.423-32.57-12.423-44.99 0l-4.69 4.692-4.69-4.691c-12.42-12.424-32.57-12.424-44.99 0-12.42 12.423-12.42 32.565 0 44.989l49.49 49.487.19-.193.19.192 49.49-49.487c12.42-12.424 12.42-32.566 0-44.989z" fill="#E32E30"/><g filter="url(#filter0_d)"><path d="M1702.01 296.375c0-6.984-6.15-12.483-13.6-12.483-1.45 0-2.75.149-3.88.594.65-1.486.97-3.12.97-4.904 0-7.876-6.96-14.118-15.38-14.118-7.6 0-13.75 4.905-15.05 11.443-1.29-5.944-7.12-10.402-13.91-10.402-1.3 0-2.59.148-3.73.446v-.446c0-9.809-8.57-17.685-19.26-17.685-10.68 0-19.25 7.876-19.25 17.685 0 2.08.48 4.161 1.13 5.944-1.78-.743-3.56-1.04-5.67-1.04-7.28 0-13.1 5.053-13.59 11.591-2.43-1.486-5.34-2.229-8.42-2.229-8.57 0-15.37 6.39-15.37 14.118 0 7.876 6.96 14.118 15.37 14.118h118.79v-.297c6.15-1.338 10.85-6.242 10.85-12.335z" fill="url(#paint0_linear)"/><path d="M1684.07 284.287l-.48 1.107 1.12-.442c1.05-.413 2.27-.56 3.7-.56 7.22 0 13.1 5.318 13.1 11.983 0 5.812-4.48 10.548-10.45 11.846l-.4.086v.2h-118.29c-8.18 0-14.87-6.06-14.87-13.618 0-7.415 6.54-13.618 14.87-13.618 3 0 5.82.724 8.16 2.156l.7.428.06-.818c.46-6.242 6.04-11.128 13.09-11.128 2.06 0 3.77.289 5.48 1.001l1.05.439-.39-1.071c-.63-1.745-1.1-3.767-1.1-5.773 0-9.493 8.31-17.185 18.75-17.185 10.45 0 18.76 7.692 18.76 17.185v1.094l.63-.165c1.09-.285 2.34-.429 3.6-.429 6.59 0 12.19 4.321 13.43 10.009l.97-.01c1.25-6.279 7.17-11.04 14.56-11.04 8.19 0 14.88 6.061 14.88 13.618 0 1.722-.31 3.288-.93 4.705z" stroke="url(#paint1_linear)"/></g><g filter="url(#filter1_d)"><path d="M1736.96 288.499c0-3.567-2.75-6.39-6.31-7.133 1.78-1.189 2.92-2.973 2.92-5.053 0-3.418-3.08-6.242-6.8-6.093-1.78 0-3.56.743-4.69 1.783-.65-2.229-2.92-3.864-5.51-3.864a7.65 7.65 0 00.49-2.675c0-4.161-3.72-7.579-8.26-7.43-2.26 0-4.37.891-5.82 2.378-.81-2.081-2.59-3.567-5.02-4.013.16-.594.32-1.337.32-2.081 0-4.161-3.72-7.579-8.25-7.43-3.24 0-5.82 1.635-7.28 4.161a7.425 7.425 0 00-4.69-1.635c-3.89 0-7.13 2.973-6.96 6.539 0 .743.16 1.635.48 2.378h-.48c-2.11 0-4.05 1.189-5.02 2.675-1.13-2.081-3.4-3.567-6.15-3.567-3.72 0-6.8 2.824-6.64 6.242 0 .594.17 1.04.33 1.635-.81-.149-1.62-.298-2.59-.298-4.86 0-8.58 3.567-8.58 8.025 0 2.527 1.3 4.607 3.24 6.093-2.11.892-3.4 2.824-3.4 5.053 0 3.121 2.75 5.647 6.15 5.499v.148c0 3.716 3.4 6.688 7.44 6.688l74.93-.595v-.148c3.24-.595 6.15-3.715 6.15-7.282z" fill="url(#paint2_linear)"/><path d="M1730.37 280.95l-.99.662 1.17.243c3.38.705 5.91 3.36 5.91 6.644 0 3.306-2.72 6.236-5.74 6.79l-.41.075v.069l-74.43.591s0 0 0 0c-3.82-.001-6.94-2.802-6.94-6.188v-.671l-.52.023c-3.15.138-5.63-2.191-5.63-4.999 0-2.023 1.17-3.777 3.09-4.592l.79-.336-.68-.522c-1.85-1.414-3.04-3.358-3.04-5.696 0-4.154 3.47-7.525 8.08-7.525.92 0 1.69.14 2.5.289l.78.144-.21-.767a8.904 8.904 0 00-.09-.318c-.13-.451-.22-.768-.22-1.185v-.024c-.14-3.078 2.64-5.718 6.14-5.718 2.56 0 4.66 1.383 5.71 3.306l.4.735.46-.701c.88-1.351 2.67-2.448 4.6-2.448h1.24l-.3-.7a5.814 5.814 0 01-.44-2.178v-.022c-.15-3.229 2.8-6.017 6.46-6.017 1.66 0 3.17.555 4.38 1.525l.45.365.29-.505c1.37-2.376 3.8-3.911 6.85-3.911h.02c4.28-.141 7.73 3.083 7.73 6.93 0 .678-.14 1.37-.3 1.95l-.14.525.53.098c2.27.416 3.9 1.79 4.64 3.702l.28.722.55-.553c1.35-1.387 3.33-2.228 5.46-2.228h.01l.01-.001c4.28-.14 7.74 3.084 7.74 6.931 0 .83-.15 1.664-.46 2.505l-.24.67h.71c2.39 0 4.45 1.51 5.03 3.504l.22.773.59-.545c1.04-.956 2.7-1.651 4.36-1.651h.01l.01-.001c3.47-.138 6.28 2.489 6.28 5.594 0 1.882-1.03 3.522-2.7 4.637z" stroke="url(#paint3_linear)"/></g><g filter="url(#filter2_d)"><mask id="a" fill="#fff"><path d="M1943.22 174.064c0-1.783-1.3-3.269-3.08-3.715 0-.148-.16-.148-.16-.297.16-.446.32-.892.32-1.338 0-.891-.48-1.783-1.13-2.377.65-.743 1.13-1.784 1.13-2.824 0-2.526-2.1-4.458-4.85-4.458-1.46 0-2.59.594-3.56 1.337-.49-1.04-1.62-1.932-2.91-1.932-.98 0-1.95.446-2.59 1.189-.49-1.189-1.62-1.932-2.92-1.932v-.594c0-1.932-1.62-3.418-3.72-3.418-.65 0-1.13.148-1.62.297v-.149c0-2.229-1.94-3.863-4.37-3.863-1.29 0-2.59.594-3.23 1.486-.98-1.635-2.92-2.675-5.02-2.675-3.08 0-5.67 2.377-5.67 5.201v.297c-.32 0-.48-.148-.8-.148-.98 0-1.95.445-2.43 1.189-.97-1.338-2.75-2.23-4.7-2.23-3.07 0-5.66 2.378-5.66 5.202v.594c-1.94.149-3.4 1.486-3.72 3.27-.49-.149-.97-.298-1.46-.298-2.1 0-3.72 1.486-3.72 3.418 0 1.189.65 2.081 1.46 2.824-2.11.743-3.4 2.675-3.4 4.756 0 2.823 2.59 5.201 5.66 5.201h58.42c2.27-.446 3.73-2.081 3.73-4.013z"/></mask><path d="M1943.22 174.064c0-1.783-1.3-3.269-3.08-3.715 0-.148-.16-.148-.16-.297.16-.446.32-.892.32-1.338 0-.891-.48-1.783-1.13-2.377.65-.743 1.13-1.784 1.13-2.824 0-2.526-2.1-4.458-4.85-4.458-1.46 0-2.59.594-3.56 1.337-.49-1.04-1.62-1.932-2.91-1.932-.98 0-1.95.446-2.59 1.189-.49-1.189-1.62-1.932-2.92-1.932v-.594c0-1.932-1.62-3.418-3.72-3.418-.65 0-1.13.148-1.62.297v-.149c0-2.229-1.94-3.863-4.37-3.863-1.29 0-2.59.594-3.23 1.486-.98-1.635-2.92-2.675-5.02-2.675-3.08 0-5.67 2.377-5.67 5.201v.297c-.32 0-.48-.148-.8-.148-.98 0-1.95.445-2.43 1.189-.97-1.338-2.75-2.23-4.7-2.23-3.07 0-5.66 2.378-5.66 5.202v.594c-1.94.149-3.4 1.486-3.72 3.27-.49-.149-.97-.298-1.46-.298-2.1 0-3.72 1.486-3.72 3.418 0 1.189.65 2.081 1.46 2.824-2.11.743-3.4 2.675-3.4 4.756 0 2.823 2.59 5.201 5.66 5.201h58.42c2.27-.446 3.73-2.081 3.73-4.013z" fill="url(#paint4_linear)"/><path d="M1940.14 170.349h-1v.781l.76.189.24-.97zm-.16-.297l-.94-.341-.06.165v.176h1zm-.81-3.715l-.75-.657-.64.734.71.659.68-.736zm-7.28-5.945l-.91.423.53 1.127.99-.756-.61-.794zm-5.5-.743l-.93.378.61 1.503 1.07-1.224-.75-.657zm-2.92-1.932h-1v1h1v-1zm-5.34-3.715h-1v1.352l1.3-.396-.3-.956zm-7.6-2.526l-.86.51.77 1.307.9-1.23-.81-.587zm-10.69 2.823v1h1v-1h-1zm-3.23 1.041l-.81.587.85 1.174.79-1.215-.83-.546zm-10.36 3.566l.08.997.92-.07v-.927h-1zm-3.72 3.27l-.29.956 1.07.329.2-1.107-.98-.178zm-3.72 5.944l.33.943 1.57-.554-1.23-1.126-.67.737zm60.68 9.957v1h.1l.1-.019-.2-.981zm4.73-4.013c0-2.301-1.67-4.143-3.83-4.685l-.49 1.94c1.4.35 2.32 1.48 2.32 2.745h2zm-3.08-3.715c0-.111-.01-.226-.05-.341a.872.872 0 00-.14-.294 1 1 0 00-.14-.178c-.03-.036-.07-.066-.07-.072-.02-.013 0-.001.01.015.02.02.06.058.09.114a.65.65 0 01.1.217c.03.085.04.168.04.242h-2c0 .111.02.226.05.341.04.115.09.213.14.294a1 1 0 00.14.178c.04.036.07.066.07.072.02.013.01.001-.01-.015-.02-.02-.05-.058-.09-.114a.64.64 0 01-.1-.217.725.725 0 01-.04-.242h2zm-.22.044c.15-.408.38-1.025.38-1.679h-2c0 .238-.08.514-.26.997l1.88.682zm.38-1.679c0-1.234-.65-2.377-1.45-3.114l-1.36 1.473c.5.453.81 1.093.81 1.641h2zm-1.37-1.72c.76-.882 1.37-2.147 1.37-3.481h-2c0 .747-.36 1.563-.88 2.167l1.51 1.314zm1.37-3.481c0-3.157-2.63-5.458-5.85-5.458v2c2.28 0 3.85 1.563 3.85 3.458h2zm-5.85-5.458c-1.76 0-3.1.726-4.17 1.543l1.22 1.588c.87-.669 1.79-1.131 2.95-1.131v-2zm-2.66 1.914c-.62-1.33-2.07-2.509-3.81-2.509v2c.84 0 1.65.605 2 1.355l1.81-.846zm-3.81-2.509c-1.27 0-2.51.575-3.35 1.532l1.51 1.314a2.495 2.495 0 011.84-.846v-2zm-1.67 1.811c-.64-1.576-2.15-2.554-3.84-2.554v2c.9 0 1.66.508 1.99 1.31l1.85-.756zm-2.84-1.554v-.594h-2v.594h2zm0-.594c0-2.563-2.15-4.418-4.72-4.418v2c1.63 0 2.72 1.117 2.72 2.418h2zm-4.72-4.418c-.81 0-1.42.192-1.91.341l.59 1.912c.48-.148.84-.253 1.32-.253v-2zm-1.62 1.297h1v-.149h-2v.149h1zm1-.149c0-2.906-2.52-4.863-5.37-4.863v2c2.01 0 3.37 1.312 3.37 2.863h2zm-5.37-4.863c-1.55 0-3.17.7-4.04 1.898l1.62 1.175c.42-.585 1.38-1.073 2.42-1.073v-2zm-2.37 1.975c-1.18-1.973-3.47-3.164-5.88-3.164v2c1.79 0 3.39.889 4.16 2.185l1.72-1.021zm-5.88-3.164c-3.55 0-6.67 2.747-6.67 6.201h2c0-2.193 2.06-4.201 4.67-4.201v-2zm-6.67 6.201v.297h2v-.297h-2zm1-.703l-.01-.001c-.01-.004-.03-.009-.1-.029-.12-.038-.37-.118-.69-.118v2l.01.001c.01.004.03.009.1.029.12.038.37.118.69.118v-2zm-.8-.148c-1.24 0-2.56.558-3.27 1.642l1.67 1.093c.27-.402.89-.735 1.6-.735v-2zm-1.62 1.601c-1.18-1.623-3.28-2.642-5.51-2.642v2c1.66 0 3.12.765 3.89 1.817l1.62-1.175zm-5.51-2.642c-3.54 0-6.66 2.747-6.66 6.202h2c0-2.193 2.06-4.202 4.66-4.202v-2zm-6.66 6.202v.594h2v-.594h-2zm.92-.403c-2.38.183-4.22 1.846-4.63 4.088l1.97.357c.24-1.324 1.32-2.336 2.82-2.451l-.16-1.994zm-3.35 3.31c-.45-.139-1.09-.341-1.75-.341v2c.31 0 .65.096 1.17.254l.58-1.913zm-1.75-.341c-2.57 0-4.72 1.856-4.72 4.418h2c0-1.301 1.09-2.418 2.72-2.418v-2zm-4.72 4.418c0 1.6.88 2.739 1.78 3.561l1.35-1.474c-.72-.664-1.13-1.308-1.13-2.087h-2zm2.12 1.881a6.034 6.034 0 00-4.06 5.699h2c0-1.663 1.03-3.213 2.73-3.813l-.67-1.886zm-4.06 5.699c0 3.454 3.12 6.201 6.66 6.201v-2c-2.6 0-4.66-2.009-4.66-4.201h-2zm6.66 6.201h58.42v-2h-58.42v2zm58.62-.019c2.64-.519 4.53-2.494 4.53-4.994h-2c0 1.365-1.03 2.66-2.92 3.032l.39 1.962z" fill="url(#paint5_linear)" mask="url(#a)"/></g><g filter="url(#filter3_d)"><path d="M2637.35 351.309c0-3.864-3.08-6.985-7.12-7.728 1.94-1.189 3.23-3.269 3.07-5.647 0-3.715-3.4-6.836-7.61-6.688-2.1 0-3.88.743-5.18 2.081-.8-2.378-3.23-4.161-5.98-4.161.32-.892.48-1.932.48-2.972-.16-4.607-4.21-8.322-9.22-8.174-2.59 0-4.86 1.04-6.48 2.675-.81-2.229-2.91-3.864-5.5-4.458.16-.743.33-1.486.33-2.229 0-4.607-4.21-8.322-9.23-8.174-3.56 0-6.47 1.932-7.93 4.607-1.46-1.04-3.24-1.783-5.18-1.783-4.37 0-7.77 3.269-7.77 7.282 0 .891.17 1.783.49 2.526h-.49c-2.42 0-4.37 1.337-5.5 3.121-1.29-2.378-3.88-4.013-6.8-3.864-4.04 0-7.44 3.121-7.28 6.985 0 .594.16 1.189.32 1.783-.97-.297-1.78-.297-2.75-.297-5.34 0-9.55 4.012-9.38 8.916 0 2.675 1.45 5.053 3.56 6.688-2.27 1.04-3.73 3.121-3.73 5.647 0 3.418 3.08 6.242 6.8 6.093v.149c0 4.161 3.72 7.43 8.26 7.281l82.7-1.188v-.149c4.04-.892 7.12-4.31 7.12-8.322z" fill="url(#paint6_linear)"/><path d="M2629.96 343.155l-1.11.682 1.28.236c3.87.709 6.72 3.663 6.72 7.236 0 3.746-2.88 6.985-6.73 7.834l-.39.086v.058l-82.21 1.181h0l-.01.001c-4.3.141-7.74-2.948-7.74-6.782v-.669l-.52.02c-3.47.139-6.28-2.488-6.28-5.593 0-2.315 1.33-4.227 3.44-5.193l.74-.344-.65-.505c-2.01-1.564-3.36-3.808-3.36-6.293v-.016c-.15-4.583 3.78-8.4 8.88-8.4.98 0 1.72.002 2.61.275l.87.265-.24-.874c-.17-.608-.31-1.137-.31-1.652v-.021c-.15-3.534 2.97-6.464 6.78-6.464h.02l.01-.001c2.71-.138 5.12 1.381 6.33 3.604l.41.745.45-.716c1.06-1.664 2.85-2.889 5.08-2.889h1.25l-.3-.7c-.29-.669-.45-1.49-.45-2.326 0-3.71 3.15-6.782 7.27-6.782 1.81 0 3.5.694 4.89 1.69l.46.328.27-.496c1.37-2.519 4.12-4.346 7.49-4.346h.02c4.78-.142 8.71 3.392 8.71 7.674 0 .68-.15 1.369-.32 2.122l-.1.484.48.11c2.46.565 4.4 2.105 5.14 4.142l.27.742.56-.561c1.53-1.543 3.67-2.527 6.12-2.527h.01c4.76-.141 8.56 3.375 8.71 7.683 0 .989-.15 1.966-.45 2.792l-.25.671h.72c2.54 0 4.77 1.652 5.51 3.822l.27.775.56-.588c1.2-1.233 2.84-1.929 4.82-1.929h.02c3.97-.14 7.09 2.793 7.09 6.188v.034c.15 2.163-1.03 4.079-2.84 5.187z" stroke="url(#paint7_linear)"/></g><g filter="url(#filter4_d)"><path d="M1934.23 350.066c0-3.566-2.75-6.39-6.48-7.133 1.78-1.189 2.92-2.972 2.92-5.201 0-3.418-3.08-6.242-6.96-6.093-1.78 0-3.56.743-4.7 1.783-.64-2.229-2.91-3.864-5.5-3.715.33-.892.49-1.783.49-2.675 0-4.161-3.89-7.579-8.42-7.431-2.26 0-4.37.892-5.82 2.378-.81-2.08-2.76-3.566-5.02-4.012.16-.595.32-1.338.32-2.081 0-4.161-3.88-7.579-8.41-7.43-3.24 0-5.99 1.783-7.29 4.161-1.29-1.041-2.91-1.635-4.69-1.635-3.88 0-7.12 2.972-6.96 6.688 0 .891.16 1.634.49 2.377h-.49c-2.1 0-4.04 1.189-5.02 2.824-1.13-2.081-3.56-3.567-6.31-3.567-3.72 0-6.79 2.824-6.63 6.39 0 .595.16 1.041.32 1.635-.81-.148-1.62-.297-2.59-.297-4.85 0-8.58 3.715-8.58 8.173 0 2.527 1.3 4.607 3.24 6.093-2.1.892-3.4 2.824-3.4 5.053 0 3.121 2.92 5.647 6.31 5.499v.148c0 3.716 3.4 6.688 7.45 6.688l75.25-1.04v-.149c3.73-.743 6.48-3.864 6.48-7.431z" fill="url(#paint8_linear)"/><path d="M1927.48 342.517l-1.01.67 1.19.237c3.54.706 6.07 3.364 6.07 6.642 0 3.302-2.56 6.239-6.07 6.941l-.41.08v.065l-74.75 1.034s0 0 0 0c-3.83-.002-6.95-2.802-6.95-6.188v-.671l-.52.023c-3.16.139-5.79-2.208-5.79-4.999 0-2.023 1.17-3.777 3.1-4.592l.79-.335-.68-.523c-1.85-1.414-3.05-3.358-3.05-5.696 0-4.166 3.49-7.673 8.08-7.673.92 0 1.69.14 2.5.289l.78.143-.21-.766c-.03-.114-.06-.22-.09-.318-.12-.452-.21-.768-.21-1.186v-.022c-.15-3.236 2.65-5.868 6.13-5.868 2.58 0 4.83 1.394 5.88 3.306l.42.772.44-.756c.89-1.487 2.67-2.579 4.59-2.579h1.25l-.3-.699c-.3-.68-.45-1.355-.45-2.178v-.022c-.15-3.385 2.81-6.166 6.46-6.166 1.67 0 3.17.555 4.38 1.525l.47.374.28-.525c1.21-2.216 3.79-3.9 6.85-3.9h0l.01-.001c4.3-.14 7.9 3.096 7.9 6.931 0 .677-.15 1.37-.3 1.949l-.14.519.52.103c2.12.417 3.91 1.802 4.65 3.703l.28.722.54-.553c1.36-1.387 3.34-2.228 5.47-2.228h.02c4.29-.141 7.9 3.096 7.9 6.931 0 .83-.15 1.664-.46 2.504l-.26.714.76-.044c2.37-.136 4.41 1.36 4.99 3.356l.23.774.59-.546c1.04-.955 2.7-1.651 4.36-1.651h.01l.01-.001c3.64-.139 6.44 2.497 6.44 5.594 0 2.037-1.03 3.675-2.69 4.785z" stroke="url(#paint9_linear)"/></g><g filter="url(#filter5_d)"><path d="M2355.22 51.912c0-2.378-1.62-4.31-4.04-5.053 0-.149-.17-.297-.17-.297.33-.595.49-1.19.49-1.784 0-1.188-.65-2.377-1.62-3.12a5.44 5.44 0 001.46-3.716c0-3.27-2.92-5.944-6.48-5.944-1.78 0-3.39.743-4.69 1.783a4.185 4.185 0 00-3.88-2.526c-1.46 0-2.59.594-3.4 1.635-.49-1.486-2.11-2.527-3.89-2.527h-.16c0-.297.16-.446.16-.743 0-2.526-2.26-4.607-5.01-4.607-.81 0-1.46.149-2.11.446v-.149c0-2.823-2.59-5.2-5.66-5.2-1.78 0-3.4.742-4.37 1.931-1.3-2.08-3.72-3.567-6.64-3.567-4.2 0-7.6 3.121-7.6 6.985v.297c-.33-.148-.65-.148-1.14-.148-1.29 0-2.59.594-3.23 1.486-1.3-1.784-3.56-2.972-6.15-2.972-4.21 0-7.61 3.12-7.61 6.984v.743c-2.59.298-4.53 2.08-4.85 4.31-.65-.297-1.3-.297-1.95-.297-2.75 0-5.01 2.08-5.01 4.607 0 1.486.81 2.823 1.94 3.715-2.75 1.04-4.53 3.567-4.53 6.39 0 3.864 3.4 6.985 7.6 6.985.65 0 77.36-.149 77.36-.149 3.24-.743 5.18-2.972 5.18-5.498z" fill="url(#paint10_linear)"/><path d="M2350.67 46.928c0 .001 0 .002.01.003v.298l.35.108c2.25.69 3.69 2.452 3.69 4.575 0 2.221-1.7 4.281-4.74 4.998h-.16l-.64.002-2.44.005-8.69.017-26.44.05-38.93.075c-3.97 0-7.1-2.936-7.1-6.485 0-2.606 1.64-4.952 4.21-5.922l.82-.313-.69-.548c-1.04-.82-1.75-2.022-1.75-3.322 0-2.211 2-4.107 4.51-4.107.66 0 1.2.006 1.74.251l.6.28.1-.662c.29-1.973 2.02-3.61 4.42-3.885l.44-.05v-.612 0-.026 0-.017 0-.007 0-.018 0-.011 0-.015 0-.004 0-.048 0-.004 0-.004 0-.004 0-.013 0-.004 0-.004 0-.009 0-.004 0-.004 0-.008 0-.004 0-.004 0-.01 0-.004 0-.004 0-.009 0-.004 0-.004 0-.013 0-.004 0-.004 0-.004 0-.004 0-.032 0-.004 0-.004 0-.015 0-.015 0-.007 0-.028 0-.02 0-.016 0-.162c0-3.548 3.13-6.484 7.11-6.484 2.44 0 4.55 1.12 5.74 2.765l.41.558.4-.558c.54-.738 1.67-1.28 2.83-1.28.52 0 .72.009.93.104l.71.325v-.78 0-.002 0-.002 0-.002 0-.003 0-.002 0-.003 0-.002 0-.002 0-.002 0-.002 0-.002 0-.001 0-.002 0-.002 0-.002 0-.001 0-.002 0-.001 0-.002 0-.002 0-.001 0-.002 0-.002 0-.001 0-.002 0-.002 0-.002 0-.002 0-.002 0-.002 0-.002 0-.001 0-.002 0-.002 0-.001 0-.002 0-.002 0-.001 0-.002 0-.001 0-.002 0-.001 0-.001 0-.002 0-.001 0-.001 0-.002 0-.001 0-.001 0-.001 0-.002 0-.001 0-.001 0-.001 0-.001 0-.001 0-.001 0-.002 0-.001 0-.001 0-.001 0-.001 0-.001 0-.001 0-.001 0-.001 0-.001 0-.001 0-.001 0-.001 0-.001 0-.001 0-.001 0-.001 0-.001 0-.001 0-.001 0-.001 0-.001 0-.001 0-.001 0-.001 0-.001 0-.001 0-.001 0-.001 0-.001 0-.001 0-.001 0-.001 0-.001 0-.001 0-.001 0-.001 0-.001 0-.001 0-.001 0-.001 0-.001 0-.001 0-.001 0-.001 0-.001 0-.001 0-.001 0-.001 0-.001 0-.001 0-.001 0-.001 0-.001 0-.001 0-.001 0-.001 0-.001 0-.001 0-.001 0-.001 0-.001 0-.001 0-.001 0-.001 0-.001 0-.001 0-.001 0-.001 0-.001 0-.001 0-.001 0-.001 0-.001 0-.001 0-.001 0-.001 0-.001 0-.001 0-.001 0-.001 0-.001 0-.001 0-.001 0-.001 0-.001 0-.001 0-.001 0-.001 0-.001 0-.001 0-.001 0-.001 0-.001 0-.001 0-.001 0-.001 0-.001 0-.001 0-.001 0-.001 0-.001 0-.001 0-.001 0-.001 0-.001 0-.001 0-.001 0-.002 0-.001 0-.001 0-.001 0-.001 0-.001 0-.002 0-.001 0-.001 0-.001 0-.002 0-.001 0-.002 0-.001 0-.001 0-.002 0-.001 0-.002 0-.001 0-.002 0-.002 0-.001 0-.002 0-.002 0-.002 0-.001 0-.002 0-.002 0-.002 0-.002 0-.001 0-.002 0-.002 0-.002 0-.001 0-.002 0-.002 0-.001 0-.002 0-.001 0-.002 0-.001 0-.002 0-.001 0-.002 0-.001 0-.002 0-.002 0-.002 0-.002 0-.002 0-.002 0-.002 0-.003 0-.002 0-.002 0-.003c0-3.548 3.13-6.485 7.1-6.485 2.74 0 5.01 1.396 6.21 3.331l.37.594.45-.542c.86-1.06 2.33-1.748 3.98-1.748 2.84 0 5.16 2.193 5.16 4.701v.929l.71-.326c.58-.266 1.16-.4 1.9-.4 2.51 0 4.51 1.896 4.51 4.107 0 .052-.01.089-.05.201v.011c-.04.112-.11.294-.11.531v.5h.66c1.61 0 3.01.94 3.41 2.182l.29.894.58-.742c.72-.92 1.71-1.442 3.01-1.442 1.57 0 2.85.916 3.42 2.226l.26.6.51-.41c1.23-.989 2.75-1.673 4.38-1.673 3.33 0 5.98 2.49 5.98 5.444a4.93 4.93 0 01-1.32 3.374l-.38.403.44.336c.86.66 1.42 1.708 1.42 2.723 0 .5-.14 1.013-.43 1.545l-.18.343.28.259h0v.003z" stroke="url(#paint11_linear)"/></g><g filter="url(#filter6_d)"><path d="M2659.85 146.068c0-5.647-5.01-10.254-11.16-10.254-1.14 0-2.27.148-3.24.446.49-1.189.81-2.527.81-4.013 0-6.39-5.67-11.592-12.62-11.592-6.15 0-11.33 4.013-12.3 9.363-1.14-4.904-5.83-8.471-11.33-8.471-1.14 0-2.11.149-3.08.446v-.446c0-8.025-6.96-14.415-15.7-14.415-8.74 0-15.69 6.39-15.69 14.415 0 1.783.32 3.418.97 4.904a11.728 11.728 0 00-4.53-.891c-5.83 0-10.69 4.161-11.17 9.511-1.94-1.189-4.37-1.784-6.8-1.784-6.96 0-12.62 5.202-12.62 11.592 0 6.39 5.66 11.592 12.62 11.592h97.1v-.149c5.02-1.04 8.74-5.201 8.74-10.254z" fill="url(#paint12_linear)"/><path d="M2644.99 136.07l-.4.976 1.01-.308c.91-.281 1.99-.424 3.09-.424 5.91 0 10.66 4.422 10.66 9.754 0 4.79-3.53 8.767-8.34 9.764l-.4.083v.056h-96.6c-6.72 0-12.12-5.017-12.12-11.092s5.4-11.092 12.12-11.092c2.35 0 4.69.577 6.54 1.71l.68.42.08-.801c.46-5.063 5.07-9.056 10.67-9.056 1.55 0 2.94.284 4.34.854l1.14.465-.49-1.127c-.62-1.417-.93-2.983-.93-4.705 0-7.709 6.69-13.915 15.19-13.915 8.51 0 15.2 6.206 15.2 13.915v1.122l.65-.198a9.675 9.675 0 012.93-.424c5.29 0 9.76 3.429 10.84 8.083l.98-.023c.92-5.077 5.86-8.952 11.81-8.952 6.72 0 12.12 5.017 12.12 11.092 0 1.412-.31 2.685-.77 3.823z" stroke="url(#paint13_linear)"/></g><g filter="url(#filter7_d)"><path d="M2361.7 232.265c0-5.647-5.02-10.254-11.17-10.254-1.13 0-2.26.148-3.23.446.48-1.189.81-2.527.81-4.013 0-6.39-5.67-11.591-12.63-11.591-6.15 0-11.32 4.012-12.3 9.362-1.13-4.904-5.82-8.471-11.32-8.471-1.14 0-2.11.149-3.08.446v-.446c0-8.025-6.96-14.415-15.7-14.415-8.74 0-15.7 6.39-15.7 14.415 0 1.784.33 3.418.97 4.904a11.655 11.655 0 00-4.53-.891c-5.82 0-10.68 4.161-11.16 9.511-1.95-1.189-4.37-1.784-6.8-1.784-6.96 0-12.62 5.202-12.62 11.592 0 6.39 5.66 11.592 12.62 11.592h97.1v-.149c5.02-1.04 8.74-5.201 8.74-10.254z" fill="url(#paint14_linear)"/><path d="M2346.84 222.268l-.4.975 1-.308c.92-.28 2-.424 3.09-.424 5.92 0 10.67 4.422 10.67 9.754 0 4.791-3.53 8.767-8.34 9.765l-.4.082v.056h-96.6c-6.72 0-12.12-5.017-12.12-11.092s5.4-11.092 12.12-11.092c2.35 0 4.68.577 6.54 1.71l.68.42.07-.801c.46-5.063 5.07-9.056 10.67-9.056 1.56 0 2.95.284 4.35.854l1.13.465-.49-1.127c-.61-1.417-.93-2.983-.93-4.705 0-7.709 6.7-13.915 15.2-13.915 8.51 0 15.2 6.206 15.2 13.915v1.122l.65-.198a9.675 9.675 0 012.93-.424c5.29 0 9.76 3.429 10.84 8.084l.98-.024c.92-5.076 5.86-8.951 11.8-8.951 6.73 0 12.13 5.016 12.13 11.091 0 1.412-.31 2.685-.77 3.824z" stroke="url(#paint15_linear)"/></g><g filter="url(#filter8_d)"><path d="M1534.97 49.936c0-5.647-5.01-10.254-11.16-10.254-1.14 0-2.27.148-3.24.446.49-1.19.81-2.527.81-4.013 0-6.39-5.67-11.592-12.62-11.592-6.15 0-11.33 4.013-12.3 9.363-1.14-4.904-5.83-8.47-11.33-8.47-1.14 0-2.11.148-3.08.445v-.446c0-8.025-6.96-14.415-15.7-14.415-8.74 0-15.69 6.39-15.69 14.415 0 1.784.32 3.418.97 4.904a11.721 11.721 0 00-4.53-.891c-5.83 0-10.69 4.16-11.17 9.51-1.94-1.188-4.37-1.783-6.8-1.783-6.96 0-12.62 5.202-12.62 11.592 0 6.39 5.66 11.592 12.62 11.592h97.1v-.15c5.02-1.04 8.74-5.2 8.74-10.253z" fill="url(#paint16_linear)"/><path d="M1520.11 39.938l-.4.976 1.01-.308c.91-.28 1.99-.424 3.09-.424 5.91 0 10.66 4.422 10.66 9.754 0 4.79-3.53 8.767-8.34 9.764l-.4.083v.056h-96.6c-6.72 0-12.12-5.017-12.12-11.092s5.4-11.092 12.12-11.092c2.35 0 4.69.577 6.54 1.71l.68.42.08-.801c.46-5.063 5.07-9.056 10.67-9.056 1.55 0 2.94.284 4.34.854l1.14.465-.49-1.127c-.62-1.417-.93-2.983-.93-4.705 0-7.71 6.69-13.915 15.19-13.915 8.51 0 15.2 6.206 15.2 13.915v1.122l.65-.198a9.669 9.669 0 012.93-.424c5.29 0 9.76 3.429 10.84 8.084l.98-.024c.92-5.077 5.86-8.952 11.81-8.952 6.72 0 12.12 5.017 12.12 11.092 0 1.412-.31 2.685-.77 3.823z" stroke="url(#paint17_linear)"/></g><g filter="url(#filter9_d)"><path d="M340.456 316.375c0-6.984-6.15-12.483-13.594-12.483-1.457 0-2.752.149-3.884.594.647-1.486.971-3.12.971-4.904 0-7.876-6.959-14.118-15.375-14.118-7.606 0-13.756 4.905-15.051 11.443-1.295-5.944-7.121-10.402-13.918-10.402-1.295 0-2.59.148-3.722.446v-.446c0-9.809-8.578-17.685-19.259-17.685-10.682 0-19.259 7.876-19.259 17.685 0 2.08.486 4.161 1.133 5.944-1.78-.743-3.56-1.04-5.664-1.04-7.283 0-13.109 5.053-13.595 11.591-2.427-1.486-5.34-2.229-8.415-2.229-8.578 0-15.375 6.39-15.375 14.118 0 7.876 6.959 14.118 15.375 14.118h118.789v-.297c6.15-1.338 10.843-6.242 10.843-12.335z" fill="url(#paint18_linear)"/><path d="M322.519 304.287l-.482 1.107 1.124-.442c1.049-.413 2.273-.56 3.701-.56 7.213 0 13.094 5.318 13.094 11.983 0 5.812-4.482 10.548-10.449 11.846l-.394.086v.2H210.824c-8.184 0-14.875-6.06-14.875-13.618 0-7.415 6.536-13.618 14.875-13.618 2.995 0 5.815.724 8.154 2.156l.699.428.061-.818c.463-6.242 6.038-11.128 13.096-11.128 2.052 0 3.764.289 5.471 1.001l1.052.439-.389-1.071c-.634-1.745-1.103-3.767-1.103-5.773 0-9.493 8.313-17.185 18.759-17.185s18.759 7.692 18.759 17.185v1.094l.626-.165c1.085-.285 2.337-.429 3.596-.429 6.591 0 12.191 4.321 13.429 10.009l.979-.01c1.244-6.279 7.166-11.04 14.561-11.04 8.184 0 14.875 6.061 14.875 13.618 0 1.722-.313 3.288-.93 4.705z" stroke="url(#paint19_linear)"/></g><g filter="url(#filter10_d)"><path d="M375.413 308.499c0-3.567-2.751-6.39-6.311-7.133 1.78-1.189 2.913-2.973 2.913-5.053 0-3.418-3.075-6.242-6.797-6.093-1.781 0-3.561.743-4.694 1.783-.647-2.229-2.913-3.864-5.502-3.864a7.781 7.781 0 00.485-2.675c0-4.161-3.722-7.579-8.253-7.43-2.266 0-4.37.891-5.827 2.378-.809-2.081-2.589-3.567-5.017-4.013.162-.594.324-1.337.324-2.081 0-4.161-3.722-7.579-8.254-7.43-3.236 0-5.826 1.635-7.282 4.161a7.424 7.424 0 00-4.694-1.635c-3.884 0-7.121 2.973-6.959 6.539 0 .743.162 1.635.486 2.378h-.486c-2.104 0-4.046 1.189-5.017 2.675-1.133-2.081-3.398-3.567-6.15-3.567-3.722 0-6.797 2.824-6.635 6.242 0 .594.162 1.04.324 1.635-.809-.149-1.619-.298-2.59-.298-4.855 0-8.577 3.567-8.577 8.025 0 2.527 1.295 4.607 3.237 6.093-2.104.892-3.399 2.824-3.399 5.053 0 3.121 2.751 5.647 6.15 5.499v.148c0 3.716 3.399 6.688 7.444 6.688l74.932-.595v-.148c3.236-.595 6.149-3.715 6.149-7.282z" fill="url(#paint20_linear)"/><path d="M368.824 300.95l-.991.662 1.167.243c3.377.705 5.913 3.36 5.913 6.644 0 3.306-2.721 6.236-5.74 6.79l-.409.075v.069l-74.432.591h-.002c-3.824-.001-6.942-2.802-6.942-6.188v-.671l-.522.023c-3.143.138-5.628-2.191-5.628-4.999 0-2.023 1.17-3.777 3.094-4.592l.791-.336-.682-.522c-1.848-1.414-3.041-3.358-3.041-5.696 0-4.154 3.47-7.525 8.077-7.525.92 0 1.688.14 2.499.289l.782.144-.209-.767-.089-.318c-.127-.451-.217-.768-.217-1.185v-.024c-.146-3.078 2.641-5.718 6.135-5.718 2.565 0 4.664 1.383 5.711 3.306l.4.735.458-.701c.883-1.351 2.671-2.448 4.598-2.448h1.249l-.305-.7a5.761 5.761 0 01-.444-2.178v-.022c-.147-3.229 2.803-6.017 6.459-6.017 1.666 0 3.174.555 4.38 1.525l.455.365.292-.505c1.37-2.376 3.797-3.911 6.849-3.911h.017c4.281-.141 7.737 3.083 7.737 6.93 0 .678-.148 1.37-.306 1.95l-.143.525.535.098c2.265.416 3.898 1.79 4.641 3.702l.281.722.542-.553c1.36-1.387 3.333-2.228 5.47-2.228h.008l.008-.001c4.281-.14 7.737 3.084 7.737 6.931a7.3 7.3 0 01-.455 2.505l-.244.67h.714c2.391 0 4.443 1.51 5.022 3.504l.225.773.594-.545c1.041-.956 2.7-1.651 4.355-1.651h.01l.01-.001c3.468-.138 6.277 2.489 6.277 5.594 0 1.882-1.021 3.522-2.691 4.637z" stroke="url(#paint21_linear)"/></g><g filter="url(#filter11_d)"><mask id="b" fill="#fff"><path d="M577.865 174.064c0-1.783-1.295-3.269-3.075-3.715 0-.148-.162-.148-.162-.297.162-.446.324-.892.324-1.338 0-.891-.486-1.783-1.133-2.377.647-.743 1.133-1.784 1.133-2.824 0-2.526-2.104-4.458-4.855-4.458-1.457 0-2.59.594-3.561 1.337-.485-1.04-1.618-1.932-2.913-1.932a3.49 3.49 0 00-2.589 1.189c-.486-1.189-1.619-1.932-2.913-1.932v-.594c0-1.932-1.619-3.418-3.723-3.418-.647 0-1.132.148-1.618.297v-.149c0-2.229-1.942-3.863-4.37-3.863-1.294 0-2.589.594-3.236 1.486-.971-1.635-2.914-2.675-5.017-2.675-3.075 0-5.665 2.377-5.665 5.201v.297c-.323 0-.485-.148-.809-.148-.971 0-1.942.445-2.428 1.189-.971-1.338-2.751-2.23-4.693-2.23-3.075 0-5.664 2.378-5.664 5.202v.594c-1.942.149-3.399 1.486-3.722 3.27-.486-.149-.971-.298-1.457-.298-2.104 0-3.722 1.486-3.722 3.418 0 1.189.647 2.081 1.456 2.824-2.104.743-3.398 2.675-3.398 4.756 0 2.823 2.589 5.201 5.664 5.201h58.424c2.265-.446 3.722-2.081 3.722-4.013z"/></mask><path d="M577.865 174.064c0-1.783-1.295-3.269-3.075-3.715 0-.148-.162-.148-.162-.297.162-.446.324-.892.324-1.338 0-.891-.486-1.783-1.133-2.377.647-.743 1.133-1.784 1.133-2.824 0-2.526-2.104-4.458-4.855-4.458-1.457 0-2.59.594-3.561 1.337-.485-1.04-1.618-1.932-2.913-1.932a3.49 3.49 0 00-2.589 1.189c-.486-1.189-1.619-1.932-2.913-1.932v-.594c0-1.932-1.619-3.418-3.723-3.418-.647 0-1.132.148-1.618.297v-.149c0-2.229-1.942-3.863-4.37-3.863-1.294 0-2.589.594-3.236 1.486-.971-1.635-2.914-2.675-5.017-2.675-3.075 0-5.665 2.377-5.665 5.201v.297c-.323 0-.485-.148-.809-.148-.971 0-1.942.445-2.428 1.189-.971-1.338-2.751-2.23-4.693-2.23-3.075 0-5.664 2.378-5.664 5.202v.594c-1.942.149-3.399 1.486-3.722 3.27-.486-.149-.971-.298-1.457-.298-2.104 0-3.722 1.486-3.722 3.418 0 1.189.647 2.081 1.456 2.824-2.104.743-3.398 2.675-3.398 4.756 0 2.823 2.589 5.201 5.664 5.201h58.424c2.265-.446 3.722-2.081 3.722-4.013z" fill="url(#paint22_linear)"/><path d="M574.79 170.349h-1v.781l.757.189.243-.97zm-.162-.297l-.94-.341-.06.165v.176h1zm-.809-3.715l-.754-.657-.64.734.718.659.676-.736zm-7.283-5.945l-.906.423.526 1.127.988-.756-.608-.794zm-5.502-.743l-.926.378.614 1.503 1.066-1.224-.754-.657zm-2.913-1.932h-1v1h1v-1zm-5.341-3.715h-1v1.352l1.293-.396-.293-.956zm-7.606-2.526l-.86.51.776 1.307.893-1.23-.809-.587zm-10.682 2.823v1h1v-1h-1zm-3.237 1.041l-.809.587.853 1.174.794-1.215-.838-.546zm-10.357 3.566l.076.997.924-.07v-.927h-1zm-3.722 3.27l-.293.956 1.076.329.201-1.107-.984-.178zm-3.723 5.944l.333.943 1.569-.554-1.225-1.126-.677.737zm60.69 9.957v1h.097l.096-.019-.193-.981zm4.722-4.013c0-2.301-1.667-4.143-3.832-4.685l-.486 1.94c1.396.35 2.318 1.48 2.318 2.745h2zm-3.075-3.715a1.169 1.169 0 00-.188-.635 1.216 1.216 0 00-.142-.178c-.035-.036-.068-.066-.074-.072l.015.015c.018.02.053.058.09.114a.858.858 0 01.137.459h-2a1.17 1.17 0 00.405.885l-.015-.015a.81.81 0 01-.191-.331.801.801 0 01-.037-.242h2zm-.222.044c.148-.408.384-1.025.384-1.679h-2c0 .238-.088.514-.264.997l1.88.682zm.384-1.679c0-1.234-.654-2.377-1.457-3.114l-1.352 1.473c.492.453.809 1.093.809 1.641h2zm-1.379-1.72c.768-.882 1.379-2.147 1.379-3.481h-2c0 .747-.361 1.563-.887 2.167l1.508 1.314zm1.379-3.481c0-3.157-2.634-5.458-5.855-5.458v2c2.281 0 3.855 1.563 3.855 3.458h2zm-5.855-5.458c-1.758 0-3.101.726-4.168 1.543l1.215 1.588c.875-.669 1.797-1.131 2.953-1.131v-2zm-2.655 1.914c-.62-1.33-2.071-2.509-3.819-2.509v2c.842 0 1.657.605 2.007 1.355l1.812-.846zm-3.819-2.509a4.492 4.492 0 00-3.343 1.532l1.508 1.314a2.49 2.49 0 011.835-.846v-2zm-1.663 1.811c-.644-1.576-2.15-2.554-3.839-2.554v2c.9 0 1.659.508 1.987 1.31l1.852-.756zm-2.839-1.554v-.594h-2v.594h2zm0-.594c0-2.563-2.148-4.418-4.723-4.418v2c1.634 0 2.723 1.117 2.723 2.418h2zm-4.723-4.418c-.811 0-1.424.192-1.911.341l.586 1.912c.484-.148.842-.253 1.325-.253v-2zm-1.618 1.297h1v-.149h-2v.149h1zm1-.149c0-2.906-2.524-4.863-5.37-4.863v2c2.01 0 3.37 1.312 3.37 2.863h2zm-5.37-4.863c-1.551 0-3.176.7-4.046 1.898l1.619 1.175c.424-.585 1.389-1.073 2.427-1.073v-2zm-2.377 1.975c-1.172-1.973-3.462-3.164-5.876-3.164v2c1.793 0 3.387.889 4.157 2.185l1.719-1.021zm-5.876-3.164c-3.546 0-6.665 2.747-6.665 6.201h2c0-2.193 2.06-4.201 4.665-4.201v-2zm-6.665 6.201v.297h2v-.297h-2zm1-.703c-.001 0-.002.001-.01-.001a1.884 1.884 0 01-.102-.029c-.123-.038-.371-.118-.697-.118v2c.001 0 .002-.001.01.001.016.004.036.009.102.029.123.038.371.118.697.118v-2zm-.809-.148c-1.233 0-2.557.558-3.265 1.642l1.675 1.093c.263-.402.881-.735 1.59-.735v-2zm-1.618 1.601c-1.179-1.623-3.274-2.642-5.503-2.642v2c1.656 0 3.12.765 3.884 1.817l1.619-1.175zm-5.503-2.642c-3.545 0-6.664 2.747-6.664 6.202h2c0-2.193 2.06-4.202 4.664-4.202v-2zm-6.664 6.202v.594h2v-.594h-2zm.924-.403c-2.385.183-4.223 1.846-4.63 4.088l1.968.357c.24-1.324 1.314-2.336 2.814-2.451l-.152-1.994zm-3.354 3.31c-.455-.139-1.087-.341-1.749-.341v2c.309 0 .648.096 1.164.254l.585-1.913zm-1.749-.341c-2.574 0-4.722 1.856-4.722 4.418h2c0-1.301 1.088-2.418 2.722-2.418v-2zm-4.722 4.418c0 1.6.885 2.739 1.78 3.561l1.353-1.474c-.724-.664-1.133-1.308-1.133-2.087h-2zm2.123 1.881a6.04 6.04 0 00-4.065 5.699h2c0-1.663 1.033-3.213 2.731-3.813l-.666-1.886zm-4.065 5.699c0 3.454 3.119 6.201 6.664 6.201v-2c-2.605 0-4.664-2.009-4.664-4.201h-2zm6.664 6.201h58.423l.001-1-.001-1h-58.423v2zm58.617-.019c2.64-.519 4.529-2.494 4.529-4.994h-2c0 1.365-1.024 2.66-2.915 3.032l.386 1.962z" fill="url(#paint23_linear)" mask="url(#b)"/></g><g filter="url(#filter12_d)"><path d="M1271.99 351.309c0-3.864-3.07-6.985-7.12-7.728 1.94-1.189 3.24-3.269 3.08-5.647 0-3.715-3.4-6.836-7.61-6.688-2.1 0-3.88.743-5.18 2.081-.81-2.378-3.23-4.161-5.99-4.161.33-.892.49-1.932.49-2.972-.16-4.607-4.21-8.322-9.22-8.174-2.59 0-4.86 1.04-6.48 2.675-.81-2.229-2.91-3.864-5.5-4.458.16-.743.32-1.486.32-2.229 0-4.607-4.2-8.322-9.22-8.174-3.56 0-6.48 1.932-7.93 4.607-1.46-1.04-3.24-1.783-5.18-1.783-4.37 0-7.77 3.269-7.77 7.282 0 .891.16 1.783.49 2.526h-.49c-2.43 0-4.37 1.337-5.5 3.121-1.3-2.378-3.89-4.013-6.8-3.864-4.04 0-7.44 3.121-7.28 6.985 0 .594.16 1.189.32 1.783-.97-.297-1.78-.297-2.75-.297-5.34 0-9.55 4.012-9.39 8.916 0 2.675 1.46 5.053 3.56 6.688-2.26 1.04-3.72 3.121-3.72 5.647 0 3.418 3.08 6.242 6.8 6.093v.149c0 4.161 3.72 7.43 8.25 7.281l82.7-1.188v-.149c4.05-.892 7.12-4.31 7.12-8.322z" fill="url(#paint24_linear)"/><path d="M1264.61 343.155l-1.11.682 1.28.236c3.86.709 6.71 3.663 6.71 7.236 0 3.746-2.88 6.985-6.72 7.834l-.4.086v.058l-82.2 1.181h0l-.01.001c-4.3.141-7.74-2.948-7.74-6.782v-.669l-.52.02c-3.47.139-6.28-2.488-6.28-5.593 0-2.315 1.33-4.227 3.43-5.193l.75-.344-.65-.505c-2.01-1.564-3.37-3.808-3.37-6.293v-.016c-.15-4.583 3.79-8.4 8.89-8.4.98 0 1.72.002 2.61.275l.86.265-.24-.874c-.16-.608-.3-1.137-.3-1.652v-.021c-.15-3.534 2.97-6.464 6.78-6.464h.01l.02-.001c2.7-.138 5.12 1.381 6.33 3.604l.41.745.45-.716c1.06-1.664 2.85-2.889 5.08-2.889h1.25l-.31-.7c-.29-.669-.44-1.49-.44-2.326 0-3.71 3.15-6.782 7.27-6.782 1.81 0 3.49.694 4.89 1.69l.46.328.27-.496c1.37-2.519 4.12-4.346 7.49-4.346h.01c4.78-.142 8.71 3.392 8.71 7.674 0 .68-.15 1.369-.31 2.122l-.1.484.48.11c2.46.565 4.4 2.105 5.14 4.142l.27.742.56-.561c1.53-1.543 3.66-2.527 6.12-2.527h.01c4.76-.141 8.55 3.375 8.71 7.683 0 .989-.16 1.966-.46 2.792l-.24.671h.71c2.55 0 4.78 1.652 5.52 3.822l.26.775.57-.588c1.19-1.233 2.84-1.929 4.82-1.929h.02c3.96-.14 7.09 2.793 7.09 6.188v.034c.15 2.163-1.03 4.079-2.84 5.187z" stroke="url(#paint25_linear)"/></g><g filter="url(#filter13_d)"><path d="M568.875 350.066c0-3.566-2.752-6.39-6.474-7.133 1.78-1.189 2.913-2.972 2.913-5.201 0-3.418-3.075-6.242-6.959-6.093-1.78 0-3.56.743-4.693 1.783-.647-2.229-2.913-3.864-5.503-3.715a7.787 7.787 0 00.486-2.675c0-4.161-3.884-7.579-8.416-7.431-2.265 0-4.369.892-5.826 2.378-.809-2.08-2.751-3.566-5.017-4.012.162-.595.324-1.338.324-2.081 0-4.161-3.884-7.579-8.416-7.43-3.236 0-5.988 1.783-7.282 4.161a7.42 7.42 0 00-4.694-1.635c-3.884 0-7.121 2.972-6.959 6.688 0 .891.162 1.634.486 2.377h-.486c-2.104 0-4.046 1.189-5.017 2.824-1.133-2.081-3.56-3.567-6.311-3.567-3.723 0-6.798 2.824-6.636 6.39 0 .595.162 1.041.324 1.635-.809-.148-1.619-.297-2.59-.297-4.855 0-8.577 3.715-8.577 8.173 0 2.527 1.295 4.607 3.237 6.093-2.104.892-3.399 2.824-3.399 5.053 0 3.121 2.913 5.647 6.312 5.499v.148c0 3.716 3.398 6.688 7.444 6.688l75.255-1.04v-.149c3.722-.743 6.474-3.864 6.474-7.431z" fill="url(#paint26_linear)"/><path d="M562.124 342.517l-1.004.67 1.183.237c3.542.706 6.072 3.364 6.072 6.642 0 3.302-2.556 6.239-6.072 6.941l-.402.08v.065l-74.755 1.034h-.003c-3.824-.002-6.941-2.802-6.941-6.188v-.671l-.522.023c-3.161.139-5.79-2.208-5.79-4.999 0-2.023 1.17-3.777 3.094-4.592l.791-.335-.682-.523c-1.848-1.414-3.041-3.358-3.041-5.696 0-4.166 3.482-7.673 8.077-7.673.92 0 1.688.14 2.5.289l.781.143-.209-.766-.089-.318c-.127-.452-.217-.768-.217-1.186v-.022c-.147-3.236 2.65-5.868 6.136-5.868 2.577 0 4.831 1.394 5.872 3.306l.42.772.449-.756c.883-1.487 2.664-2.579 4.587-2.579h1.249l-.305-.699a5.225 5.225 0 01-.444-2.178v-.022c-.148-3.385 2.812-6.166 6.459-6.166 1.666 0 3.174.555 4.38 1.525l.467.374.286-.525c1.206-2.216 3.789-3.9 6.843-3.9h.008l.009-.001c4.294-.14 7.899 3.096 7.899 6.931 0 .677-.149 1.37-.306 1.949l-.141.519.527.103c2.119.417 3.908 1.802 4.647 3.703l.281.722.542-.553c1.359-1.387 3.333-2.228 5.469-2.228h.017c4.294-.141 7.899 3.096 7.899 6.931 0 .83-.15 1.664-.456 2.504l-.258.714.757-.044c2.367-.136 4.414 1.36 4.994 3.356l.225.774.593-.546c1.041-.955 2.701-1.651 4.355-1.651h.01l.009-.001c3.64-.139 6.44 2.497 6.44 5.594 0 2.037-1.027 3.675-2.69 4.785z" stroke="url(#paint27_linear)"/></g><g filter="url(#filter14_d)"><path d="M989.87 51.912c0-2.378-1.619-4.31-4.046-5.053 0-.149-.162-.297-.162-.297.324-.595.485-1.19.485-1.784 0-1.188-.647-2.377-1.618-3.12a5.432 5.432 0 001.457-3.716c0-3.27-2.913-5.944-6.474-5.944-1.78 0-3.399.743-4.693 1.783a4.189 4.189 0 00-3.884-2.526c-1.457 0-2.59.594-3.399 1.635-.485-1.486-2.104-2.527-3.884-2.527h-.162c0-.297.162-.446.162-.743 0-2.526-2.266-4.607-5.017-4.607-.809 0-1.457.149-2.104.446v-.149c0-2.823-2.589-5.2-5.664-5.2-1.781 0-3.399.742-4.37 1.931-1.295-2.08-3.722-3.567-6.635-3.567-4.208 0-7.607 3.121-7.607 6.985v.297c-.323-.148-.647-.148-1.133-.148-1.294 0-2.589.594-3.236 1.486-1.295-1.784-3.561-2.972-6.15-2.972-4.208 0-7.607 3.12-7.607 6.984v.743c-2.589.298-4.531 2.08-4.855 4.31-.647-.297-1.294-.297-1.942-.297-2.751 0-5.017 2.08-5.017 4.607 0 1.486.809 2.823 1.942 3.715-2.751 1.04-4.531 3.567-4.531 6.39 0 3.864 3.398 6.985 7.606 6.985.648 0 77.359-.149 77.359-.149 3.237-.743 5.179-2.972 5.179-5.498z" fill="url(#paint28_linear)"/><path d="M985.322 46.928l.002.003v.298l.353.108c2.254.69 3.693 2.452 3.693 4.575 0 2.221-1.699 4.281-4.737 4.998h-.163l-.642.002-2.435.005-8.699.017-26.441.05-38.921.075c-3.972 0-7.106-2.936-7.106-6.485 0-2.606 1.643-4.952 4.208-5.922l.828-.313-.695-.548c-1.041-.82-1.752-2.022-1.752-3.322 0-2.211 2.001-4.107 4.517-4.107.66 0 1.2.006 1.734.251l.607.28.096-.662c.286-1.973 2.019-3.61 4.417-3.885l.443-.05v-.612 0-.026 0-.017 0-.007 0-.018 0-.011 0-.015 0-.004 0-.048 0-.004 0-.004 0-.004 0-.013 0-.004 0-.004 0-.009 0-.004 0-.004 0-.008 0-.004 0-.004 0-.01 0-.004 0-.004 0-.009 0-.004 0-.004 0-.013 0-.004 0-.004 0-.004 0-.004 0-.032 0-.004 0-.004 0-.015 0-.015 0-.007 0-.028 0-.02 0-.016 0-.162c0-3.548 3.134-6.484 7.107-6.484 2.438 0 4.55 1.12 5.745 2.765l.405.558.404-.558c.536-.738 1.666-1.28 2.832-1.28.511 0 .718.009.925.104l.708.325v-.78 0-.002 0-.002 0-.002 0-.003 0-.002 0-.003 0-.002 0-.002 0-.002 0-.002 0-.002 0-.001 0-.002 0-.002 0-.002 0-.001 0-.002 0-.001 0-.002 0-.002 0-.001 0-.002 0-.002 0-.001 0-.002 0-.002 0-.002 0-.002 0-.002 0-.002 0-.002 0-.001 0-.002 0-.002 0-.001 0-.002 0-.002 0-.001 0-.002 0-.001 0-.002 0-.001 0-.001 0-.002 0-.001 0-.001 0-.002 0-.001 0-.001 0-.001 0-.002 0-.001 0-.001 0-.001 0-.001 0-.001 0-.001 0-.002 0-.001 0-.001 0-.001 0-.001 0-.001 0-.001 0-.001 0-.001 0-.001 0-.001 0-.001 0-.001 0-.001 0-.001 0-.001 0-.001 0-.001 0-.001 0-.001 0-.001 0-.001 0-.001 0-.001 0-.001 0-.001 0-.001 0-.001 0-.001 0-.001 0-.001 0-.001 0-.001 0-.001 0-.001 0-.001 0-.001 0-.001 0-.001 0-.001 0-.001 0-.001 0-.001 0-.001 0-.001 0-.001 0-.001 0-.001 0-.001 0-.001 0-.001 0-.001 0-.001 0-.001 0-.001 0-.001 0-.001 0-.001 0-.001 0-.001 0-.001 0-.001 0-.001 0-.001 0-.001 0-.001 0-.001 0-.001 0-.001 0-.001 0-.001 0-.001 0-.001 0-.001 0-.001 0-.001 0-.001 0-.001 0-.001 0-.001 0-.001 0-.001 0-.001 0-.001 0-.001 0-.001 0-.001 0-.001 0-.001 0-.001 0-.001 0-.001 0-.001 0-.001 0-.001 0-.001 0-.001 0-.001 0-.001 0-.001 0-.001 0-.001 0-.001 0-.001 0-.001 0-.001 0-.001 0-.001 0-.002 0-.001 0-.001 0-.001 0-.001 0-.001 0-.002 0-.001 0-.001 0-.001 0-.002 0-.001 0-.002 0-.001 0-.001 0-.002 0-.001 0-.002 0-.001 0-.002 0-.002 0-.001 0-.002 0-.002 0-.002 0-.001 0-.002 0-.002 0-.002 0-.002 0-.001 0-.002 0-.002 0-.002 0-.001 0-.002 0-.002 0-.001 0-.002 0-.001 0-.002 0-.001 0-.002 0-.001 0-.002 0-.001 0-.002 0-.002 0-.002 0-.002 0-.002 0-.002 0-.002 0-.003 0-.002 0-.002 0-.003c0-3.548 3.134-6.485 7.107-6.485 2.739 0 5.006 1.396 6.211 3.331l.369.594.442-.542c.866-1.06 2.335-1.748 3.983-1.748 2.839 0 5.164 2.193 5.164 4.701v.929l.709-.326c.58-.266 1.156-.4 1.895-.4 2.516 0 4.517 1.896 4.517 4.107 0 .052-.01.089-.051.201l-.004.011a1.479 1.479 0 00-.107.531v.5h.662c1.609 0 3.003.94 3.409 2.182l.292.894.578-.742c.715-.92 1.703-1.442 3.004-1.442 1.574 0 2.855.916 3.425 2.226l.262.6.51-.41c1.231-.989 2.742-1.673 4.38-1.673 3.325 0 5.974 2.49 5.974 5.444a4.933 4.933 0 01-1.322 3.374l-.377.403.438.336c.863.66 1.422 1.708 1.422 2.723 0 .5-.135 1.013-.424 1.545l-.187.343.282.259h.001l.003.003z" stroke="url(#paint29_linear)"/></g><g filter="url(#filter15_d)"><path d="M1294.5 146.068c0-5.647-5.02-10.254-11.17-10.254-1.13 0-2.26.148-3.23.446.48-1.189.81-2.527.81-4.013 0-6.39-5.67-11.592-12.63-11.592-6.15 0-11.33 4.013-12.3 9.363-1.13-4.904-5.82-8.471-11.33-8.471-1.13 0-2.1.149-3.07.446v-.446c0-8.025-6.96-14.415-15.7-14.415-8.74 0-15.7 6.39-15.7 14.415 0 1.783.33 3.418.97 4.904a11.655 11.655 0 00-4.53-.891c-5.82 0-10.68 4.161-11.16 9.511-1.95-1.189-4.37-1.784-6.8-1.784-6.96 0-12.62 5.202-12.62 11.592 0 6.39 5.66 11.592 12.62 11.592h97.1v-.149c5.02-1.04 8.74-5.201 8.74-10.254z" fill="url(#paint30_linear)"/><path d="M1279.63 136.07l-.39.976 1-.308c.92-.281 2-.424 3.09-.424 5.92 0 10.67 4.422 10.67 9.754 0 4.79-3.53 8.767-8.34 9.764l-.4.083v.056h-96.6c-6.73 0-12.12-5.017-12.12-11.092s5.39-11.092 12.12-11.092c2.35 0 4.68.577 6.53 1.71l.69.42.07-.801c.46-5.063 5.07-9.056 10.67-9.056 1.55 0 2.95.284 4.35.854l1.13.465-.49-1.127c-.61-1.417-.93-2.983-.93-4.705 0-7.709 6.7-13.915 15.2-13.915 8.51 0 15.2 6.206 15.2 13.915v1.122l.65-.198a9.656 9.656 0 012.92-.424c5.3 0 9.77 3.429 10.85 8.083l.98-.023c.92-5.077 5.86-8.952 11.8-8.952 6.73 0 12.13 5.017 12.13 11.092 0 1.412-.31 2.685-.78 3.823z" stroke="url(#paint31_linear)"/></g><g filter="url(#filter16_d)"><path d="M996.349 232.265c0-5.647-5.017-10.254-11.167-10.254-1.133 0-2.265.148-3.236.446.485-1.189.809-2.527.809-4.013 0-6.39-5.665-11.591-12.624-11.591-6.149 0-11.328 4.012-12.299 9.362-1.133-4.904-5.826-8.471-11.329-8.471-1.133 0-2.104.149-3.075.446v-.446c0-8.025-6.959-14.415-15.698-14.415-8.74 0-15.699 6.39-15.699 14.415 0 1.784.324 3.418.971 4.904a11.69 11.69 0 00-4.531-.891c-5.826 0-10.681 4.161-11.167 9.511-1.942-1.189-4.369-1.784-6.797-1.784-6.959 0-12.623 5.202-12.623 11.592 0 6.39 5.664 11.592 12.623 11.592h97.103v-.149c5.017-1.04 8.739-5.201 8.739-10.254z" fill="url(#paint32_linear)"/><path d="M981.483 222.268l-.399.975 1.008-.308c.915-.28 1.998-.424 3.09-.424 5.915 0 10.667 4.422 10.667 9.754 0 4.791-3.53 8.767-8.341 9.765l-.398.082v.056h-96.603c-6.724 0-12.123-5.017-12.123-11.092s5.399-11.092 12.123-11.092c2.352 0 4.685.577 6.536 1.71l.686.42.073-.801c.46-5.063 5.07-9.056 10.669-9.056 1.552 0 2.945.284 4.343.854l1.138.465-.491-1.127c-.617-1.417-.93-2.983-.93-4.705 0-7.709 6.695-13.915 15.199-13.915s15.198 6.206 15.198 13.915v1.122l.646-.198a9.701 9.701 0 012.929-.424c5.294 0 9.766 3.429 10.842 8.084l.979-.024c.921-5.076 5.861-8.951 11.807-8.951 6.724 0 12.124 5.016 12.124 11.091 0 1.412-.307 2.685-.772 3.824z" stroke="url(#paint33_linear)"/></g><g filter="url(#filter17_d)"><path d="M169.621 49.936c0-5.647-5.017-10.254-11.166-10.254-1.133 0-2.266.148-3.237.446a10.55 10.55 0 00.809-4.013c0-6.39-5.664-11.592-12.623-11.592-6.15 0-11.329 4.013-12.3 9.363-1.133-4.904-5.826-8.47-11.329-8.47-1.133 0-2.104.148-3.075.445v-.446C116.7 17.39 109.741 11 101.002 11c-8.74 0-15.698 6.39-15.698 14.415 0 1.784.323 3.418.97 4.904a11.686 11.686 0 00-4.53-.891c-5.827 0-10.682 4.16-11.168 9.51-1.942-1.188-4.37-1.783-6.797-1.783-6.959 0-12.623 5.202-12.623 11.592 0 6.39 5.664 11.592 12.623 11.592h97.103v-.15c5.017-1.04 8.739-5.2 8.739-10.253z" fill="url(#paint34_linear)"/><path d="M154.755 39.938l-.399.976 1.008-.308c.916-.28 1.998-.424 3.091-.424 5.914 0 10.666 4.422 10.666 9.754 0 4.79-3.53 8.767-8.34 9.764l-.399.083v.056H63.779c-6.724 0-12.123-5.017-12.123-11.092s5.4-11.092 12.123-11.092c2.352 0 4.685.577 6.536 1.71l.687.42.072-.801c.46-5.063 5.07-9.056 10.67-9.056 1.551 0 2.944.284 4.342.854l1.138.465-.49-1.127c-.618-1.417-.93-2.983-.93-4.705 0-7.71 6.694-13.915 15.198-13.915 8.504 0 15.198 6.206 15.198 13.915v1.122l.647-.198a9.688 9.688 0 012.928-.424c5.294 0 9.766 3.429 10.842 8.084l.979-.024c.921-5.077 5.862-8.952 11.808-8.952 6.723 0 12.123 5.017 12.123 11.092 0 1.412-.307 2.685-.772 3.823z" stroke="url(#paint35_linear)"/></g><defs><linearGradient id="paint9_linear" x1="1838.64" y1="358.834" x2="1939.75" y2="358.834" gradientUnits="userSpaceOnUse"><stop stop-color="#DEDDDD"/><stop offset="1" stop-color="#FDFDFD"/></linearGradient><linearGradient id="paint35_linear" x1="51.027" y1="60.484" x2="176.474" y2="60.484" gradientUnits="userSpaceOnUse"><stop stop-color="#DEDDDD"/><stop offset="1" stop-color="#FDFDFD"/></linearGradient><linearGradient id="paint34_linear" x1="78.365" y1="78.49" x2="151.368" y2="-1.012" gradientUnits="userSpaceOnUse"><stop stop-color="#fff"/><stop offset=".391" stop-color="#EEEDEE"/><stop offset=".817" stop-color="#D7D6D6"/></linearGradient><linearGradient id="paint33_linear" x1="877.755" y1="242.813" x2="1003.2" y2="242.813" gradientUnits="userSpaceOnUse"><stop stop-color="#DEDDDD"/><stop offset="1" stop-color="#FDFDFD"/></linearGradient><linearGradient id="paint32_linear" x1="905.093" y1="260.819" x2="978.096" y2="181.318" gradientUnits="userSpaceOnUse"><stop stop-color="#fff"/><stop offset=".391" stop-color="#EEEDEE"/><stop offset=".817" stop-color="#D7D6D6"/></linearGradient><linearGradient id="paint31_linear" x1="1175.91" y1="156.616" x2="1301.35" y2="156.616" gradientUnits="userSpaceOnUse"><stop stop-color="#DEDDDD"/><stop offset="1" stop-color="#FDFDFD"/></linearGradient><linearGradient id="paint30_linear" x1="1203.24" y1="174.622" x2="1276.25" y2="95.12" gradientUnits="userSpaceOnUse"><stop stop-color="#fff"/><stop offset=".391" stop-color="#EEEDEE"/><stop offset=".817" stop-color="#D7D6D6"/></linearGradient><linearGradient id="paint29_linear" x1="899.628" y1="57.674" x2="995.084" y2="57.674" gradientUnits="userSpaceOnUse"><stop stop-color="#DEDDDD"/><stop offset="1" stop-color="#FDFDFD"/></linearGradient><linearGradient id="paint28_linear" x1="920.43" y1="71.938" x2="978.413" y2="11.284" gradientUnits="userSpaceOnUse"><stop stop-color="#fff"/><stop offset=".391" stop-color="#EEEDEE"/><stop offset=".817" stop-color="#D7D6D6"/></linearGradient><linearGradient id="paint27_linear" x1="473.286" y1="358.834" x2="574.398" y2="358.834" gradientUnits="userSpaceOnUse"><stop stop-color="#DEDDDD"/><stop offset="1" stop-color="#FDFDFD"/></linearGradient><linearGradient id="paint26_linear" x1="495.321" y1="377.167" x2="569.107" y2="313.556" gradientUnits="userSpaceOnUse"><stop stop-color="#fff"/><stop offset=".391" stop-color="#EEEDEE"/><stop offset=".817" stop-color="#D7D6D6"/></linearGradient><linearGradient id="paint25_linear" x1="1167.01" y1="361.136" x2="1278.06" y2="361.136" gradientUnits="userSpaceOnUse"><stop stop-color="#DEDDDD"/><stop offset="1" stop-color="#FDFDFD"/></linearGradient><linearGradient id="paint24_linear" x1="1191.21" y1="381.26" x2="1272.21" y2="311.391" gradientUnits="userSpaceOnUse"><stop stop-color="#fff"/><stop offset=".391" stop-color="#EEEDEE"/><stop offset=".817" stop-color="#D7D6D6"/></linearGradient><linearGradient id="paint23_linear" x1="509.981" y1="178.163" x2="581.787" y2="178.163" gradientUnits="userSpaceOnUse"><stop stop-color="#DEDDDD"/><stop offset="1" stop-color="#FDFDFD"/></linearGradient><linearGradient id="paint22_linear" x1="525.629" y1="188.847" x2="569.052" y2="143.23" gradientUnits="userSpaceOnUse"><stop stop-color="#fff"/><stop offset=".391" stop-color="#EEEDEE"/><stop offset=".817" stop-color="#D7D6D6"/></linearGradient><linearGradient id="paint21_linear" x1="375.498" y1="316.244" x2="280.705" y2="316.244" gradientUnits="userSpaceOnUse"><stop stop-color="#FEFEFE"/><stop offset="1" stop-color="#D8D7D6"/></linearGradient><linearGradient id="paint20_linear" x1="280.309" y1="291.284" x2="375.472" y2="292.071" gradientUnits="userSpaceOnUse"><stop stop-color="#fff"/><stop offset=".308" stop-color="#F7F7F7"/><stop offset=".718" stop-color="#E2E2E2"/><stop offset=".903" stop-color="#D7D6D6"/></linearGradient><linearGradient id="paint19_linear" x1="196.85" y1="328.966" x2="343.415" y2="328.966" gradientUnits="userSpaceOnUse"><stop stop-color="#DCDBDB"/><stop offset="1" stop-color="#FDFDFC"/></linearGradient><linearGradient id="paint0_linear" x1="1590.26" y1="331.204" x2="1679.61" y2="233.906" gradientUnits="userSpaceOnUse"><stop stop-color="#fff"/><stop offset=".391" stop-color="#EEEDEE"/><stop offset=".817" stop-color="#D7D6D6"/></linearGradient><linearGradient id="paint1_linear" x1="1558.4" y1="308.966" x2="1704.97" y2="308.966" gradientUnits="userSpaceOnUse"><stop stop-color="#DCDBDB"/><stop offset="1" stop-color="#FDFDFC"/></linearGradient><linearGradient id="paint2_linear" x1="1641.86" y1="271.284" x2="1737.02" y2="272.071" gradientUnits="userSpaceOnUse"><stop stop-color="#fff"/><stop offset=".308" stop-color="#F7F7F7"/><stop offset=".718" stop-color="#E2E2E2"/><stop offset=".903" stop-color="#D7D6D6"/></linearGradient><linearGradient id="paint3_linear" x1="1737.05" y1="296.244" x2="1642.26" y2="296.244" gradientUnits="userSpaceOnUse"><stop stop-color="#FEFEFE"/><stop offset="1" stop-color="#D8D7D6"/></linearGradient><linearGradient id="paint4_linear" x1="1890.98" y1="188.847" x2="1934.4" y2="143.23" gradientUnits="userSpaceOnUse"><stop stop-color="#fff"/><stop offset=".391" stop-color="#EEEDEE"/><stop offset=".817" stop-color="#D7D6D6"/></linearGradient><linearGradient id="paint5_linear" x1="1875.33" y1="178.163" x2="1947.14" y2="178.163" gradientUnits="userSpaceOnUse"><stop stop-color="#DEDDDD"/><stop offset="1" stop-color="#FDFDFD"/></linearGradient><linearGradient id="paint6_linear" x1="2556.56" y1="381.26" x2="2637.56" y2="311.391" gradientUnits="userSpaceOnUse"><stop stop-color="#fff"/><stop offset=".391" stop-color="#EEEDEE"/><stop offset=".817" stop-color="#D7D6D6"/></linearGradient><linearGradient id="paint7_linear" x1="2532.36" y1="361.136" x2="2643.41" y2="361.136" gradientUnits="userSpaceOnUse"><stop stop-color="#DEDDDD"/><stop offset="1" stop-color="#FDFDFD"/></linearGradient><linearGradient id="paint8_linear" x1="1860.67" y1="377.167" x2="1934.46" y2="313.556" gradientUnits="userSpaceOnUse"><stop stop-color="#fff"/><stop offset=".391" stop-color="#EEEDEE"/><stop offset=".817" stop-color="#D7D6D6"/></linearGradient><linearGradient id="paint18_linear" x1="228.709" y1="351.204" x2="318.054" y2="253.906" gradientUnits="userSpaceOnUse"><stop stop-color="#fff"/><stop offset=".391" stop-color="#EEEDEE"/><stop offset=".817" stop-color="#D7D6D6"/></linearGradient><linearGradient id="paint10_linear" x1="2285.78" y1="71.938" x2="2343.76" y2="11.284" gradientUnits="userSpaceOnUse"><stop stop-color="#fff"/><stop offset=".391" stop-color="#EEEDEE"/><stop offset=".817" stop-color="#D7D6D6"/></linearGradient><linearGradient id="paint11_linear" x1="2264.98" y1="57.674" x2="2360.44" y2="57.674" gradientUnits="userSpaceOnUse"><stop stop-color="#DEDDDD"/><stop offset="1" stop-color="#FDFDFD"/></linearGradient><linearGradient id="paint12_linear" x1="2568.6" y1="174.622" x2="2641.6" y2="95.12" gradientUnits="userSpaceOnUse"><stop stop-color="#fff"/><stop offset=".391" stop-color="#EEEDEE"/><stop offset=".817" stop-color="#D7D6D6"/></linearGradient><linearGradient id="paint13_linear" x1="2541.26" y1="156.616" x2="2666.71" y2="156.616" gradientUnits="userSpaceOnUse"><stop stop-color="#DEDDDD"/><stop offset="1" stop-color="#FDFDFD"/></linearGradient><linearGradient id="paint14_linear" x1="2270.45" y1="260.819" x2="2343.45" y2="181.318" gradientUnits="userSpaceOnUse"><stop stop-color="#fff"/><stop offset=".391" stop-color="#EEEDEE"/><stop offset=".817" stop-color="#D7D6D6"/></linearGradient><linearGradient id="paint15_linear" x1="2243.11" y1="242.813" x2="2368.55" y2="242.813" gradientUnits="userSpaceOnUse"><stop stop-color="#DEDDDD"/><stop offset="1" stop-color="#FDFDFD"/></linearGradient><linearGradient id="paint16_linear" x1="1443.72" y1="78.49" x2="1516.72" y2="-1.012" gradientUnits="userSpaceOnUse"><stop stop-color="#fff"/><stop offset=".391" stop-color="#EEEDEE"/><stop offset=".817" stop-color="#D7D6D6"/></linearGradient><linearGradient id="paint17_linear" x1="1416.38" y1="60.484" x2="1541.83" y2="60.484" gradientUnits="userSpaceOnUse"><stop stop-color="#DEDDDD"/><stop offset="1" stop-color="#FDFDFD"/></linearGradient><filter id="filter9_d" x="176.449" y="257.82" width="175.007" height="90.187" filterUnits="userSpaceOnUse" color-interpolation-filters="sRGB"><feFlood flood-opacity="0" result="BackgroundImageFix"/><feColorMatrix in="SourceAlpha" values="0 0 0 0 0 0 0 0 0 0 0 0 0 0 0 0 0 0 127 0"/><feOffset dx="-4" dy="4"/><feGaussianBlur stdDeviation="7.5"/><feColorMatrix values="0 0 0 0 0 0 0 0 0 0 0 0 0 0 0 0 0 0 0.25 0"/><feBlend in2="BackgroundImageFix" result="effect1_dropShadow"/><feBlend in="SourceGraphic" in2="effect1_dropShadow" result="shape"/></filter><filter id="filter1_d" x="1623.29" y="235.883" width="124.675" height="79.641" filterUnits="userSpaceOnUse" color-interpolation-filters="sRGB"><feFlood flood-opacity="0" result="BackgroundImageFix"/><feColorMatrix in="SourceAlpha" values="0 0 0 0 0 0 0 0 0 0 0 0 0 0 0 0 0 0 127 0"/><feOffset dx="-4" dy="4"/><feGaussianBlur stdDeviation="7.5"/><feColorMatrix values="0 0 0 0 0 0 0 0 0 0 0 0 0 0 0 0 0 0 0.25 0"/><feBlend in2="BackgroundImageFix" result="effect1_dropShadow"/><feBlend in="SourceGraphic" in2="effect1_dropShadow" result="shape"/></filter><filter id="filter16_d" x="858.884" y="182.329" width="148.466" height="79.339" filterUnits="userSpaceOnUse" color-interpolation-filters="sRGB"><feFlood flood-opacity="0" result="BackgroundImageFix"/><feColorMatrix in="SourceAlpha" values="0 0 0 0 0 0 0 0 0 0 0 0 0 0 0 0 0 0 127 0"/><feOffset dx="-4" dy="4"/><feGaussianBlur stdDeviation="7.5"/><feColorMatrix values="0 0 0 0 0 0 0 0 0 0 0 0 0 0 0 0 0 0 0.25 0"/><feBlend in2="BackgroundImageFix" result="effect1_dropShadow"/><feBlend in="SourceGraphic" in2="effect1_dropShadow" result="shape"/></filter><filter id="filter15_d" x="1157.04" y="96.132" width="148.466" height="79.338" filterUnits="userSpaceOnUse" color-interpolation-filters="sRGB"><feFlood flood-opacity="0" result="BackgroundImageFix"/><feColorMatrix in="SourceAlpha" values="0 0 0 0 0 0 0 0 0 0 0 0 0 0 0 0 0 0 127 0"/><feOffset dx="-4" dy="4"/><feGaussianBlur stdDeviation="7.5"/><feColorMatrix values="0 0 0 0 0 0 0 0 0 0 0 0 0 0 0 0 0 0 0.25 0"/><feBlend in2="BackgroundImageFix" result="effect1_dropShadow"/><feBlend in="SourceGraphic" in2="effect1_dropShadow" result="shape"/></filter><filter id="filter14_d" x="880.726" y="7.474" width="120.144" height="69.085" filterUnits="userSpaceOnUse" color-interpolation-filters="sRGB"><feFlood flood-opacity="0" result="BackgroundImageFix"/><feColorMatrix in="SourceAlpha" values="0 0 0 0 0 0 0 0 0 0 0 0 0 0 0 0 0 0 127 0"/><feOffset dx="-4" dy="4"/><feGaussianBlur stdDeviation="7.5"/><feColorMatrix values="0 0 0 0 0 0 0 0 0 0 0 0 0 0 0 0 0 0 0.25 0"/><feBlend in2="BackgroundImageFix" result="effect1_dropShadow"/><feBlend in="SourceGraphic" in2="effect1_dropShadow" result="shape"/></filter><filter id="filter13_d" x="454.39" y="297.451" width="125.485" height="80.235" filterUnits="userSpaceOnUse" color-interpolation-filters="sRGB"><feFlood flood-opacity="0" result="BackgroundImageFix"/><feColorMatrix in="SourceAlpha" values="0 0 0 0 0 0 0 0 0 0 0 0 0 0 0 0 0 0 127 0"/><feOffset dx="-4" dy="4"/><feGaussianBlur stdDeviation="7.5"/><feColorMatrix values="0 0 0 0 0 0 0 0 0 0 0 0 0 0 0 0 0 0 0.25 0"/><feBlend in2="BackgroundImageFix" result="effect1_dropShadow"/><feBlend in="SourceGraphic" in2="effect1_dropShadow" result="shape"/></filter><filter id="filter12_d" x="1148.12" y="294.83" width="134.871" height="85.144" filterUnits="userSpaceOnUse" color-interpolation-filters="sRGB"><feFlood flood-opacity="0" result="BackgroundImageFix"/><feColorMatrix in="SourceAlpha" values="0 0 0 0 0 0 0 0 0 0 0 0 0 0 0 0 0 0 127 0"/><feOffset dx="-4" dy="4"/><feGaussianBlur stdDeviation="7.5"/><feColorMatrix values="0 0 0 0 0 0 0 0 0 0 0 0 0 0 0 0 0 0 0.25 0"/><feBlend in2="BackgroundImageFix" result="effect1_dropShadow"/><feBlend in="SourceGraphic" in2="effect1_dropShadow" result="shape"/></filter><filter id="filter11_d" x="491.055" y="137.801" width="97.81" height="59.276" filterUnits="userSpaceOnUse" color-interpolation-filters="sRGB"><feFlood flood-opacity="0" result="BackgroundImageFix"/><feColorMatrix in="SourceAlpha" values="0 0 0 0 0 0 0 0 0 0 0 0 0 0 0 0 0 0 127 0"/><feOffset dx="-4" dy="4"/><feGaussianBlur stdDeviation="7.5"/><feColorMatrix values="0 0 0 0 0 0 0 0 0 0 0 0 0 0 0 0 0 0 0.25 0"/><feBlend in2="BackgroundImageFix" result="effect1_dropShadow"/><feBlend in="SourceGraphic" in2="effect1_dropShadow" result="shape"/></filter><filter id="filter10_d" x="261.738" y="255.883" width="124.675" height="79.641" filterUnits="userSpaceOnUse" color-interpolation-filters="sRGB"><feFlood flood-opacity="0" result="BackgroundImageFix"/><feColorMatrix in="SourceAlpha" values="0 0 0 0 0 0 0 0 0 0 0 0 0 0 0 0 0 0 127 0"/><feOffset dx="-4" dy="4"/><feGaussianBlur stdDeviation="7.5"/><feColorMatrix values="0 0 0 0 0 0 0 0 0 0 0 0 0 0 0 0 0 0 0.25 0"/><feBlend in2="BackgroundImageFix" result="effect1_dropShadow"/><feBlend in="SourceGraphic" in2="effect1_dropShadow" result="shape"/></filter><filter id="filter17_d" x="32.156" y="0" width="148.466" height="79.338" filterUnits="userSpaceOnUse" color-interpolation-filters="sRGB"><feFlood flood-opacity="0" result="BackgroundImageFix"/><feColorMatrix in="SourceAlpha" values="0 0 0 0 0 0 0 0 0 0 0 0 0 0 0 0 0 0 127 0"/><feOffset dx="-4" dy="4"/><feGaussianBlur stdDeviation="7.5"/><feColorMatrix values="0 0 0 0 0 0 0 0 0 0 0 0 0 0 0 0 0 0 0.25 0"/><feBlend in2="BackgroundImageFix" result="effect1_dropShadow"/><feBlend in="SourceGraphic" in2="effect1_dropShadow" result="shape"/></filter><filter id="filter8_d" x="1397.51" y="0" width="148.466" height="79.338" filterUnits="userSpaceOnUse" color-interpolation-filters="sRGB"><feFlood flood-opacity="0" result="BackgroundImageFix"/><feColorMatrix in="SourceAlpha" values="0 0 0 0 0 0 0 0 0 0 0 0 0 0 0 0 0 0 127 0"/><feOffset dx="-4" dy="4"/><feGaussianBlur stdDeviation="7.5"/><feColorMatrix values="0 0 0 0 0 0 0 0 0 0 0 0 0 0 0 0 0 0 0.25 0"/><feBlend in2="BackgroundImageFix" result="effect1_dropShadow"/><feBlend in="SourceGraphic" in2="effect1_dropShadow" result="shape"/></filter><filter id="filter7_d" x="2224.24" y="182.329" width="148.466" height="79.339" filterUnits="userSpaceOnUse" color-interpolation-filters="sRGB"><feFlood flood-opacity="0" result="BackgroundImageFix"/><feColorMatrix in="SourceAlpha" values="0 0 0 0 0 0 0 0 0 0 0 0 0 0 0 0 0 0 127 0"/><feOffset dx="-4" dy="4"/><feGaussianBlur stdDeviation="7.5"/><feColorMatrix values="0 0 0 0 0 0 0 0 0 0 0 0 0 0 0 0 0 0 0.25 0"/><feBlend in2="BackgroundImageFix" result="effect1_dropShadow"/><feBlend in="SourceGraphic" in2="effect1_dropShadow" result="shape"/></filter><filter id="filter6_d" x="2522.39" y="96.132" width="148.466" height="79.338" filterUnits="userSpaceOnUse" color-interpolation-filters="sRGB"><feFlood flood-opacity="0" result="BackgroundImageFix"/><feColorMatrix in="SourceAlpha" values="0 0 0 0 0 0 0 0 0 0 0 0 0 0 0 0 0 0 127 0"/><feOffset dx="-4" dy="4"/><feGaussianBlur stdDeviation="7.5"/><feColorMatrix values="0 0 0 0 0 0 0 0 0 0 0 0 0 0 0 0 0 0 0.25 0"/><feBlend in2="BackgroundImageFix" result="effect1_dropShadow"/><feBlend in="SourceGraphic" in2="effect1_dropShadow" result="shape"/></filter><filter id="filter5_d" x="2246.08" y="7.474" width="120.144" height="69.085" filterUnits="userSpaceOnUse" color-interpolation-filters="sRGB"><feFlood flood-opacity="0" result="BackgroundImageFix"/><feColorMatrix in="SourceAlpha" values="0 0 0 0 0 0 0 0 0 0 0 0 0 0 0 0 0 0 127 0"/><feOffset dx="-4" dy="4"/><feGaussianBlur stdDeviation="7.5"/><feColorMatrix values="0 0 0 0 0 0 0 0 0 0 0 0 0 0 0 0 0 0 0.25 0"/><feBlend in2="BackgroundImageFix" result="effect1_dropShadow"/><feBlend in="SourceGraphic" in2="effect1_dropShadow" result="shape"/></filter><filter id="filter4_d" x="1819.74" y="297.451" width="125.485" height="80.235" filterUnits="userSpaceOnUse" color-interpolation-filters="sRGB"><feFlood flood-opacity="0" result="BackgroundImageFix"/><feColorMatrix in="SourceAlpha" values="0 0 0 0 0 0 0 0 0 0 0 0 0 0 0 0 0 0 127 0"/><feOffset dx="-4" dy="4"/><feGaussianBlur stdDeviation="7.5"/><feColorMatrix values="0 0 0 0 0 0 0 0 0 0 0 0 0 0 0 0 0 0 0.25 0"/><feBlend in2="BackgroundImageFix" result="effect1_dropShadow"/><feBlend in="SourceGraphic" in2="effect1_dropShadow" result="shape"/></filter><filter id="filter3_d" x="2513.47" y="294.83" width="134.871" height="85.144" filterUnits="userSpaceOnUse" color-interpolation-filters="sRGB"><feFlood flood-opacity="0" result="BackgroundImageFix"/><feColorMatrix in="SourceAlpha" values="0 0 0 0 0 0 0 0 0 0 0 0 0 0 0 0 0 0 127 0"/><feOffset dx="-4" dy="4"/><feGaussianBlur stdDeviation="7.5"/><feColorMatrix values="0 0 0 0 0 0 0 0 0 0 0 0 0 0 0 0 0 0 0.25 0"/><feBlend in2="BackgroundImageFix" result="effect1_dropShadow"/><feBlend in="SourceGraphic" in2="effect1_dropShadow" result="shape"/></filter><filter id="filter2_d" x="1856.41" y="137.801" width="97.81" height="59.276" filterUnits="userSpaceOnUse" color-interpolation-filters="sRGB"><feFlood flood-opacity="0" result="BackgroundImageFix"/><feColorMatrix in="SourceAlpha" values="0 0 0 0 0 0 0 0 0 0 0 0 0 0 0 0 0 0 127 0"/><feOffset dx="-4" dy="4"/><feGaussianBlur stdDeviation="7.5"/><feColorMatrix values="0 0 0 0 0 0 0 0 0 0 0 0 0 0 0 0 0 0 0.25 0"/><feBlend in2="BackgroundImageFix" result="effect1_dropShadow"/><feBlend in="SourceGraphic" in2="effect1_dropShadow" result="shape"/></filter><filter id="filter0_d" x="1538" y="237.82" width="175.007" height="90.187" filterUnits="userSpaceOnUse" color-interpolation-filters="sRGB"><feFlood flood-opacity="0" result="BackgroundImageFix"/><feColorMatrix in="SourceAlpha" values="0 0 0 0 0 0 0 0 0 0 0 0 0 0 0 0 0 0 127 0"/><feOffset dx="-4" dy="4"/><feGaussianBlur stdDeviation="7.5"/><feColorMatrix values="0 0 0 0 0 0 0 0 0 0 0 0 0 0 0 0 0 0 0.25 0"/><feBlend in2="BackgroundImageFix" result="effect1_dropShadow"/><feBlend in="SourceGraphic" in2="effect1_dropShadow" result="shape"/></filter></defs></svg>