<svg width="36" height="36" viewBox="0 0 36 36" fill="none" xmlns="http://www.w3.org/2000/svg"><path fill-rule="evenodd" clip-rule="evenodd" d="M34.08 17.97c0 8.969-7.27 16.24-16.24 16.24-8.969 0-16.24-7.271-16.24-16.24C1.6 9 8.871 1.73 17.84 1.73c8.97 0 16.24 7.27 16.24 16.24zm1.4 0c0 9.742-7.897 17.64-17.64 17.64C8.098 35.61.2 27.712.2 17.97.2 8.226 8.098.33 17.84.33c9.743 0 17.64 7.897 17.64 17.64zm-19.388.62v6.645h3.003V18.59h2.539l.379-2.542h-2.918V14.4c0-.75.228-1.259 1.448-1.259h1.591V10.8c-.27-.03-1.211-.097-2.285-.097-2.241 0-3.756 1.217-3.756 3.426v1.919h-2.546v2.542h2.545z" fill="#E32E30"/></svg>