<svg height="500" width="500" xmlns="http://www.w3.org/2000/svg" viewBox="0 0 16.702 16.702"><path d="M14.265 5.529h-3.052v-.006H9.499c.104-.1.187-.218.246-.349a3.43 3.43 0 001.037-.139 4.865 4.865 0 001.174-.518c.369-.22.714-.48 1.031-.766.162-.141.313-.292.461-.448.149-.16.287-.311.431-.502a.43.43 0 00-.05-.567l-.026-.025A46.35 46.35 0 0011.392.117L11.371.1a.445.445 0 00-.621.057 37.497 37.497 0 00-1.444 1.804c-.231.31-.46.623-.678.943-.072.104-.142.211-.212.316-.19-.247-.386-.486-.589-.719-.23-.266-.463-.53-.704-.785a32.46 32.46 0 00-.729-.755 30.395 30.395 0 00-.75-.732L5.642.226a.427.427 0 00-.604.02l-.025.028c-.367.388-.72.786-1.069 1.187s-.688.81-1.025 1.223l-.02.026a.44.44 0 00.025.583c.317.327.635.607.98.879a7.92 7.92 0 001.095.724c.387.208.802.382 1.242.47.357.076.75.077 1.089-.041.047.073.103.14.164.199H5.569v.006H2.437a.483.483 0 00-.483.483v2.325c0 .268.216.482.483.482h11.829a.48.48 0 00.482-.482V6.013a.484.484 0 00-.483-.484zM8.908 3.16c.299-.249.588-.505.873-.767.457-.417.896-.851 1.33-1.291.289.26.579.518.877.769.303.257.607.509.916.758l-.092.122a13.3 13.3 0 01-.375.449 8.756 8.756 0 01-.832.825 6.345 6.345 0 01-.958.683c-.271.152-.56.282-.866.38a1.153 1.153 0 00-1.08-1.549h-.252c.156-.123.31-.249.459-.379zm-2.55 1.842c-.36-.173-.692-.4-1.009-.647a11.466 11.466 0 01-.908-.802 15.557 15.557 0 01-.553-.567A44.605 44.605 0 005.42 1.187c.153.121.305.244.459.361a30.672 30.672 0 001.714 1.22c.26.172.524.335.795.493-.062.094-.122.189-.183.285a1.151 1.151 0 00-.922 1.701 2.417 2.417 0 01-.925-.245zm.597 3.433V6.141c0-.081.014-.159.037-.232h3.466a.777.777 0 01.037.232v2.294h-3.54zm6.508.901H3.519a.482.482 0 00-.483.482v6.398a.48.48 0 00.483.479h2.802v.007h5.645v-.007h1.498a.48.48 0 00.482-.479V9.818a.48.48 0 00-.483-.482zm-3.061.386v6.594H6.86V9.722h3.542z" fill="#e32e0e"/></svg>