<svg width="36" height="36" viewBox="0 0 36 36" fill="none" xmlns="http://www.w3.org/2000/svg"><path fill-rule="evenodd" clip-rule="evenodd" d="M17.898 34.21c8.97 0 16.24-7.271 16.24-16.24 0-8.97-7.27-16.24-16.24-16.24-8.97 0-16.24 7.27-16.24 16.24 0 8.969 7.27 16.24 16.24 16.24zm0 1.4c9.743 0 17.64-7.898 17.64-17.64 0-9.743-7.897-17.64-17.64-17.64C8.156.33.258 8.226.258 17.97c0 9.742 7.898 17.64 17.64 17.64zm-.726-14.671c-1.141-.118-2.17-.395-3.052-1.075l-.064-.05c-.089-.067-.178-.134-.258-.21-.385-.366-.424-.784-.12-1.216.262-.37.7-.468 1.156-.256.088.041.172.093.253.148 1.642 1.112 3.897 1.144 5.546.05a1.51 1.51 0 01.54-.276c.394-.1.76.043.971.382.242.388.238.767-.058 1.068a4.498 4.498 0 01-1.614 1.03c-.576.219-1.206.33-1.831.404l.072.077c.05.054.084.09.126.132l.96.95h.001c.529.523 1.057 1.046 1.583 1.57.288.288.348.644.19.978-.174.365-.562.606-.942.58-.241-.016-.43-.134-.596-.3-.208-.207-.417-.412-.625-.616-.435-.427-.87-.853-1.294-1.29-.182-.19-.27-.154-.43.01-.645.654-1.299 1.298-1.957 1.937-.295.288-.647.34-.99.176-.364-.174-.596-.541-.578-.91.012-.25.137-.44.31-.611.588-.578 1.174-1.158 1.76-1.738l.753-.745c.036-.035.07-.072.11-.116l.078-.083zm-2.998-6.565c-.012 2.013 1.658 3.678 3.694 3.685 2.057.007 3.738-1.621 3.749-3.63a3.703 3.703 0 00-3.705-3.724c-2.056-.006-3.727 1.634-3.738 3.669zm3.724-1.79c1.01 0 1.817.796 1.82 1.795a1.8 1.8 0 01-1.811 1.803c-1.014.004-1.827-.786-1.834-1.781a1.805 1.805 0 011.825-1.818z" fill="#E32E30"/></svg>