<svg width="107" height="94" viewBox="0 0 107 94" fill="none" xmlns="http://www.w3.org/2000/svg"><path fill-rule="evenodd" clip-rule="evenodd" d="M97.98 8.683c-11.135-11.135-29.189-11.135-40.325 0L53.5 12.84l-4.155-4.155C38.21-2.45 20.154-2.45 9.02 8.684c-11.135 11.136-11.135 29.19 0 40.326l44.358 44.357.123-.123.123.122L97.98 49.01c11.135-11.136 11.135-29.19 0-40.326z" fill="#E32E30"/><path d="M12.888 47.884h9.155v-4.12h-9.155v4.12zm14.908 7.172h5.951l9.46-21.668V29.61h-19.11v4.769h12.817l-9.117 20.676zm17.469-12.703c0 6.56 3.242 13.16 10.529 13.16 7.248 0 10.529-6.6 10.529-13.16 0-6.562-3.281-13.123-10.53-13.123-7.285 0-10.528 6.561-10.528 13.122zm15.526 0c0 4.692-1.373 8.354-4.997 8.354-3.662 0-5.036-3.662-5.036-8.355 0-4.692 1.373-8.316 5.036-8.316 3.624 0 4.997 3.624 4.997 8.316zm7.645-3.184c0 2.903 2.09 5.119 5.274 5.119 3.215 0 5.306-2.216 5.306-5.12 0-2.933-2.09-5.243-5.306-5.243-3.183 0-5.274 2.31-5.274 5.244zm3.246 15.887h2.34L87.35 34.237h-2.372L71.682 55.056zm4.494-15.887c0 1.623-1.03 2.684-2.466 2.684-1.404 0-2.465-1.061-2.465-2.684 0-1.748 1.06-2.778 2.465-2.778 1.436 0 2.466 1.03 2.466 2.778zM79.89 50.28c0 2.903 2.091 5.15 5.275 5.15s5.306-2.247 5.306-5.15c0-2.934-2.122-5.243-5.306-5.243s-5.275 2.31-5.275 5.243zm7.772 0c0 1.686-1.061 2.716-2.497 2.716S82.7 51.966 82.7 50.28c0-1.716 1.03-2.778 2.466-2.778 1.436 0 2.497 1.062 2.497 2.778z" fill="#fff"/></svg>