<svg fill="#e32e0e" xmlns="http://www.w3.org/2000/svg" width="500" height="500" viewBox="0 0 575.538 575.537"><path d="M319.21 339.186L298.201 350.4l9.846 9.848z"/><path d="M213.72 169.154a315.512 315.512 0 00-8.412-56.233C189.46 47.684 163.729 11.39 126.645 1.961 121.525.661 116.52 0 111.767 0 72.44 0 52.428 45.836 50.472 88.422c-2.16 47.093 11.956 95.5 39.752 136.302 3.18 4.667 7.953 7.234 13.443 7.234 6.383 0 12.552-3.559 15.352-8.859 2.463-4.661 2.035-9.85-1.212-14.615-20.649-30.312-32.442-63.819-35.049-99.594-1.261-17.311.196-54.183 14.737-69.82 4.32-4.648 9.33-6.907 15.315-6.907 3.819 0 8.06.955 12.607 2.834 16.793 6.943 25.884 24.504 34.465 43.431 7.038 15.526 12.638 33.295 17.121 54.33 2.772 13.008 4.498 26.451 5.177 40.101l-53.308 6.27-18.498 157.308 239.099 239.1L525.281 399.73l-239.1-239.099-72.461 8.523zm-32.69 45.573a281.386 281.386 0 01-4.232 27.491c-1.007 4.909.095 9.642 3.106 13.33 3.21 3.935 8.43 6.38 13.62 6.38 7.329 0 12.818-4.565 14.327-11.913a316.684 316.684 0 004.89-32.322 32.81 32.81 0 014.538 3.764c6.154 6.153 9.544 14.336 9.544 23.039s-3.391 16.885-9.544 23.036c-6.153 6.151-14.336 9.544-23.039 9.544s-16.885-3.391-23.036-9.544c-12.702-12.702-12.702-33.372 0-46.077a32.515 32.515 0 019.826-6.728zm257.625 220.662l-9.571 9.568-23.238-23.236-7.123 7.123 21.555 21.555-9.144 9.143-21.555-21.555-8.838 8.838 23.911 23.908-10.15 10.15-37.791-37.791 44.823-44.824 37.121 37.121zm-65.004-65l-33.785 33.785 21.616 21.615-11.038 11.039-35.468-35.469 44.822-44.824 13.853 13.854zm-35.095-35.098l-27.98 61.664-14.505-14.5 5.156-9.643-15.726-15.727-9.584 5.215-14.14-14.141 61.671-27.977 15.108 15.109zm-48.498-23.303l-13.819-12.291c1.671-2.363 2.412-4.561 2.216-6.59-.192-2.027-1.27-4.02-3.226-5.975-1.609-1.61-3.164-2.482-4.663-2.613-1.5-.132-2.736.291-3.715 1.27-.713.713-1.019 1.692-.918 2.934.061 1.243 1.059 3.342 2.996 6.299 4.75 7.359 7.766 13.014 9.051 16.967s1.533 7.52.75 10.686c-.783 3.17-2.399 5.979-4.847 8.424-2.874 2.873-6.319 4.729-10.334 5.564-4.015.834-8.075.451-12.185-1.148-4.106-1.6-8.333-4.572-12.674-8.914-7.623-7.621-11.436-14.369-11.436-20.242 0-5.871 2.069-11.26 6.206-16.174l14.002 12.354c-1.854 2.426-2.904 4.639-3.149 6.633-.389 3.24.744 6.186 3.394 8.838 1.977 1.977 3.966 3.035 5.961 3.18 1.998.143 3.608-.398 4.832-1.619 1.163-1.162 1.692-2.711 1.591-4.648-.101-1.938-1.6-5.166-4.495-9.691-4.709-7.438-7.225-13.583-7.552-18.436-.346-4.872 1.233-9.061 4.74-12.567 2.304-2.301 5.147-3.813 8.531-4.526s7.001-.318 10.854 1.193c3.853 1.509 8.112 4.596 12.781 9.263 5.729 5.729 9.03 11.16 9.905 16.298.876 5.133-.721 10.314-4.797 15.531z"/></svg>
