<svg width="233" height="70" viewBox="0 0 233 70" fill="none" xmlns="http://www.w3.org/2000/svg"><path d="M10.96 49.44h24.078V38.605H10.96V49.44zM50.167 68.3h15.65l24.88-56.982V1.387h-50.26v12.54h33.707L50.166 68.3zm45.939-33.406c0 17.255 8.527 34.61 27.688 34.61 19.061 0 27.689-17.356 27.689-34.61 0-17.256-8.628-34.51-27.689-34.51-19.161 0-27.688 17.254-27.688 34.51zm40.83 0c0 12.339-3.611 21.97-13.142 21.97-9.63 0-13.242-9.631-13.242-21.97 0-12.34 3.612-21.87 13.242-21.87 9.531 0 13.142 9.53 13.142 21.87zm19.926-4.891c0 6.997 5.041 12.34 12.715 12.34 7.75 0 12.791-5.343 12.791-12.34 0-7.073-5.041-12.64-12.791-12.64-7.674 0-12.715 5.567-12.715 12.64zm7.825 38.297h5.643l32.127-50.185h-5.718L164.686 68.3zm10.834-38.297c0 3.912-2.483 6.47-5.944 6.47-3.386 0-5.944-2.558-5.944-6.47 0-4.214 2.558-6.697 5.944-6.697 3.461 0 5.944 2.483 5.944 6.697zm8.954 26.785c0 6.998 5.041 12.415 12.715 12.415 7.675 0 12.791-5.417 12.791-12.415 0-7.072-5.116-12.64-12.791-12.64-7.674 0-12.715 5.568-12.715 12.64zm18.734 0c0 4.063-2.558 6.546-6.019 6.546-3.461 0-5.944-2.483-5.944-6.546 0-4.138 2.483-6.696 5.944-6.696s6.019 2.558 6.019 6.696zm19.219-26.248h2.661l-.211-4.646 3.886 2.492 1.352-2.281-4.097-2.112 4.097-2.112-1.352-2.323-3.886 2.492.211-4.646h-2.661l.211 4.646-3.928-2.492-1.309 2.323 4.097 2.112-4.097 2.112 1.309 2.28 3.928-2.491-.211 4.646z" fill="#E32E30"/></svg>