<svg width="294" height="87" viewBox="0 0 294 87" fill="none" xmlns="http://www.w3.org/2000/svg"><path d="M14.025 61.761h30.24V48.153h-30.24v13.608zM63.266 85.45h19.656l31.248-71.568V1.407H51.044v15.75H93.38L63.266 85.45zm57.698-41.958c0 21.672 10.71 43.47 34.776 43.47 23.94 0 34.776-21.798 34.776-43.47S179.68.147 155.74.147c-24.066 0-34.776 21.672-34.776 43.344zm51.282 0c0 15.498-4.536 27.594-16.506 27.594-12.096 0-16.632-12.096-16.632-27.594 0-15.498 4.536-27.468 16.632-27.468 11.97 0 16.506 11.97 16.506 27.468zm25.039-6.397c0 8.835 6.365 15.58 16.055 15.58 9.785 0 16.15-6.745 16.15-15.58 0-8.93-6.365-15.96-16.15-15.96-9.69 0-16.055 7.03-16.055 15.96zm9.88 48.355h7.125l40.565-63.365h-7.22l-40.47 63.365zm13.68-48.355c0 4.94-3.135 8.17-7.505 8.17-4.275 0-7.505-3.23-7.505-8.17 0-5.32 3.23-8.455 7.505-8.455 4.37 0 7.505 3.135 7.505 8.455zm11.305 33.82c0 8.835 6.365 15.675 16.055 15.675s16.15-6.84 16.15-15.675c0-8.93-6.46-15.96-16.15-15.96-9.69 0-16.055 7.03-16.055 15.96zm23.655 0c0 5.13-3.23 8.265-7.6 8.265-4.37 0-7.505-3.135-7.505-8.265 0-5.225 3.135-8.455 7.505-8.455s7.6 3.23 7.6 8.455zm25.322-31.414h3.402l-.27-5.94 4.968 3.186 1.728-2.916-5.238-2.7 5.238-2.7-1.728-2.97-4.968 3.186.27-5.94h-3.402l.27 5.94-5.022-3.186-1.674 2.97 5.238 2.7-5.238 2.7 1.674 2.916 5.022-3.186-.27 5.94z" fill="#E32E30"/></svg>