<svg width="136" height="141" viewBox="0 0 136 141" fill="none" xmlns="http://www.w3.org/2000/svg"><path d="M19.59 5.75h-3.055v11.58h-4.507V5.75H8.973v11.58h-4.53V5.75H1.41V20h18.18V5.75zM32.396 20h3.311l-5.49-14.25h-3.803L20.902 20h3.333l.897-2.457h6.366L32.397 20zm-4.08-11.622l2.35 6.537h-4.722l2.371-6.537zM37.022 20h3.034V8.42h7.05V5.75H37.023V20zm5.005 78.155c4.666 5.384 13.28 9.422 24.764 9.422 14.895 0 24.765-7.268 24.765-17.766 0-8.614-7.716-13.55-14.087-14.177 7.088-1.167 13.1-6.46 13.1-13.46 0-9.87-8.524-16.42-23.778-16.42-11.036 0-18.932 4.038-23.957 9.691l7.268 9.422c4.217-3.68 9.601-5.923 15.074-5.923 5.743 0 10.05 1.974 10.05 5.743 0 3.32-3.5 5.115-9.69 5.115-2.244 0-6.91 0-8.076-.09v13.28c.897-.09 5.473-.18 8.075-.18 8.165 0 10.678 1.974 10.678 5.473 0 3.5-3.41 6.192-10.05 6.192-5.204 0-12.023-2.244-16.33-6.46l-7.806 10.138z" fill="#E32E30"/><path fill-rule="evenodd" clip-rule="evenodd" d="M0 141h40.59v-14.207H14.206v-26.384H0V141zM134.59 4.273H94v14.206h27.773v26.384h14.206V4.273h-1.389z" fill="#E32E30"/></svg>