<svg width="136" height="141" viewBox="0 0 136 141" fill="none" xmlns="http://www.w3.org/2000/svg"><path d="M19.591 5.75h-3.055v11.58H12.03V5.75H8.974v11.58h-4.53V5.75H1.411V20h18.18V5.75zM32.397 20h3.311l-5.49-14.25h-3.803L20.903 20h3.333l.897-2.457h6.366L32.397 20zm-4.08-11.622l2.35 6.537h-4.722l2.371-6.537zM37.023 20h3.033V8.42h7.05V5.75H37.025V20zm22.859 86.5h15.434V46.652h-13.37L41.04 67.289l8.793 9.242 10.05-10.14V106.5z" fill="#E32E30"/><path fill-rule="evenodd" clip-rule="evenodd" d="M0 141h40.59v-14.207H14.207v-26.384H0V141zM134.59 4.273H94v14.206h27.773v26.384h14.206V4.273h-1.389z" fill="#E32E30"/></svg>