<svg width="136" height="141" viewBox="0 0 136 141" fill="none" xmlns="http://www.w3.org/2000/svg"><path d="M19.59 5.75h-3.054v11.58h-4.508V5.75H8.973v11.58h-4.53V5.75H1.41V20h18.18V5.75zM32.397 20h3.311l-5.49-14.25h-3.803L20.902 20h3.333l.897-2.457H31.5L32.396 20zm-4.08-11.622l2.35 6.537h-4.722l2.372-6.537zM37.023 20h3.034V8.42h7.05V5.75H37.023V20zm7.517 86.5h46.926V93.04h-23.06c16.062-10.408 22.612-18.214 22.612-27.366 0-12.023-10.14-19.92-24.227-19.92-8.344 0-17.855 2.962-24.226 9.96l8.524 10.23c4.307-4.038 9.332-6.55 15.702-6.55 4.666 0 8.525 2.153 8.525 6.28 0 5.922-4.846 10.05-30.777 28.802V106.5z" fill="#E32E30"/><path fill-rule="evenodd" clip-rule="evenodd" d="M0 141h40.59v-14.207H14.206v-26.384H0V141zM134.59 4.273H94v14.206h27.773v26.384h14.206V4.273h-1.389z" fill="#E32E30"/></svg>