<svg width="106" height="111" viewBox="0 0 106 111" fill="none" xmlns="http://www.w3.org/2000/svg"><path d="M15.237 4.806h-2.376v9.006H9.355V4.806H6.979v9.006H3.456V4.806h-2.36v11.083h14.141V4.806zm9.96 11.083h2.575l-4.27-11.083h-2.958l-4.287 11.083h2.592l.698-1.91H24.5l.698 1.91zm-3.174-9.04l1.828 5.085h-3.672l1.844-5.084zm6.773 9.04h2.36V6.883h5.483V4.806h-7.843v11.083zm3.891 60.788c3.63 4.187 10.329 7.327 19.262 7.327 11.585 0 19.261-5.653 19.261-13.818 0-6.7-6.001-10.538-10.956-11.026 5.513-.907 10.189-5.025 10.189-10.468 0-7.677-6.63-12.772-18.494-12.772-8.584 0-14.725 3.14-18.633 7.537l5.652 7.328c3.28-2.861 7.468-4.606 11.725-4.606 4.466 0 7.816 1.535 7.816 4.467 0 2.582-2.722 3.977-7.537 3.977-1.745 0-5.374 0-6.281-.07v10.33c.698-.07 4.257-.14 6.28-.14 6.352 0 8.306 1.535 8.306 4.257 0 2.722-2.652 4.815-7.817 4.815-4.047 0-9.351-1.745-12.701-5.025l-6.072 7.886z" fill="#E32E30"/><path fill-rule="evenodd" clip-rule="evenodd" d="M0 110.556h31.57v-11.05H11.05V78.985H0v31.571zM104.682 4.212h-31.57v11.05h21.6v20.52h11.05V4.213h-1.08z" fill="#E32E30"/></svg>