<svg width="106" height="110" viewBox="0 0 106 110" fill="none" xmlns="http://www.w3.org/2000/svg"><path d="M15.238 3.917H12.86v9.006H9.355V3.917H6.98v9.006H3.457V3.917h-2.36V15h14.14V3.917zM25.198 15h2.575l-4.27-11.083h-2.958L16.258 15h2.592l.698-1.91h4.951l.698 1.91zm-3.175-9.04l1.828 5.085H20.18l1.845-5.084zM28.796 15h2.36V5.994h5.483V3.917h-7.843V15zm5.846 67.278H71.14V71.81H53.206c12.492-8.096 17.587-14.167 17.587-21.286 0-9.351-7.886-15.493-18.843-15.493-6.49 0-13.888 2.303-18.843 7.747l6.63 7.956c3.35-3.14 7.258-5.095 12.213-5.095 3.629 0 6.63 1.675 6.63 4.885 0 4.606-3.769 7.817-23.938 22.402v9.352z" fill="#E32E30"/><path fill-rule="evenodd" clip-rule="evenodd" d="M0 109.667h31.57v-11.05H11.05v-20.52H0v31.57zM104.682 3.323h-31.57v11.05h21.6v20.52h11.05V3.324h-1.08z" fill="#E32E30"/></svg>