<svg width="36" height="36" viewBox="0 0 36 36" fill="none" xmlns="http://www.w3.org/2000/svg"><path fill-rule="evenodd" clip-rule="evenodd" d="M17.673 34.21c8.97 0 16.24-7.271 16.24-16.24 0-8.97-7.27-16.24-16.24-16.24-8.97 0-16.24 7.27-16.24 16.24 0 8.969 7.27 16.24 16.24 16.24zm0 1.4c9.743 0 17.64-7.898 17.64-17.64 0-9.743-7.898-17.64-17.64-17.64S.033 8.226.033 17.97c0 9.742 7.898 17.64 17.64 17.64zm0-23.044c.147.11.277.123.664.145 1.134.065 1.853.307 2.653.894.98.717 1.594 1.716 1.827 2.97.06.326.09.602.11 1.017.012.279.022.387.085.509a.584.584 0 00.522.298.573.573 0 00.45-.208c.141-.171.141-.33.128-.675-.041-1.066-.274-2.023-.693-2.846-.3-.585-.585-.97-1.092-1.466-.54-.526-.958-.82-1.594-1.123-.674-.323-1.15-.424-1.849-.51a8.763 8.763 0 00-.59-.043c-.351-.011-.488-.002-.65.142a.576.576 0 00-.186.456.57.57 0 00.214.44zm3.857 5.34c-.298-.147-.323-.43-.323-.732 0-.488-.128-.995-.35-1.39a2.88 2.88 0 00-1.068-1.088h-.001c-.384-.225-.97-.395-1.493-.437-.182-.014-.39-.05-.533-.214a.577.577 0 01-.048-.717c.196-.298.527-.275.974-.21 1.316.189 2.324.78 2.998 1.758.371.541.61 1.191.69 1.88.018.153.045.7-.015.852a.67.67 0 01-.29.31.57.57 0 01-.25.05.649.649 0 01-.291-.063zm-1.467-2.576c-.294-.27-.638-.438-1.083-.531a3.282 3.282 0 00-.382-.046c-.185-.011-.261-.01-.393.054a.58.58 0 00-.306.407.575.575 0 00.125.49c.135.153.272.191.549.224.463.055.723.212.871.52.075.158.116.33.14.58.026.232.072.382.238.504a.615.615 0 00.366.117.582.582 0 00.388-.139c.215-.194.224-.433.166-.807-.09-.599-.299-1.023-.679-1.373zm3.812 5.967c.15.18.23.39.24.623v.001c.008.177-.025.361-.098.545a2.869 2.869 0 01-.352.584 5.324 5.324 0 01-.733.802 2.5 2.5 0 01-.259.199 2.04 2.04 0 01-.574.293c-.131.04-.268.063-.422.07a2.44 2.44 0 01-.136.003c-.237 0-.393-.041-.73-.177a18.858 18.858 0 01-.885-.385l-.084-.038c-.269-.126-.535-.26-.817-.41l-.105-.057a16.311 16.311 0 01-.783-.45l-.07-.044a16.174 16.174 0 01-4.827-4.587 18.415 18.415 0 00-.054-.079l-.145-.21a15.79 15.79 0 01-.266-.412l-.022-.036c-.088-.14-.171-.28-.252-.42l-.02-.035a14.046 14.046 0 01-1.007-2.132c-.278-.747-.356-1.193-.05-1.706.13-.213.608-.657.918-.884.566-.41.823-.558 1.056-.606.169-.036.44-.014.63.054.088.03.212.093.289.14.46.299 1.565 1.713 1.913 2.378.233.444.304.779.223 1.05-.083.293-.24.451-.735.84-.112.09-.221.18-.296.248-.022.018-.037.033-.051.047l-.021.021a.744.744 0 00-.092.326c.002.26.184.818.485 1.3.216.348.606.796.995 1.142.454.408.857.686 1.307.904.532.259.86.334 1.06.243.048-.022.088-.044.113-.058l.015-.018c.03-.036.113-.133.309-.37.25-.308.379-.453.555-.546a1.34 1.34 0 011.23.015c.237.122.744.428 1.066.647.412.282 1.337 1.014 1.482 1.185z" fill="#E32E30"/></svg>