<svg width="36" height="36" viewBox="0 0 36 36" fill="none" xmlns="http://www.w3.org/2000/svg"><path fill-rule="evenodd" clip-rule="evenodd" d="M34.024 17.97c0 8.969-7.27 16.24-16.24 16.24-8.97 0-16.24-7.271-16.24-16.24 0-8.97 7.27-16.24 16.24-16.24 8.97 0 16.24 7.27 16.24 16.24zm1.4 0c0 9.742-7.898 17.64-17.64 17.64-9.743 0-17.64-7.898-17.64-17.64C.144 8.226 8.04.33 17.784.33c9.742 0 17.64 7.897 17.64 17.64zM21.94 24.166a.598.598 0 00.548.054.565.565 0 00.35-.41l2.28-11.467a.518.518 0 00.01-.153.547.547 0 00-.173-.357.597.597 0 00-.634-.115L10.808 16.87a.557.557 0 00-.367.522c.002.229.15.434.374.517l3.553 1.301.995 3.612c.049.177.186.32.366.382.18.061.38.035.535-.072l1.981-1.366 3.694 2.4zm-.08-1.397l-3.29-2.138a.156.156 0 00-.01-.007l-.005-.004-1.33-.864 6.41-5.91-1.775 8.923zm-5.587-1.014l-.44-1.6c.039.054.089.1.146.138l1.243.807-.95.655zm-1.21-3.484l-2.44-.893 9.387-3.58-6.108 5.632a.553.553 0 00-.175.343l-.31-1.124a.562.562 0 00-.354-.378z" fill="#E32E30"/></svg>