<svg width="36" height="36" viewBox="0 0 36 36" fill="none" xmlns="http://www.w3.org/2000/svg"><path fill-rule="evenodd" clip-rule="evenodd" d="M33.968 17.97c0 8.969-7.271 16.24-16.24 16.24-8.97 0-16.24-7.271-16.24-16.24 0-8.97 7.27-16.24 16.24-16.24 8.969 0 16.24 7.27 16.24 16.24zm1.4 0c0 9.742-7.898 17.64-17.64 17.64-9.743 0-17.64-7.898-17.64-17.64C.087 8.226 7.984.33 17.727.33c9.742 0 17.64 7.897 17.64 17.64zm-17.5 7.272c4.158 0 7.528-3.344 7.528-7.47 0-4.126-3.37-7.47-7.529-7.47-4.158 0-7.528 3.344-7.528 7.47a7.39 7.39 0 001.08 3.857l-1.358 4.008 4.168-1.324a7.542 7.542 0 003.638.93zm-6.33-7.47c0-3.463 2.84-6.281 6.33-6.281s6.329 2.818 6.329 6.281c0 3.463-2.839 6.28-6.33 6.28a6.323 6.323 0 01-3.482-1.038l-2.432.773.791-2.333a6.211 6.211 0 01-1.206-3.682zm9.872 1.552c.133.064.221.106.26.169.045.075.045.442-.108.87-.154.428-.908.84-1.246.87a1.031 1.031 0 00-.156.03c-.238.056-.505.12-2.059-.487-1.73-.677-2.871-2.353-3.111-2.705l-.041-.06c-.093-.121-.754-.993-.754-1.893 0-.844.418-1.286.61-1.49l.036-.037a.68.68 0 01.493-.23c.063 0 .127.005.188.009.057.004.113.007.165.007.013 0 .027 0 .041-.002.104-.007.239-.015.374.307l.171.412c.167.402.366.882.399.948.046.091.076.198.015.32l-.027.053a.963.963 0 01-.158.253 6.847 6.847 0 00-.097.116c-.063.075-.125.15-.18.204-.092.092-.188.191-.08.374a5.54 5.54 0 001.026 1.268c.59.522 1.102.743 1.362.855.05.021.091.039.121.054.186.092.294.075.4-.046.108-.123.463-.535.586-.718.123-.184.245-.152.415-.092.168.061 1.076.505 1.26.595l.095.046z" fill="#E32E30"/></svg>