<svg width="36" height="36" viewBox="0 0 36 36" fill="none" xmlns="http://www.w3.org/2000/svg"><path fill-rule="evenodd" clip-rule="evenodd" d="M34.194 17.97c0 8.97-7.27 16.24-16.24 16.24-8.97 0-16.24-7.27-16.24-16.24 0-8.97 7.27-16.24 16.24-16.24 8.97 0 16.24 7.27 16.24 16.24zm1.4 0c0 9.742-7.898 17.64-17.64 17.64-9.743 0-17.64-7.898-17.64-17.64C.313 8.227 8.21.33 17.953.33c9.742 0 17.64 7.897 17.64 17.64zm-10.407 3.246a.997.997 0 01.05.095.976.976 0 01.054.2.58.58 0 01-.005.258c-.02.075-.084.144-.191.207s-.258.095-.452.095l-1.963.03a.865.865 0 01-.429-.038 1.87 1.87 0 01-.399-.166l-.153-.09a3.642 3.642 0 01-.537-.485 14.163 14.163 0 01-.525-.586 2.554 2.554 0 00-.467-.439c-.167-.118-.31-.158-.434-.117a.5.5 0 00-.06.026.95.95 0 00-.295.333 1.52 1.52 0 00-.132.393c-.038.174-.054.37-.05.586a.755.755 0 01-.026.208.494.494 0 01-.058.14l-.03.038c-.092.096-.227.152-.406.167h-.882a3.52 3.52 0 01-1.12-.125 4.323 4.323 0 01-1.008-.4 9.214 9.214 0 01-.789-.5 4.47 4.47 0 01-.54-.435l-.192-.182a4.976 4.976 0 01-.211-.227 17.37 17.37 0 01-.548-.688 18.756 18.756 0 01-.813-1.142 23.02 23.02 0 01-.939-1.597c-.36-.66-.693-1.346-1-2.057a.593.593 0 01-.046-.205c0-.055.008-.095.023-.12l.03-.046c.077-.096.223-.144.438-.144l2.1-.015a.82.82 0 01.3.114l.037.022a.503.503 0 01.184.242c.103.253.22.514.353.783.133.27.237.476.314.617l.123.22c.148.302.291.564.429.786.138.222.262.395.372.518.11.124.216.221.318.292a.49.49 0 00.26.106.59.59 0 00.208-.038.13.13 0 00.038-.038 1.216 1.216 0 00.196-.522c.023-.146.047-.35.072-.613a5.748 5.748 0 000-.945 3.444 3.444 0 00-.069-.553 1.41 1.41 0 00-.107-.347l-.046-.091c-.128-.172-.345-.28-.652-.326-.066-.01-.053-.07.039-.181.087-.096.184-.172.291-.227.271-.131.882-.192 1.832-.182.42.006.765.038 1.035.099a.872.872 0 01.257.102.407.407 0 01.157.181c.036.079.063.16.08.242.018.084.028.199.028.345 0 .146-.003.285-.008.416l-.02.533c-.007.224-.01.432-.01.624 0 .055-.003.162-.008.318a3.306 3.306 0 00.023.67.812.812 0 00.088.294c.043.079.1.14.172.186l.13.03c.047.01.113-.017.2-.083.087-.066.184-.153.291-.261a3.93 3.93 0 00.399-.507c.158-.23.332-.5.521-.813a12.3 12.3 0 00.82-1.702.518.518 0 01.077-.133.33.33 0 01.085-.079l.03-.022.038-.02.1-.022a.289.289 0 01.153-.004l2.208-.015c.2-.026.363-.02.49.019.129.037.207.08.238.124l.046.076c.117.322-.266 1.064-1.15 2.224-.122.161-.289.376-.498.643-.399.505-.629.834-.69.99-.087.208-.051.412.107.614.087.105.294.312.621.62h.008l.008.008.007.007.015.015c.72.661 1.21 1.218 1.465 1.672z" fill="#E32E30"/></svg>